<?xml version="1.0" encoding="utf-8"?>
<!-- Generator: Adobe Illustrator 26.5.0, SVG Export Plug-In . SVG Version: 6.00 Build 0)  -->
<svg version="1.1" id="Icon" xmlns="http://www.w3.org/2000/svg" xmlns:xlink="http://www.w3.org/1999/xlink" x="0px" y="0px"
	 viewBox="0 0 64 64" style="enable-background:new 0 0 64 64;" xml:space="preserve">
<style type="text/css">
	.st0{fill:#868685;}
	.st1{display:none;fill-rule:evenodd;clip-rule:evenodd;fill:none;}
</style>
<g>
	<path class="st0" d="M46.3,1.9H17.7C9,1.9,1.9,9,1.9,17.7v28.5C1.9,55,9,62.1,17.7,62.1h28.5c8.8,0,15.9-7.1,15.9-15.9V17.7
		C62.1,9,55,1.9,46.3,1.9z M59,46.3c0,7-5.7,12.7-12.7,12.7H17.7C10.7,59,5,53.3,5,46.3V17.7C5,10.7,10.7,5,17.7,5h28.5
		c7,0,12.7,5.7,12.7,12.7V46.3z"/>
	<path class="st0" d="M41.3,22.7c-2-2-4.5-3.3-7.3-3.7c-2.7-0.4-5.5,0.1-7.9,1.3c-2.4,1.3-4.4,3.3-5.6,5.7c-1.2,2.4-1.7,5.2-1.2,7.9
		c0.4,2.7,1.7,5.2,3.6,7.1c1.9,1.9,4.4,3.2,7.1,3.6c2.7,0.4,5.5,0,7.9-1.2c2.4-1.2,4.4-3.2,5.7-5.6c1.3-2.4,1.7-5.2,1.3-7.9
		C44.6,27.2,43.3,24.7,41.3,22.7z M36.5,40.7c-1.8,0.9-3.9,1.3-6,0.9c-2-0.3-3.9-1.3-5.4-2.8c-1.5-1.5-2.4-3.3-2.8-5.4
		c-0.3-2,0-4.1,0.9-6c0.9-1.8,2.4-3.4,4.3-4.3c1.8-1,3.9-1.3,6-1c2.1,0.3,4,1.3,5.5,2.8c1.5,1.5,2.5,3.4,2.8,5.5c0.3,2,0,4.1-1,6
		C39.9,38.2,38.4,39.7,36.5,40.7z"/>
	<path class="st0" d="M47.7,14.7L47.7,14.7c-0.9,0-1.6,0.7-1.6,1.6s0.7,1.6,1.6,1.6h0c0.9,0,1.6-0.7,1.6-1.6S48.6,14.7,47.7,14.7z"
		/>
</g>
<path class="st1" d="M14.3-28.4c0-2.8,2.2-5,5-5h26c2.8,0,5,2.2,5,5v26c0,2.8-2.2,5-5,5h-26c-2.8,0-5-2.2-5-5V-28.4z"/>
</svg>
