<?xml version="1.0" encoding="utf-8"?>
<!-- Generator: Adobe Illustrator 26.5.0, SVG Export Plug-In . SVG Version: 6.00 Build 0)  -->
<svg version="1.1" id="Icon" xmlns="http://www.w3.org/2000/svg" xmlns:xlink="http://www.w3.org/1999/xlink" x="0px" y="0px"
	 viewBox="0 0 64 64" style="enable-background:new 0 0 64 64;" xml:space="preserve">
<style type="text/css">
	.st0{fill:#868685;}
	.st1{display:none;fill-rule:evenodd;clip-rule:evenodd;fill:none;}
</style>
<path class="st0" d="M46.3,1.9H17.7C9,1.9,1.9,9,1.9,17.7v28.5C1.9,55,9,62.1,17.7,62.1h16h4.1H42h4.3c8.8,0,15.9-7.1,15.9-15.9
	V17.7C62.1,9,55,1.9,46.3,1.9z M33.8,42.6h-4.7v-5.4h4.7c0.8,0,1.4-0.6,1.4-1.4v-6.2c0-2.4,0.9-4.7,2.6-6.3c1.7-1.7,3.9-2.6,6.2-2.6
	h4.7v5.4H44c-0.9,0-1.8,0.4-2.5,1c-0.7,0.7-1,1.6-1,2.5v6.2c0,0.8,0.6,1.4,1.4,1.4h6.4L47,42.6h-5c-0.8,0-1.4,0.6-1.4,1.4V59h-5.3
	V44C35.2,43.2,34.6,42.6,33.8,42.6z M59,46.3c0,7-5.7,12.7-12.7,12.7h-2.8V45.5h4.7c0.7,0,1.2-0.5,1.4-1.1l2.1-8.3
	c0.1-0.4,0-0.9-0.3-1.2c-0.3-0.3-0.7-0.6-1.1-0.6h-6.8v-4.8c0-0.2,0.1-0.3,0.2-0.5c0.1-0.1,0.3-0.2,0.4-0.2h6.2
	c0.8,0,1.4-0.6,1.4-1.4V19c0-0.8-0.6-1.4-1.4-1.4H44c-3.1,0-6.1,1.3-8.3,3.5c-2.2,2.2-3.4,5.2-3.4,8.4v4.8h-4.7
	c-0.8,0-1.4,0.6-1.4,1.4V44c0,0.8,0.6,1.4,1.4,1.4h4.7V59H17.7C10.7,59,5,53.3,5,46.3V17.7C5,10.7,10.7,5,17.7,5h28.5
	c7,0,12.7,5.7,12.7,12.7V46.3z"/>
</svg>
