<svg width="13" height="16" viewBox="0 0 13 16" fill="none" xmlns="http://www.w3.org/2000/svg">
<path d="M11.9545 6.34673C11.9545 10.5053 6.49996 14.0698 6.49996 14.0698C6.49996 14.0698 1.04541 10.5053 1.04541 6.34673C1.04541 4.92869 1.62008 3.56873 2.64301 2.56602C3.66594 1.56331 5.05332 1 6.49996 1C7.94659 1 9.33398 1.56331 10.3569 2.56602C11.3798 3.56873 11.9545 4.92869 11.9545 6.34673Z" stroke="#FF8A00" stroke-width="2" stroke-linecap="round" stroke-linejoin="round"/>
<path d="M6.50007 8.12899C7.50422 8.12899 8.31825 7.33105 8.31825 6.34674C8.31825 5.36244 7.50422 4.5645 6.50007 4.5645C5.49591 4.5645 4.68188 5.36244 4.68188 6.34674C4.68188 7.33105 5.49591 8.12899 6.50007 8.12899Z" stroke="#FF8A00" stroke-width="2" stroke-linecap="round" stroke-linejoin="round"/>
</svg>
