<?xml version="1.0" encoding="utf-8"?>
<!-- Generator: Adobe Illustrator 26.5.0, SVG Export Plug-In . SVG Version: 6.00 Build 0)  -->
<svg version="1.1" id="logo" xmlns="http://www.w3.org/2000/svg" xmlns:xlink="http://www.w3.org/1999/xlink" x="0px" y="0px"
	 viewBox="0 0 204.5 71.2" style="enable-background:new 0 0 204.5 71.2;" xml:space="preserve">
<style type="text/css">
	.st0{fill:#000000;}
</style>
<path class="st0" d="M27.6,63c0.4,0,0.8,0.1,1-0.3C27.8,62.3,27.8,62.3,27.6,63z M51.3,37.7c0.1,0.3,0.1,0.7,0.3,1
	c0.2-0.3,0.4-0.7,0.6-1c0.1-0.2,0.2-0.3,0-0.5s-0.3,0-0.4,0.2C51.6,37.5,51.5,37.6,51.3,37.7z M51.7,39.6c0.3-0.4,0-0.7-0.1-1
	C51.6,39,51.6,39.3,51.7,39.6z M25.7,58.6c0,0.1,0,0.2,0,0.2l0,0l0,0c-0.1,0-0.1,0-0.2,0c0.1,0.5,0.3,0.9,0.7,1.2
	c0.1,0.1,0.2,0.2,0.3,0.3c0,0.3,0.1,0.7,0.2,1c0.1,0.2,0.6,0.2,0.8,0.5c0.4,0.5,1,0.7,1.6,0.8c0.3,0,0.5,0,0.8,0.1l0,0
	c0.2,0.2,0.4,0.2,0.6,0.2c0.5-0.1,1,0,1.5,0.3c0-0.1-0.1-0.2-0.1-0.3c0-0.6,0-0.6-0.5-0.4c-0.2,0.1-0.5,0.2-0.7,0.2
	c0-0.1,0.1-0.1,0-0.2l0,0v-0.1c0.9,0,0.8-1.1,1.5-1.3V61c-0.2-0.6,0.1-1.2,0-1.8c-0.1-0.5-0.2-1-0.3-1.6c-0.1-0.6,0-1.2-0.1-1.7
	c-0.2-0.5-0.2-1-0.2-1.4c0.1-1-0.4-2-0.1-3c0-0.1,0-0.1,0-0.2c0.1,0,0.1,0,0.2,0l0,0c0.1,0.1,0.1,0.1,0.2,0.2l0,0
	c0.1-0.1,0-0.2-0.1-0.2h0.1c0.6-0.3,0.8-0.7,0.4-1.3c-0.3-0.4-0.2-0.8-0.1-1.3c0.4-1,0-1.9-0.2-2.9c0-0.1-0.1-0.2-0.2-0.3
	c-0.1-0.8-0.5-1.6-0.2-2.4c0-0.8,0.2-1.5-0.2-2.2c-0.2-0.5-0.2-0.9-0.2-1.4c0.1-1,0.4-2,0.2-2.9c-0.4-1.3-0.2-2.5-0.1-3.8
	c0-0.1,0.1-0.2,0.1-0.3c-0.2-2.3-0.1-4.6,0.9-6.8c0.2-0.4,0.2-0.8,0-1.2c-0.5-0.8-0.9-1.5-1.7-2c-0.2,0-0.3-0.1-0.5-0.2
	c-0.1-0.1-0.1-0.2,0-0.3c0.1-0.3,0.4,0,0.6-0.1c0.1,0,0.1,0,0.2,0c0.2,0.1,0.4,0.1,0.6,0c0.3,0.2,0.6,0.3,0.9,0.1
	c0.4-0.2,0.9-0.4,1.3-0.6c0.3,0.1,0.5,0,0.8-0.2c1.3-0.9,2.5-1.8,3.9-2.6c0.2-0.1,0.5-0.3,0.5-0.6l0,0c0.1,0,0.1,0.1,0.2,0.1
	c0.3,0.1,0.6-0.1,0.9-0.2c1-0.4,1.9-0.8,3-1c1.1-0.2,2.2-0.5,3.1,0.4l0,0c0,0.1,0,0.1-0.1,0.2c0,0.8,0.1,1.6,0.2,2.4
	c0.1,0.6,0.1,1.1,0.2,1.7c0,0.7,0,1.4,0,2c-0.2,0.8-0.1,1.6-0.1,2.3c0,0.1,0.1,0.1,0.2,0.2c0,0.2,0.1,0.4,0.3,0.5v0.1v0.1
	c0,0.1,0,0.1-0.1,0.1c-0.3,0.1-0.7,0.2-0.5,0.7c0.1,0.1,0.2,0.1,0,0.2c-0.5,0.6-0.5,1.3-0.3,2c0.1,0.1,0.1,0.3,0.2,0.4
	c-0.7,0.9-0.7,1,0.3,2c0,0,0.1,0,0.2,0c0.1,0.1,0.1,0.2,0.2,0.3l0,0c0,0.3,0,0.6,0,0.8l-0.1,0.1v0.1c-0.2,0-0.4,0.2-0.5,0.3
	c0,0,0,0,0-0.1c-0.1,0.1-0.2,0.2-0.2,0.4c-0.1,0.2-0.1,0.4-0.1,0.5l0,0c-0.2,0-0.2-0.3-0.4-0.2c-0.1,0.9,0,1,0.6,0.8v0.1
	c0.1,0.1,0.1,0.2,0.2,0.3c0,0.2-0.1,0.5-0.1,0.7l0,0l0,0c-0.1,0-0.1-0.1-0.2-0.1c-0.4,0.4-0.3,0.9,0,1.3l0,0l0,0l-0.1-0.1
	c-0.7,0.1-0.9,0.4-0.5,1c0.2,0.2,0.3,0.5,0.2,0.8c0,0.3,0,0.6,0.3,0.7c0.1,0,0.1,0,0.2,0c0,0,0,0,0.1,0l0,0c0,0,0,0,0.1,0
	c0,0.1,0,0.2,0,0.3v0.1c-0.2-0.1-0.5-0.2-0.8,0c-0.6,0.4-0.6,0.6,0,0.8c0.2,0.1,0.3,0.2,0.3,0.4c0,0.3,0,0.6,0,0.9
	c-0.1,0.4-0.1,0.7,0.4,0.8c0.1,0,0.2,0.1,0.3,0.1c0,0,0,0,0,0.1s-0.1,0.3-0.1,0.4c-0.2,0-0.4-0.1-0.5-0.1c-0.2,0-0.4,0.1-0.4,0.3
	s0,0.3,0.2,0.4c0.1,0,0.2,0.1,0.2,0.1c-0.1,0.1-0.2,0.2-0.2,0.3c-0.1,0.1-0.2,0.2-0.2,0.3s0,0.1-0.1,0.2c-0.1,0.1-0.2,0.2-0.1,0.4
	c0.1,0.4,0,0.8,0.3,1.1h0.1v0.1c0,0.3,0,0.6,0.2,0.8l0.1,0.1c0.1,0.2,0.4,0.3,0.3,0.6c-0.1,0.1-0.2,0.1-0.4,0.2
	c-0.4,0.6-0.3,0.8,0.4,1.3V50c0,0.1,0.1,0.1,0.2,0.2c0,0,0.1,0,0.1,0.1c-0.1,0.2-0.3,0.3-0.6,0.4c-0.2,0-0.4,0.1-0.5,0.1
	s-0.4,0.1-0.4,0.3c0,0.3,0.3,0.3,0.5,0.3c0.1,0.1,0.1,0.1,0.2,0.2c-0.1,0.3-0.3,0.6-0.4,0.9c-0.2,0.4-0.1,0.6,0.3,0.6
	c0.1,0,0.2,0,0.4,0c0,0.2-0.1,0.4-0.3,0.4c-0.5,0.1-0.5,0.4-0.4,0.8c0,0.1,0,0.3,0,0.5c0,0.1,0,0.1,0,0.2c0.1,0.4,0,0.7-0.3,1
	c0-0.2-0.1-0.3-0.3-0.4l0,0c-0.3-0.5-0.6-0.9-0.9-1.4l0,0c-0.1-0.2-0.2-0.3-0.3-0.5c-0.4-0.4-0.6-0.3-1,0.2c0.2,0.3,0.1,0.7,0.5,1
	h0.1l0,0h-0.1c0.1,0.1,0.1,0.2,0.2,0.3c0.1,0.3,0.2,0.6,0.3,1c0,0.1,0,0.1,0,0.1c0,0.1,0,0.1,0,0.2c0,0.2,0,0.4,0.2,0.6
	c0,0.1,0,0.1,0,0.2c0.1,0.1,0.1,0.1,0.2,0.2c0,0.2,0,0.3,0.2,0.4l0,0c0,0.1,0,0.1,0,0.2c0.1,0.1,0.1,0.1,0.2,0.2c0,0.1,0,0.1,0,0.2
	c0.1,0.1,0.1,0.1,0.2,0.2c0,0.1,0,0.1,0,0.2c0.1,0.1,0.1,0.1,0.2,0.2c0,0.1,0,0.1,0,0.2c0.1,0.1,0.1,0.1,0.2,0.2c0,0.1,0,0.1,0,0.2
	c-0.8,0.2-1.5,0.5-2.3,0.4c-0.1,0.1-0.3,0.1-0.4,0.2c0,0.2-0.2,0.3,0.1,0.6c0.3-0.3,0.8,0.1,1.1-0.1c0.6-0.4,1.2-0.2,1.9-0.3l0,0
	c0.1,0.1,0.1,0.1,0.2,0.2c0.1,0.1,0.1,0.1,0.2,0.2c0,0.1,0,0.1,0,0.2c0.3,0.4,0.6,0.8,0.4,1.2c-0.4,0.9,0.5,1.6,0.4,2.4
	c0.9,0.7,1.3,2.1,2.9,1.8c0.2,0,0.3,0.1,0.5,0.2c0,0,0-0.1,0.1-0.1l0,0c0,0,0,0-0.1,0.1c0.1,0.4,0.4,0.4,0.7,0.3
	c0.6,0,1.3-0.1,1.8,0.3l0,0c0.1,0.1,0.1,0.1,0.2,0.1c0.2-0.1,0.3-0.4,0.5-0.6c-0.1-0.3,0-0.5,0.1-0.7L53.2,66l0,0l0.1,0.1
	c0.8-0.2,0.8-0.3,0.6-1.2c0.1,0,0.2-0.1,0.2-0.2c0.2-0.1,0.3-0.2,0.2-0.3c-0.1-0.6-0.3-1.2-0.5-1.7c-0.1-0.4-0.5-0.7-0.5-1.2
	c-0.1-0.1-0.2-0.2-0.3-0.3l0,0c0.1,0,0.2,0.2,0.3,0.3c0.1-0.3-0.1-0.6-0.2-0.8c-0.2-0.5-0.7-0.9-0.6-1.5l0,0c0-0.3-0.1-0.5-0.1-0.8
	c-0.1,0-0.1,0-0.1,0h-0.1c-0.1,0-0.1,0-0.2,0c-0.1,0-0.1,0-0.1,0c0-0.1-0.1-0.2-0.1-0.2c0.2-0.4,0.2-0.7-0.3-0.8
	c-0.4-0.1,0-0.7-0.4-0.9c-0.2-0.1,0-0.3,0.1-0.5s0.3-0.5-0.1-0.6c-1-0.6-0.8-1.5-0.6-2.4c0.3-0.1,0.4-0.2,0.4-0.5
	c-0.3,0.1-0.6-0.4-0.9,0l0,0c-0.2,0-0.4,0-0.6-0.1c0-0.1,0-0.2,0.1-0.3l0,0c0.1,0,0.3-0.1,0.4-0.1l0,0H50l0,0c0.2,0.3,0.4,0.3,0.6,0
	c0-0.1,0-0.1,0.1-0.2c0-0.4-0.2-0.5-0.5-0.5c-0.1,0-0.3,0.1-0.4,0.1c-0.1-0.1-0.3-0.2-0.3-0.3c0,0,0,0,0-0.1
	c0.3-0.2,0.6-0.3,0.7-0.7c-0.2-0.1-0.3-0.1-0.5-0.1c-0.1-0.2-0.4-0.3-0.2-0.6c0.1-0.2,0.2-0.4,0.5-0.4c0.1,0,0.3,0,0.3-0.2
	c-0.3-0.7,0.5-0.5,0.6-0.7c0.3,0,0.4-0.2,0.6-0.3c0-0.3-0.2-0.4-0.4-0.4c0-0.1-0.1-0.2-0.1-0.4h-0.1c0-0.2,0-0.4-0.2-0.4
	c-0.3,0-0.3,0.3-0.2,0.5c0,0,0,0,0,0.1c0,0,0,0-0.1,0.1c-0.2,0.1-0.3,0.2-0.4-0.1c-0.1-0.4,0-0.7,0-1.1l0,0c0.4-0.1,0.8,0.1,1.2-0.1
	c-0.2-0.3-0.6-0.4-1-0.4c0-0.1,0-0.1,0.1-0.2c0.1-0.1,0.1-0.1,0.2-0.2c0-0.4,0.1-0.7,0.7-0.7c0.1,0,0.1-0.1,0.2-0.2
	c0.1,0,0.1,0,0.2,0c0-0.2,0-0.3-0.1-0.4c0-0.2,0.4-0.2,0.2-0.5c-0.1-0.2-0.4-0.3-0.4-0.6h0.1c0.2,0,0.2-0.2,0.2-0.4
	c0.2-0.1,0.2-0.2,0-0.4l0,0c-0.1-0.2-0.2-0.4-0.5-0.2c-0.1,0.1,0,0.4-0.3,0.5c-0.1-0.8,0.6-1.3,0.4-2c0,0,0.2-0.1,0.3-0.2l0,0
	c0.5,0,0.4-0.4,0.4-0.7c0.1,0,0.1,0,0.2,0h0.1c0,0,0-0.1-0.1-0.1c-0.2-0.6-0.3-1.3,0.1-1.9c0-0.4,0.1-0.7,0.2-1.1
	c0.2-0.6,0.5-1.3-0.1-1.9c-0.1-0.1,0-0.3,0-0.5l0,0l0,0l0,0c0.1-0.1,0.2-0.2,0.2-0.4c-0.1,0-0.2,0-0.2,0l0,0
	c-0.2,0.1-0.3,0.1-0.3-0.2c0,0,0-0.1-0.1-0.1l0,0l0,0c0,0,0,0,0-0.1c0.1-0.2,0.1-0.4,0.1-0.7c-0.1-0.5-0.4-0.7-0.8-0.9
	c0.1-0.1,0.1-0.2,0.1-0.3c0.5-0.4,0.3-1.1,0.6-1.7l0.1-0.1c0-0.1,0-0.2,0-0.3c0,0-0.1,0-0.1-0.1l0,0c0,0,0,0.1,0.1,0.1
	c0.3-0.5,0-1.3,0.5-1.8v-0.1c-0.5-0.4-0.1-0.8-0.1-1.2l0,0c0.3-0.8,0.4-1.6,0.5-2.4c0-0.1,0-0.1,0-0.2c0-0.4-0.4-0.8-0.2-1.2
	c-0.5-0.1-0.4-0.6-0.6-0.9c-0.3-0.6-0.1-0.9,0.3-1.2l0.1,0.1c0.1-0.1,0.1-0.1,0.2-0.2c0,0,0,0-0.1-0.1c0-0.6-0.1-1.1-0.2-1.7l0,0
	c-0.1-0.5-0.2-1-0.3-1.5l0,0c0.2-0.1,0.1-0.4,0.2-0.6c-0.1,0-0.1,0-0.2,0c-0.2-0.7-0.5-1.4-1.2-1.5c-0.7-0.2-1.4-0.5-2.2-0.6
	c-1.2-0.3-2.4-0.1-3.6,0.1c-1.4,0.2-2.7,0.6-4,1l0,0c-0.4,0-0.8-0.3-1,0.3c-0.9,0.1-1.7,0.6-2.4,1.2c0,0.1,0,0.1-0.1,0.2
	c-0.3,0.1-0.5,0.3-0.8,0.5c-0.2,0-0.3,0.1-0.4,0.2c-0.5,0.1-0.8,0.6-1.3,0.7c-0.1,0-0.3,0.1-0.3,0.2l0,0c-0.8,0.1-1.5,0.5-1.9,1.2
	c-0.2,0-0.3,0-0.4,0.2c-0.2,0.1-0.5,0.1-0.6,0.3c-0.3,0.5-0.7,0.2-1.1,0.1c-0.3-0.1-0.6-0.1-0.9,0.1c-0.2,0.1,0.2,0.4,0,0.6
	c-0.2,0-0.4,0-0.6,0S28.9,21,28.8,21c-0.5-0.5-1.1-0.4-1.7-0.1c-0.2,0-0.3,0-0.5,0c-0.3,0-0.4,0.1-0.3,0.4c-0.1,0.1-0.1,0.3-0.1,0.4
	c0.1,0,0.1,0.1,0.1,0.1c0.4,0.3,0.5,0.7,0.4,1.2c-0.1,1.9-0.2,3.7-0.3,5.6c-0.1,1.2-0.2,2.4-0.4,3.6c0.2,0.4,0.2,0.8,0.1,1.3
	c0,0.3-0.2,0.6,0.1,0.9l0,0l0,0l0,0l0,0l0,0l0,0c-0.2,0.8,0.2,1.5,0.1,2.3c-0.1,0.5-0.2,0.9,0.1,1.4c0.1,0.9,0,1.9,0,2.8
	c0,0.7,0,1.4,0.4,2c0,0.2,0,0.5,0,0.7c-0.1,0.8,0.1,1.7-0.1,2.5l0,0c-0.2,0.1-0.6,0.2-0.1,0.5c0.1,0.1,0.2,0.2,0.2,0.4
	c-0.2,0.3-0.1,0.7-0.2,1c-0.2,1,0,2.1-0.3,3.1c0.3,0.5,0,1.1,0.2,1.6c-0.1,0.5,0,1.1,0,1.6c-0.1,0.4-0.1,0.8-0.1,1.2
	c0,0.3,0,0.5,0,0.8c-0.3,0.1-0.4,0.2-0.3,0.5H26c-0.5-0.3-0.5,0.3-1,0.4c0.4,0.2,0.6,0.4,0.9,0.5C25.1,57.8,25.6,58.1,25.7,58.6z
	 M43,55.2L43,55.2L43,55.2L43,55.2z M53.1,65.3L53.1,65.3L53.1,65.3L53.1,65.3z M50.4,39.6c0,0.1,0,0.1,0.1,0.2c0,0.1,0,0.2,0,0.3
	l0,0C50.4,39.9,50.4,39.7,50.4,39.6z M51.2,26.4C51.3,26.4,51.3,26.4,51.2,26.4C51.3,26.4,51.3,26.4,51.2,26.4L51.2,26.4z
	 M50.3,23.2L50.3,23.2C50.4,23.2,50.4,23.2,50.3,23.2C50.4,23.2,50.4,23.2,50.3,23.2C50.4,23.2,50.4,23.2,50.3,23.2z M48.9,34.9
	L48.9,34.9L48.9,34.9L48.9,34.9z M47.5,26.4L47.5,26.4L47.5,26.4L47.5,26.4z M46.9,27.3L46.9,27.3L46.9,27.3L46.9,27.3z M25.7,31.5
	L25.7,31.5L25.7,31.5L25.7,31.5z M25.1,54.7c-0.2,0.1-0.6,0.1-0.2,0.5C25.1,55,25.2,54.9,25.1,54.7z M51.4,16.7c0,0.1,0,0.1,0,0.2
	h0.1C51.5,16.8,51.5,16.8,51.4,16.7z M49.7,49.4c0,0.1,0,0.2,0.1,0.2c0.2,0,0.3-0.1,0.3-0.3c0-0.1-0.1-0.2-0.2-0.2
	C49.9,49.2,49.8,49.3,49.7,49.4z M41.5,60.5c-0.3-0.3-0.6-0.2-0.9-0.2c0,0.3-0.1,0.6,0.1,0.9c0.1,0.2,0.2,0.2,0.4,0.2
	c0.2-0.1,0.2-0.2,0.1-0.4c-0.1-0.1-0.3-0.2-0.1-0.5C41.1,60.4,41.3,60.5,41.5,60.5z M31.8,52.5c0,0.3-0.1,0.5,0.1,0.8
	c0.3-0.2,0-0.5,0-0.8c0-0.1,0-0.3,0-0.4C32,52,32,52,32.1,51.9c0.2-0.3,0.1-0.5-0.2-0.6h-0.1C31.5,51.7,31.8,52.1,31.8,52.5z
	 M31.9,54.2c0.1,0.1,0.1,0.1,0.2,0.2l0,0l0,0l0,0c0.1,0.1,0.1,0.1,0.2,0.2c0-0.1,0-0.1,0-0.2c-0.1-0.1-0.1-0.1-0.2-0.2
	C32,54.2,31.9,54.2,31.9,54.2z M25,29c-0.2,0.3-0.4,0.6-0.1,1C24.8,29.7,25.3,29.4,25,29z M25,30L25,30L25,30L25,30z M25.1,49.2
	c0,0,0-0.1-0.1-0.1C25.1,49.2,25.1,49.2,25.1,49.2C25.1,49.3,25.1,49.2,25.1,49.2z M24.8,50.2c0.1,0,0.1,0,0.2,0
	C25,50.1,24.9,50.1,24.8,50.2z M25.3,45.5L25.3,45.5L25.3,45.5L25.3,45.5z M25.2,47.4c0.1,0,0.1,0,0.2,0
	C25.3,47.3,25.2,47.3,25.2,47.4z M25,47.4c0.1,0.1,0.1,0.1,0.2,0C25.1,47.4,25,47.4,25,47.4z M50.6,45.9L50.6,45.9L50.6,45.9
	L50.6,45.9z M50.6,45.9L50.6,45.9C50.6,45.9,50.5,45.9,50.6,45.9z M25.3,34.2L25.3,34.2L25.3,34.2L25.3,34.2z M35.1,35.7
	C35.1,35.6,35.1,35.6,35.1,35.7c0.2-0.2,0.4-0.2,0.4,0.1c0,0.2,0,0.3,0.2,0.4c0.1,0.2,0.2,0.4,0.2,0.6c0.1,0.7,0.7,1.3,0.6,2
	c-0.6,0.9-0.6,0.9,0.1,1.4c0,0.2,0,0.5,0,0.7c-0.2,0.3-0.3,0.5-0.5,0.8C36,41.8,36,42,36.2,42l0,0l0,0c0.1,0.1,0.1,0.3,0.2,0.4
	c0,0.2,0,0.4-0.1,0.5c-0.1,0-0.1,0-0.1,0c-0.1,0-0.2,0-0.3,0c-0.2,0-0.3,0.1-0.3,0.3c-0.5,1.3-0.4,2.6,0.1,3.9
	c0.2,0.4,0.1,0.9,0.1,1.3c0,0.4,0,0.8-0.1,1.1c0.2,0.1,0.1,0.3,0.1,0.5c0,0.4,0.3,0.6,0.5,0.7c0.3,0.1,0.5-0.2,0.6-0.4
	c0.2-0.2,0.4-0.5,0.8-0.2l0,0c0.1,0.1,0.1,0.3,0.2,0.4c0.1,0.3,0.1,0.5,0.2,0.8c0.1,0.2,0.2,0.4,0.5,0.3c0.2,0,0.4-0.1,0.5-0.4
	c0.1-0.7,0.2-0.7,0.9-0.6c0-0.1,0-0.1,0-0.2h0.1h0.1c0.1,0,0.1-0.1,0.2-0.2c0-0.1,0-0.2,0-0.4c0-0.1,0-0.3,0-0.4c0.1,0,0.1,0,0.2,0
	c0.4-0.5,0.5-1,0.5-1.6c0-0.2,0-0.5,0-0.7V47v-0.1l0,0l0,0l0,0c-0.1-0.4-0.4-0.8-0.1-1.2c0.3-0.3,0.3-0.8,0.5-1.1c0.6-1,0.5-2,0.3-3
	c0.1-0.5,0-0.8-0.3-1.2c-0.2-0.2-0.3-0.4-0.3-0.6c-0.1-0.1-0.1-0.1-0.2-0.2l0,0c-0.1-0.2-0.2-0.4-0.4-0.6c-0.1-0.1-0.2-0.1-0.4-0.2
	c-0.1-0.1-0.1-0.1-0.2-0.2c-0.1-0.2-0.1-0.4-0.3-0.5c-0.8-0.4-1.1-1.3-1.7-1.9c-0.2-0.2,0.1-0.8-0.5-0.8c0-0.1,0.1-0.1,0.1-0.2
	c0-0.3,0-0.6,0-0.9c0.1-0.3,0-0.6-0.2-0.8c-0.1-0.2-0.1-0.3,0-0.5c0.3-0.5,1.6-0.8,2.2-0.5c1.1,0.5,2.3,0.2,3-0.6l0,0
	c0.1-0.1,0.1-0.1,0.2-0.2c1.1-0.8,1.1-1.4,0.1-2.3c-0.3-0.3-0.6-0.5-0.9-0.8c-1-0.9-2.1-1.6-3.3-2.1c-0.3,0-0.5,0-0.7-0.1
	c-0.2-0.2-0.4-0.4-0.3-0.8c0-0.1-0.1-0.2-0.3-0.2c-0.4,0.1-0.7-0.1-1,0c-0.2,0-0.3,0-0.5-0.1c-0.8-0.1-0.8-0.1-0.7,0.6
	c0,0.1,0,0.1,0.1,0.2c0.3,0.5,0.7,1,0.7,1.6s-0.1,1.1-0.2,1.7c-0.7,0.6-0.8,1.4-0.7,2.3c-0.7,0.1-0.8,0.1-1,0.9c0,0.2,0,0.4-0.1,0.6
	c-0.2,0.2-0.2,0.4,0,0.6c0,0.4-0.1,0.8-0.1,1.2c-0.1,0.1-0.1,0.3,0,0.4c0,0.2,0,0.4,0,0.6c0,0.2-0.1,0.4,0.2,0.6c0-0.2,0-0.4,0-0.5
	l0,0h0.1c0,0,0,0,0-0.1c0.1,0.2,0.4,0.3,0.6,0.3C35.1,36,35,35.8,35.1,35.7z M33.4,21.9L33.4,21.9L33.4,21.9L33.4,21.9z M33,22.1
	l0.1,0.1c0.1,0,0.2,0,0.3-0.2c0-0.1,0-0.1,0-0.2c-0.1,0-0.1,0-0.2,0C33.1,21.9,33,21.9,33,22.1z M45.8,24.5c0-0.1-0.1-0.2-0.3-0.2
	s-0.2,0.2-0.3,0.3c0,0.2,0.1,0.2,0.3,0.2C45.7,24.8,45.8,24.7,45.8,24.5z M38.8,35.8c0,0.1,0,0.2,0.1,0.2c0.2,0,0.4-0.2,0.5-0.4
	c0-0.1-0.1-0.2-0.2-0.2C39.1,35.5,38.9,35.6,38.8,35.8z M45.2,36.7L45.2,36.7v0.2V36.7C45.3,36.7,45.2,36.7,45.2,36.7z M96.9,11.2
	L96.9,11.2c-0.3,0.7-0.3,0.9,0.2,1.2c0.1-0.1,0.1-0.1,0.2-0.2c0-0.1,0-0.1,0-0.2c-0.1-0.1-0.1-0.1-0.2-0.2c0-0.1,0-0.3,0-0.4
	C97,11.4,97,11.3,96.9,11.2z M97.6,14.5c0.1,0.2,0.2,0.3,0.3,0.5s0.1,0.4,0,0.6c-0.1,0.1,0,0.4,0.1,0.4c0.8,0.1,0.7,0.6,0.6,1.1
	c0,0.2,0.1,0.4,0.2,0.6c0.2,0.3,0.3,0.7,0.1,1c-0.1,0.2-0.1,0.4,0,0.7c0,0.1,0.1,0.2,0,0.3v0.1c0,0.1-0.1,0.2-0.2,0.2l0,0l0,0
	c-0.1,0.1-0.2,0.1-0.3,0.2c-0.1,0-0.1,0.1-0.2,0.2c0,0-0.1,0.1-0.1,0.2c-0.6,0.5-0.6,0.5-0.3,0.7c0.4,0.4,0.6,0.4,1-0.2
	c0-0.1,0.1-0.1,0.1-0.1H99c0.1,0,0.2,0,0.2,0c0.1,0,0.2,0,0.3,0s0.2,0,0.2-0.1c0.1,0,0.2-0.1,0.2-0.1c0.6-0.2,1.2,0,1.7,0.3
	c0.1,0.1,0.2,0.2,0.3,0.3c0,0,0,0,0,0.1c-0.1,1.1,0.4,1.9,1,2.7c0,0,0.1,0,0.1,0.1c0,0.3,0.2,0.6,0.4,0.9c0.3,0.3,0.5,0.7,1,0.6
	c0.2-0.2,0.2-0.4,0.2-0.7c0.1-0.2,0.1-0.5,0.1-0.7c0.1-0.1,0.1-0.2,0.2-0.3c0.1-0.2,0.2-0.4,0.2-0.6c0-0.1,0-0.1,0-0.2
	c0.2-0.3,0.4-0.7,0.1-1.1c-0.2-0.2-0.2-0.5-0.2-0.7c0.1-0.4,0-0.8-0.2-1.1v-0.1c0-0.1,0.1-0.2,0.1-0.3c0.1-0.2,0.2-0.3,0.3-0.5
	c0.3-0.6,0.2-1.3,0.1-2c-0.1-0.1-0.1-0.2-0.2-0.3c0-0.1,0-0.2,0-0.3l0,0c0-0.1-0.1-0.1-0.2-0.2v-0.1c-0.1-1,0.8-1.7,0.9-2.7
	c0-0.5,0.1-0.9-0.5-1.1c0,0-0.1,0-0.1-0.1v-0.1c-0.4-0.3-0.7-0.7-1.3-0.6c-0.5-0.3-1.2-0.3-1.4-1c-0.7-0.4-1.4-0.8-2.2-0.9
	c-0.5-0.1-1.1-0.4-1.6-0.6s-1-0.4-1.6-0.1c0,0.4-0.2,0.8-0.1,1.1c0.3,0.8,0.1,1.6,0.1,2.3C97.8,13.7,97.2,14.1,97.6,14.5z M99.4,9.1
	c0-0.2,0-0.3-0.2-0.4C99.2,8.8,99.2,9,99.4,9.1z M85.5,35.8L85.5,35.8c0.1,0,0.1,0,0.2,0c0.1,0.1,0.1,0.1,0.2,0.2l0,0
	c0.3,0.3,0.5,0.3,0.8,0c0.2-0.1,0.2-0.2,0.2-0.4c0.1-0.2,0.3-0.5,0.6-0.4c0.3,0.1,0.3,0.4,0.4,0.7c0,0.3,0,0.7,0,1
	c0,0.5,0,0.9,0.4,1.3c0.1,0.2,0,0.3-0.2,0.4c-0.2,0.1-0.2,0.2-0.2,0.4c0.1,0.3,0.1,0.7,0.1,1c0,0.9,0.2,1.9-0.1,2.8
	c0.1,0.1,0.2,0.1,0.4,0.1c-0.2,0.5-0.2,1,0.2,1.5c0.2,0.2,0.2,0.5,0,0.8c-0.2,0.3-0.4,0.7-0.2,1.1c-0.1,0.2,0,0.4-0.2,0.6
	c0.2,0.4,0.6,0.7,0.8,1.2c0.1,0.5,0.1,0.9,0.2,1.4c-0.1-0.1-0.2-0.1-0.3-0.2c-0.2,0.5-0.7,0.8-0.7,1.4c-0.1,0.1-0.3,0.1-0.3,0.3l0,0
	c0,0.1,0,0.1,0,0.2c-0.1,0.1-0.1,0.2,0,0.4c0,0.2,0,0.4,0,0.6c-0.2,0-0.4,0.1-0.3,0.4c0.1,0.2,0.1,0.3-0.1,0.4
	c0-0.1-0.1-0.2-0.2-0.2c-0.1,0.2,0,0.3,0.2,0.4c-0.1,0.3,0,0.5,0.2,0.7c0.3-0.2,0.7,0.1,1,0c0.1,0,0.1,0,0.2,0c0,0.1,0,0.1,0,0.2
	c-0.3,0.3-0.3,0.5,0,0.8c0,0.1,0,0.2,0,0.4c-0.1,0-0.3,0-0.4,0l0,0c-0.1-0.1-0.3-0.1-0.4-0.1c-0.4,0-1,0.1-1,0.3
	c0,0.4,0.5,0.3,0.8,0.6c0.1,0.1,0.2,0.1,0.3,0.2c-0.3,0.2-0.3,0.4,0,0.6c0.1,0.1,0.2,0.2,0.2,0.4c0.1,0.2,0.2,0.3,0.2,0.5
	c0,0.1,0,0.2,0,0.3c0.2,0.2,0.3,0.5,0.4,0.7c0.1,0.3,0.3,0.5,0.7,0.5c0.3,0,0.6,0.3,0.7-0.1c0.1-0.4,0.4-0.4,0.7-0.4
	c0.2,0,0.5,0.1,0.6-0.2c0.2-0.1,0.3-0.2,0.5,0c0.3,0.3,0.6,0.3,0.9,0.1c0.4-0.3,0-0.6-0.1-0.9c0-0.5-0.3-0.9-0.2-1.5
	c0-0.2-0.2-0.4-0.3-0.6c0.1-0.4,0.1-0.7-0.3-0.9c-0.1-0.1-0.3-0.3-0.2-0.4c0.6-0.3,0.3-0.8,0.3-1.3l0,0c0.3-0.9,0.3-0.9-0.6-1.1
	c0-0.1-0.1-0.3-0.2-0.4l0,0l0,0l0,0l0,0l0,0h-0.1l0,0l0,0c0-0.3,0.3-0.3,0.4-0.6c0.3,0,0.3-0.2,0.2-0.4c0.1,0,0.2-0.1,0.2-0.2l0,0
	c0.4-0.4,0.1-0.9,0.3-1.4c0.1,0,0.1,0,0.2,0c0-0.1,0-0.1,0-0.2c0.2-0.1,0.2-0.3,0.2-0.5c0.2-0.7-0.2-1.2-0.3-1.9
	c0.1-0.1,0.1-0.2,0.2-0.2l0,0l0,0c0-0.3,0-0.6,0.1-1c0,0,0.1,0,0.1-0.1c0.3-0.1,0.3-0.2,0-0.4l0,0c0-0.1,0-0.2,0-0.2
	c-0.1-0.8,0.4-1.4,0.3-2.2c0.6-1.3,0.8-2.6,0.3-3.9l0,0c0.5,0,0.6-0.3,0.7-0.7l0.1-0.1c0.4-0.6,0-0.8-0.4-1.1
	c-0.7-0.5-1.5-0.9-2.4-1.2c0.2,0,0.4,0,0.6,0c-0.2-0.3-0.5-0.2-0.8-0.2c-0.1,0-0.3,0-0.4,0c-0.5-0.2-1-0.5-1.5-0.7
	c-0.2-0.1-0.5-0.3-0.6,0.1c-0.1-0.1-0.2-0.2-0.2-0.4h0.1c0.2-0.1,0.3-0.2,0.4-0.4v-0.1c0.1-0.1,0.1-0.1,0.2-0.2
	c0.1-0.1,0.1-0.1,0.2-0.2s0.1-0.1,0.2-0.2l0,0c-0.3-0.4-0.3-0.6-0.3-1h0.1c0,0.1,0.1,0.1,0.1,0.2c0.7,0.1,1.2-0.4,1.3-1.4H91
	c0.1-0.1,0.1-0.2,0.2-0.4c0,0,0,0,0.1,0c0.5-0.2,0.5-0.6,0.6-1c0,0,0,0,0.1,0.1c0.9-0.5,1.1-1.5,2-2c0.1-0.2,0.2-0.3,0.4-0.4V27
	c0.1,0,0.2-0.1,0.2-0.1s0,0,0.1-0.1c0.3-0.1,0.5-0.3,0.5-0.7c0,0,0,0,0.1-0.1s0.1-0.1,0.2-0.2c0,0,0,0,0.1,0s0.1-0.1,0.2-0.1h0.1
	c0-0.5,0.5-0.7,0.8-0.9c0.1,0,0.1,0,0.2-0.1c0.1,0,0.2-0.1,0.2-0.2c0,0,0-0.1,0.1-0.1c0.4-0.1,0.6-0.5,0.8-0.9
	c-0.4-0.1-0.6,0.2-0.8,0.4c-0.2-0.1-0.3-0.3-0.7-0.4c0.2,0.8-0.3,0.6-0.7,0.5c-0.2,0-0.3-0.1-0.4-0.2c0.2,0,0.4,0,0.6,0
	c0.2-0.4,0.2-0.7-0.2-1l0,0c-0.3,0.2-0.2,0.6-0.4,0.8c-0.1,0-0.1,0-0.2,0c-0.1,0.1-0.1,0.1-0.2,0.2c0,0.1,0,0.1,0,0.2
	c0.1,0.4,0.3,0.8,0.2,1.2c-0.1,0.1-0.3,0.1-0.4,0.2c-0.3,0-0.6,0.1-0.6,0.4c0,0.4-0.7,0.1-0.6,0.6c0,0.1-0.1,0.2-0.1,0.3l0,0l0,0
	h-0.1l0,0c-0.2,0.1-0.3,0.2-0.4,0.4l0,0c-0.1,0-0.2,0.1-0.2,0.2c-0.5,0.1-0.9,0.6-1.4,0.5l0,0c-0.4,0.3-0.9,0.4-0.8,1l0,0l0,0l0,0
	c-0.1,0.1-0.1,0.1-0.2,0.2l0,0c0.3,0.6-0.3,0.9-0.4,1.4c-0.2,0.1-0.2,0.3,0,0.4l0,0c0,0.1,0,0.3,0,0.4c-0.1,0-0.1,0-0.2,0
	c-0.1,0.1-0.1,0.1-0.2,0.2l0,0c-0.3,0-0.6-0.1-0.8,0.2c-0.1,0.1-0.2,0.2-0.4,0.2c-0.1,0-0.1,0-0.2,0c0,0.2,0,0.4,0,0.6l0,0
	c-0.3-0.1-0.4,0-0.6,0.2c-0.1,0-0.1,0-0.2,0c0,0.1,0,0.1,0,0.2s0,0.1,0,0.2c-0.1,0.1-0.1,0.1-0.2,0.2c-0.1,0-0.1,0-0.2,0
	c-0.4,0.2-0.4,0.5-0.3,0.8c0.2,0.3,0.1,0.7,0.2,1c-0.3,0.2-0.7,0.3-1,0.5c-0.1,0-0.3,0-0.4,0c-0.1,0-0.2,0-0.4,0
	c-0.1,0-0.1,0.1-0.2,0.2l0,0C84.6,36.2,85.1,36,85.5,35.8z M88.3,51.2L88.3,51.2L88.3,51.2L88.3,51.2L88.3,51.2L88.3,51.2z M91.5,49
	L91.5,49L91.5,49L91.5,49z M91.2,35.1C91.2,35.2,91.2,35.2,91.2,35.1C91.2,35.2,91.2,35.2,91.2,35.1C91.2,35.2,91.2,35.2,91.2,35.1z
	 M90.9,50.5L90.9,50.5L90.9,50.5L90.9,50.5L90.9,50.5L90.9,50.5L90.9,50.5L90.9,50.5L90.9,50.5z M94.9,25.6L94.9,25.6L94.9,25.6
	L94.9,25.6z M92.4,27.2L92.4,27.2L92.4,27.2L92.4,27.2z M90.2,28.9C90.2,29,90.2,29,90.2,28.9C90.2,29,90.2,29,90.2,28.9
	C90.2,29,90.2,29,90.2,28.9L90.2,28.9C90.2,29,90.2,28.9,90.2,28.9z M88.6,32.9C88.6,32.9,88.6,33,88.6,32.9
	C88.6,33,88.6,32.9,88.6,32.9L88.6,32.9z M88.1,32.7C88.1,32.7,88,32.7,88.1,32.7c-0.2,0-0.3,0.1-0.4,0.3c-0.3-0.1-0.1-0.4-0.2-0.5
	C87.7,32.5,88.1,32.3,88.1,32.7z M78.3,46.4c0.1-0.1,0.1-0.2,0.1-0.3V46c0.1,0,0.1-0.1,0.2-0.1c0,0,0.1,0.1,0.2,0
	c0.3-0.4,0.8-0.7,0.6-1.2h0.1l0,0c0.1-0.1,0.1-0.1,0.2-0.2c0.3-0.3,0.9-0.3,1-0.8c0-0.5,0.4-0.7,0.5-1.1c0.1-0.1,0.3-0.3,0.4-0.4
	c0.4-0.4,0.8-0.7,1-1.2l0,0c0.3-0.4,0.2-1.1,0.8-1.2c0.1-0.1,0.1-0.1,0.2-0.2c0.3-0.1,0-0.6,0.3-0.6c0.4,0,0.6-0.4,0.9-0.6
	c0.1,0,0.1,0,0.2,0c0-0.1,0-0.1,0-0.2l0,0l0,0c0-0.4,0.4-0.7,0.6-1c-0.5-0.9-0.6-0.9-1.3-0.2c0,0-0.1,0.1-0.1,0.2
	c-0.1,0-0.1,0-0.2,0c0,0,0,0,0,0.1l0,0l0,0c-0.1-0.1-0.2-0.1-0.2,0l0,0l0,0c0,0,0,0,0-0.1c-0.1,0.1-0.1,0.1-0.2,0.2
	c-0.2,0.2-0.2,0.4-0.1,0.6c0.2,0.4,0.5-0.1,0.8,0.1c-0.5,0.6-0.9,0.2-1.4,0.1c-0.3,0.1-0.7,0.1-0.6,0.6c0,0.2,0.2,0.5,0,0.5
	c-0.6-0.2-1.1,0.5-1.7,0.3c-0.2,0.2-0.1,0.3,0.1,0.4c0.3,0.1,0.7,0.3,0.4,0.8l0,0l0,0l0,0c-0.2,0-0.3,0.1-0.4,0.2
	c-0.4,0-0.8-0.2-1.2,0.2c-0.1,0.1-0.1,0.1-0.2,0.2s-0.3,0.1-0.4,0.2c-0.2,0.1-0.3,0.2-0.4,0.4l0,0c0,0.1,0,0.1,0,0.2l0,0l0,0l0,0
	c-0.5,0.1-0.5,0.4-0.3,0.7c0.1,0.2,0.4,0.3,0.4,0.5l0,0l0,0l0,0c-0.1,0.1-0.1,0.1-0.2,0.2c0,0.1,0,0.1,0,0.2
	c-0.1,0.1-0.2,0.1-0.4,0.2c-0.2,0.2-0.6,0.2-0.7,0.5c-0.1,0.1-0.1,0.1-0.2,0.2c-0.2,0.1-0.2,0.4-0.2,0.6c-0.3,0.1-0.6,0.3-0.7,0.6
	l0,0l0,0C76.1,46,76.1,46,76,46.1c-0.5-0.1-0.8,0.2-1,0.6l0.1,0.1l0,0l0,0c0,0,0,0-0.1-0.1c-0.5,0.9-0.6,0.9-1.6,0.5
	c-0.2-0.1-0.4-0.1-0.4,0c-0.2,0.7-0.7,0.1-1,0.1c0.1,0.4,0.2,0.6,0.3,0.9c0,0.1,0,0.1,0,0.2s0,0.1,0,0.2c-0.1,0-0.3,0-0.4,0
	c0,0.1,0,0.1,0,0.2l0,0c-0.2,0.2-0.2,0.4-0.2,0.6c-0.2,0.2-0.2,0.3,0,0.5l0,0c0,0.1,0,0.3-0.2,0.4c0,0.1,0,0.1,0,0.2s0,0.1,0,0.2
	c0.1,0,0.1,0,0.2,0l0,0c0.1,0.1,0.1,0.1,0.2,0.2l0,0C72,51,72,51,72.1,51.1c0.1,0.2,0.2,0.3,0.3,0.5c0.3,0.4,0.5,0.3,0.7-0.1
	c0.2-0.2,0.3-0.5,0.6-0.5c0.5,0,1,0.2,1.3-0.1c0.4-0.4,0.9-0.9,0.9-1.5c0-0.4,0.3-0.6,0.6-0.8c0.3-0.2,0.7-0.4,0.7-0.9l0,0l0,0
	c0.1-0.1,0.3-0.1,0.4-0.2c0-0.1,0-0.2,0-0.4h0.1C78,46.7,78.2,46.6,78.3,46.4z M80.1,42.7L80.1,42.7L80.1,42.7L80.1,42.7L80.1,42.7z
	 M80.1,42.7L80.1,42.7L80.1,42.7L80.1,42.7z M79.6,42.1L79.6,42.1C79.5,42.1,79.5,42.1,79.6,42.1C79.5,42.1,79.5,42.1,79.6,42.1z
	 M74.1,48.6L74.1,48.6L74.1,48.6L74.1,48.6z M75.1,47.8L75.1,47.8L75.1,47.8L75.1,47.8L75.1,47.8L75.1,47.8z M112.2,28.6
	c-0.9,0.2-1.8,0.6-2.7,0.5c-0.6,0.1-1.3,0.1-2,0.2c-0.5,0.1-0.9,0-1.3-0.4c0-0.1-0.1-0.1-0.2-0.1c0-0.1,0-0.1,0-0.2
	c0.7-0.4,1.2-0.9,1.1-1.8c0.1-0.1,0.2-0.2,0.2-0.4c0.6-0.4,1.3-0.7,2-1c0.1,0,0.2-0.1,0.2-0.2l0,0c0.1,0,0.3,0,0.4,0
	c0-0.1,0.1-0.3,0.2-0.4c0-0.1,0-0.1,0-0.2c0.1-0.2,0.3-0.4,0.4-0.6c0.3-0.3,0.1-0.9,0.6-1c0.1-0.1,0.3-0.3,0.4-0.4
	c0.5-0.2,0.5-0.8,0.6-1.2c0.4-0.2,0.9-0.1,1.2-0.4c0.2-0.3,0.3-0.6,0.6-0.8c0.4-0.4,0.7-0.8,0.5-1.3c-0.2-0.4-0.2-1-0.6-1.3
	c-0.8-0.6-1.4-1.3-2.3-1.7c-1.1-0.6-2.1-1.4-3.2-2c-0.2-0.1-0.4-0.4-0.7-0.1c-0.2,0.2-0.2,0.5,0,0.7c0.1,0.1,0.2,0.3,0.2,0.5
	c0.3,0.6,0.8,1,1.1,1.5c0.4,0.6,0.3,1.2,0,1.7c-0.3,0.4-0.5,0.7-0.4,1.3c0.1,0.3-0.2,0.5-0.3,0.7c-0.1,0.1-0.2,0.2-0.2,0.3l0,0
	c-0.2,0.1-0.2,0.2-0.2,0.4l0,0c-0.1,0.1-0.1,0.1-0.2,0.2l0,0c-0.1,0-0.2,0.1-0.2,0.2l0,0c-0.1,0-0.1,0-0.2,0
	c-0.1,0.1-0.2,0.1-0.2,0.2c-0.1,0.1-0.3,0.1-0.4,0.2l0,0c-0.6-0.3-0.6,0.1-0.6,0.6l0.1,0.1c-0.1,0.1-0.1,0.2-0.2,0.3
	c-0.1,0.1-0.3,0.2-0.2,0.4c0.1,0.2,0.3,0.1,0.4,0c0.2-0.1,0.4-0.1,0.6-0.1c0,0.2,0,0.4,0,0.6l0,0c-0.1,0-0.2,0.1-0.2,0.2l0,0
	c-0.1,0.1-0.2,0.2-0.2,0.4c0,0.1,0.1,0.1,0.2,0h0.1h0.1c0,0.1,0.1,0.2,0.2,0.2c0,0.1,0.1,0.2,0.2,0.2c0,0.1,0,0.1-0.1,0.2
	c0,0,0,0,0,0.1h-0.1c-0.2-0.1-0.3-0.1-0.5-0.2c-0.2-0.1-0.4,0.1-0.5,0.2c0,0.1,0,0.1-0.1,0.2s-0.1,0.2-0.2,0.3l0,0
	c-0.1,0-0.1,0.1-0.2,0.1c0,0.1,0.2,0.3,0.1,0.4s-0.2,0-0.3,0c-0.3,0.3-0.1,0.7,0,1c0,0.1,0.1,0.1,0.1,0.2c-0.1,0-0.2,0.1-0.3,0.2
	c-0.5,0.3-0.4-0.2-0.4-0.4c0.2-0.1,0.2-0.2,0.2-0.4c-0.1,0-0.3,0-0.4,0l0,0l0,0c-0.3,0.1-0.8-0.1-1,0.4c0.1,0.2,0.2,0.3,0.1,0.6
	c-0.1,0-0.1,0-0.2,0c-0.6,0.2-0.2,0.4,0,0.6l0,0c0.2,0.7-0.4,0.8-0.8,0.9c-0.2,0.2-0.4,0.4-0.6,0.6c-0.2,0.1-0.6,0.3-0.4,0.5
	c0.3,0.4,0.4,1,0.5,1.4c0,0-0.1,0.1-0.2,0.1c-0.3-0.3-0.6-0.4-1-0.2c-0.3,0.3-0.6,0.7-0.8,1c-0.5,0-0.8,0.1-0.8,0.6
	c0.1,0.2,0.2,0.4,0.4,0.5c-0.1,0.2-0.3,0.4-0.6,0.4L98.9,34c0,0,0,0,0-0.1H99c-0.1-0.2-0.2-0.4-0.2-0.6c-0.1-0.3-0.3-0.4-0.6-0.4
	c-0.1-0.1-0.1-0.1-0.2-0.2c-0.1,0-0.1,0-0.2,0c-0.3-0.1-0.4-0.1-0.7,0.3L97,33.1v0.1c-0.2,0.2-0.2,0.4-0.2,0.6
	c-0.1,0.1-0.2,0.2-0.3,0.4c-0.2,0.1-0.2,0.3,0,0.4c0.2,0.2,0,0.4,0.1,0.6c-0.1,0.1-0.1,0.1-0.2,0.2c-0.1,0-0.1,0-0.2,0
	c-0.8-0.1-0.8,0-0.7,0.6c0,0,0,0.1,0,0.2s0.1,0.2,0.2,0.3l0,0c0.1,0.1,0.1,0.3,0.2,0.4c-0.1,0-0.1,0-0.2,0c0,0.2,0,0.3,0.2,0.4
	c0.2,0.2,0.4,0.3,0.6,0.5c0.1,0.1,0.1,0.1,0.2,0.2c-0.2,0.5,0,0.9,0.2,1.3c0.1,0.3,0.3,0.7,0.7,0.6c0.4,0,0.9-0.1,1-0.7
	c0.2-0.3,0.7,0.1,0.9-0.3l0,0c0.1-0.1,0.2-0.2,0.2-0.2c0.1,0,0.2,0,0.4,0c0.2,0,0.4,0,0.6,0c0,0,0-0.1,0.1-0.1
	c0.1-0.1,0.1-0.1,0.2-0.2c0-0.1,0-0.1,0-0.2c0-0.2,0-0.4,0.1-0.6c0.4-0.4,0.3-0.7-0.2-1c0.6-0.1,1.1,0,1.2-0.6
	c-0.4,0.3-0.9,0.5-1.4,0.3l0,0l0,0l0,0l0,0l0,0c0.1-0.2,0.4-0.1,0.5-0.3c0.2-0.2,0.1-0.6,0.2-0.8c0-0.1,0-0.1,0-0.2l0.1-0.1
	c0.1,0.1,0.1,0,0-0.1c-0.2-0.1-0.3-0.1-0.4,0.1c0-0.1-0.1-0.3-0.2-0.4l0,0l0,0c0.1,0,0.1-0.1,0.1-0.2l0,0c0,0,0,0.1,0.1,0.1
	c0.1,0.1,0.3,0.1,0.5,0c0.1,0,0.1-0.1,0.1-0.1h0.1l0,0l0.1,0.1c0.5-0.1,0.6-0.5,0.8-0.8v-0.1c0.1-0.1,0.1-0.1,0.2-0.2
	c0,0-0.1,0-0.1-0.1l0,0c0,0,0.1,0,0.1,0.1h0.1l0,0c0.2-0.4,0.8-0.6,0.8-0.9c0-0.6,0.5-0.8,0.8-1.1c0.1,0,0.1,0,0.2,0
	c0.1-0.2,0.3-0.2,0.4-0.2c0.2,0.3,0.4,0.5,0.7,0.7c0.1,0.1,0.2,0.2,0.3,0.4c0.4,0.3,0.8,0,1.1-0.1c1.7-0.5,3.3-1.3,5.1-1.3
	c0.5,0,0.7,0.1,0.5,0.6c-0.2,0.5-0.5,1-0.8,1.5c0.3,0.9,0.5,1.1,1.3,0.7c0.3-0.1,0.5-0.3,0.7-0.5V33c0,0.1,0,0.1,0,0.2
	c-0.1,0.2,0,0.3,0.2,0.3c-0.4,0.8-1,1.4-1.5,2.1c-0.1,0.2-0.1,0.3-0.1,0.5l0,0c0.4,0.3,0.7,0.3,1.1,0.1c0,0,0.1,0,0.1-0.1l0,0
	c0.1-0.1,0.2-0.1,0.2-0.2l0,0c0.2-0.2,0.2-0.4,0-0.6c0.5-0.8,1-1.1,1.7-1.1c0.5,0,0.9,0.1,1.4,0.2l0,0c0.2,0,0.5,0.1,0.7,0.1
	c0.3,0,0.5,0,0.7-0.2c0.3,0,0.6,0.1,0.8,0.3c0.1,0.1,0.3,0.1,0.4,0c0-0.1,0.1-0.3,0.1-0.4c0.1,0,0.2,0,0.3,0c0-0.1,0.1-0.1,0.1-0.2
	c0.3-0.1,0.6-0.2,0.8-0.5c0.1,0,0.1,0,0.2,0c0.7-0.2,0.8-0.9,1.2-1.3c0-0.4,0.5-0.9-0.5-0.9c-0.2,0-0.2-0.4-0.1-0.6
	c-0.4-0.6-0.9-1-1.5-1.3c-1.3-0.7-2.9-0.6-4.3-1c-0.2-0.1-0.3,0.1-0.4,0.3C114.7,28.5,113.4,28.3,112.2,28.6z M108.5,20.6
	L108.5,20.6L108.5,20.6L108.5,20.6L108.5,20.6L108.5,20.6L108.5,20.6L108.5,20.6L108.5,20.6z M96.6,35.8L96.6,35.8
	C96.6,35.7,96.6,35.7,96.6,35.8L96.6,35.8z M99.5,38.6L99.5,38.6C99.5,38.7,99.5,38.7,99.5,38.6C99.5,38.7,99.5,38.7,99.5,38.6z
	 M102.4,32.2C102.4,32.1,102.4,32.1,102.4,32.2C102.4,32.1,102.4,32.1,102.4,32.2C102.5,32.2,102.4,32.2,102.4,32.2z M104.2,29.6
	L104.2,29.6L104.2,29.6C104.2,29.5,104.2,29.6,104.2,29.6L104.2,29.6z M105.2,27.9C105.2,28,105.2,28,105.2,27.9
	C105.2,28,105.2,27.9,105.2,27.9L105.2,27.9L105.2,27.9L105.2,27.9L105.2,27.9z M120.8,32.8C120.8,32.9,120.8,32.9,120.8,32.8
	C120.8,32.9,120.8,32.9,120.8,32.8C120.8,32.9,120.8,32.9,120.8,32.8z M122.7,31.7C122.7,31.7,122.6,31.7,122.7,31.7
	C122.6,31.7,122.6,31.7,122.7,31.7L122.7,31.7z M97.4,14.7c0-0.1,0-0.1,0-0.2C97.4,14.5,97.3,14.5,97.4,14.7
	C97.4,14.6,97.4,14.6,97.4,14.7z M105.3,20.1c0.2-0.1,0.2-0.4,0.2-0.6C105.3,19.7,105.3,19.9,105.3,20.1z M140.1,60.2
	c-0.2-0.2-0.4-0.3-0.6-0.5c0-0.1-0.1-0.1-0.1-0.2c-0.1-0.1-0.2-0.2-0.3-0.3c-0.8-0.7-1.8-0.9-2.6-1.6c0,0,0,0,0-0.1
	c-0.3,0-0.6,0.1-0.8-0.2l0,0c-0.1-0.1-0.1-0.1-0.2-0.2l0,0c-0.2,0-0.4-0.1-0.6-0.1c-0.1-0.1-0.2-0.2-0.4-0.2c-0.1,0-0.2,0-0.3,0l0,0
	c-0.2-0.2-0.5-0.1-0.7-0.3c-0.1,0-0.3,0-0.4,0c-0.3-0.2-0.7-0.3-1-0.4c-1.3-0.4-2.7-0.5-4-1.1c-0.4,0-0.9-0.1-1.3-0.1
	c-0.3,0-0.4-0.1-0.5-0.4c-0.1,0-0.1,0-0.2,0c-0.3,0-0.7,0-1,0c-0.5,0-1-0.5-1.5-0.2c-0.5-0.3-0.9-0.6-1.5-0.2
	c-0.4,0.3-0.5-0.2-0.7-0.4c-0.2-0.4-0.6-0.4-1-0.4c-0.5,0-1.1-0.1-1.5-0.3c-0.4-0.2-0.7-0.3-1.1-0.3c-0.1,0-0.1,0-0.2,0
	c-0.3-0.3-0.7-0.3-1-0.6c-0.3-0.3-0.8-0.5-1.2-0.4c-0.1,0-0.1,0-0.2,0c-0.1-0.2-0.3-0.4-0.6-0.4l0,0c0-0.1-0.1-0.2-0.2-0.2
	c0-0.1-0.1-0.2-0.2-0.2c-0.3-0.1-0.7-0.2-1-0.3c0,0-0.1,0-0.1,0.1c-0.2,0.2-0.4,0.5-0.4,0.9c0,0.2,0.2,0.3,0.3,0.4
	c-0.1,0-0.2,0.1-0.3,0.2l0,0l0,0l0,0c0,0-0.1,0-0.1-0.1c-0.5,0.2-0.5,0.3-0.2,0.5c0.1,0.1,0.3,0.3,0.5,0.2c0.1,0,0.2-0.1,0.3,0
	c0,0,0,0,0.1,0h0.1c0,0,0.1,0,0.1,0.1c0.2,0.5,0.6,0.5,1,0.5c0.1,0,0.2,0.1,0.3,0.1c0,0,0,0,0.1,0c0,0,0,0,0.1,0.1
	c0.2,0.4,0.5,0.6,0.8,0.7c0.2,0.1,0.3,0.3,0.5,0.4c0.7,0.3,1.3,0.9,2.2,0.7l0,0c0.1,0.1,0.1,0.2,0.3,0.3h0.1
	c0.2,0.2,0.6,0.4,0.7,0.7c0.1,0,0.2,0.1,0.3,0.1c0.1,0.1,0.1,0.1,0.2,0.2c0.7,0.5,1.4,1,1.9,1.6l0,0c0,0.2,0.2,0.4,0.5,0.3
	c0.1,0,0.2,0.1,0.2,0.1c-0.2,0.1-0.3,0.2-0.3,0.3c0.1,0.2,0.2,0.4,0.5,0.4c0.3,0,0.6-0.1,0.8-0.3c0.1,0.1,0.3,0.1,0.4,0.2
	c0.1,0.2,0.1,0.4,0.3,0.4c0.1,0,0.1-0.2,0.1-0.4c0.2,0.1,0.4,0.2,0.6,0.3c0.6,0.5,1.2,0.8,2,0.9c0.1,0,0.1,0,0.2,0c0,0,0,0,0.1,0
	c0.5,0.1,1,0.1,1.4-0.3c0.5-0.9,0.8-1,1.6-0.4l0,0l0,0c0.3,0.5,0.9,0.2,1.3,0.4c0.1,0,0.2,0.1,0.3,0.1c0.1,0.1,0.3,0,0.5,0
	c0.3,0,0.8-0.1,0.8,0.5c0.3,0.8,1.1,0.9,1.8,1.1c0.3,0.1,0.5-0.1,0.6-0.4c-0.1,0-0.1,0-0.2,0l0,0h0.1c0.2,0,0.3-0.1,0.5,0
	c0.9,0.8,2,0.7,3,0.7c1,0.1,1.9-0.4,2.2-1.1C141.1,61,140.5,60.7,140.1,60.2z M127.3,54.5c-0.4-0.3-0.7-0.4-1.1-0.5
	c0.1,0.1,0.1,0.3,0.2,0.4C126.7,54.5,127,54.8,127.3,54.5z M126.4,54.4L126.4,54.4L126.4,54.4L126.4,54.4L126.4,54.4z M92.1,59.2
	c0,0.1,0,0.3,0,0.4c0.1-0.1,0.1-0.1,0.2-0.2c0.2-0.1,0.2-0.2,0.2-0.4C92.3,59.1,92.1,58.8,92.1,59.2z M99.1,57.9
	c0.1,0.3,0.1,0.6,0.4,0.6c0.1,0,0.2-0.1,0.2-0.2C99.7,58,99.5,58,99.1,57.9z M102,56.9c0,0.1,0.1,0.2,0.1,0.3c0-0.1,0.1-0.2,0.1-0.2
	C102.1,56.9,102.1,56.9,102,56.9z M116.3,35.1C116.3,35.2,116.2,35.2,116.3,35.1c0,0.1,0,0.2,0,0.2c0.1,0.2,0.4,0.2,0.6,0.2
	c0-0.1,0-0.1,0-0.2c0.1-0.1,0.2-0.3,0.2-0.4c-0.1-0.2-0.2-0.3-0.4-0.4C116.6,34.8,116.5,35,116.3,35.1z M115.2,38.3
	c0-0.2,0-0.3-0.2-0.4c-0.1,0.1-0.1,0.1-0.2,0.2C114.9,38.3,115.1,38.3,115.2,38.3z M113.3,33.9C113.2,33.9,113.2,33.9,113.3,33.9
	C113.3,34,113.3,34,113.3,33.9C113.3,34,113.3,34,113.3,33.9L113.3,33.9z M142.1,61.7c-0.1-0.1-0.1-0.1-0.2-0.2c0,0.1,0,0.1,0,0.2
	c0,0.1,0,0.3,0,0.4c0,0.2,0,0.3,0.2,0.4c0-0.1,0-0.3,0-0.4S142.1,61.9,142.1,61.7z M141.9,61.5c-0.1-0.2-0.2-0.2-0.4-0.2
	C141.6,61.5,141.7,61.5,141.9,61.5z M142.1,62.7c0,0.1,0,0.1,0,0.2c0.1-0.1,0.1-0.1,0.2-0.2c-0.1-0.1-0.1-0.1-0.2-0.2
	C142.1,62.6,142.1,62.7,142.1,62.7z M92.2,35.2c0.1,0.2,0.4,0.2,0.6,0.2C92.6,35.3,92.5,35.1,92.2,35.2z M92.3,51.3
	c0-0.2,0-0.4,0-0.6C92.1,50.9,92.1,51.1,92.3,51.3z M93.1,57.4c0-0.1,0-0.3,0-0.4C92.9,57.1,92.9,57.3,93.1,57.4z M92.3,51.3
	c0,0.2,0,0.3,0.2,0.4C92.5,51.6,92.5,51.4,92.3,51.3z M87.3,54.1c0-0.1,0.1-0.2,0.1-0.3c0-0.1,0-0.1,0-0.2c-0.1,0-0.1,0.1-0.1,0.1
	C87.2,53.9,87.1,54,87.3,54.1z M87.4,53.6L87.4,53.6L87.4,53.6L87.4,53.6L87.4,53.6z M87.4,51.2c0-0.1-0.2-0.1-0.3-0.1
	c0,0.1,0,0.2,0,0.3C87.2,51.3,87.4,51.4,87.4,51.2z M114.2,54.3c0-0.2-0.1-0.2-0.2-0.2c-0.1,0-0.3,0-0.3,0.2c0,0.1,0.1,0.2,0.2,0.2
	C114,54.4,114.2,54.5,114.2,54.3z M115.4,36.6c-0.2,0.1-0.4,0.1-0.6,0.1c-0.3,0-0.4-0.2-0.4-0.4c0-0.1,0-0.1,0-0.2
	c-0.2,0-0.3,0-0.4,0.2l0,0c-0.4,0.1-0.9-0.2-1.2,0.2c-0.2,0.3-0.6-0.2-0.8,0.1c-0.1,0.1-0.2,0.2-0.2,0.2c-0.1,0-0.1,0-0.2,0
	c-0.1,0.1-0.3,0.1-0.4,0.2c0,0.2,0.1,0.4,0.1,0.7c-0.1,0.3,0.1,0.3,0.3,0.4c0.1,0.1,0.1,0.1,0.2,0.2c0,0.1,0,0.2,0,0.4
	c-0.2-0.1-0.3-0.2-0.5-0.3c0-0.1,0-0.1-0.1-0.2c-0.5-0.4-1.1-0.6-1.5-1.1c-0.1,0-0.2,0-0.3-0.1c-0.5-0.5-1.1-0.9-1.7-1.4
	c-0.4-0.3-0.9-0.2-1.1-0.7c-0.1-0.2-0.2-0.2-0.4-0.2l0,0c0-0.1,0-0.2,0-0.3c-0.1,0-0.1,0-0.2,0c-0.2-0.1-0.4-0.1-0.6-0.2
	c0-0.1-0.1-0.2-0.2-0.2c-0.1-0.1-0.1-0.1-0.2-0.2c0,0.1,0,0.1,0,0.2c-0.6-0.2-1-0.1-1.4,0.5c0,0,0,0.1-0.1,0.1
	c-0.2,0.2-0.5,0.4-0.4,0.8l0,0l0,0c0.2,0.4,0.4,0.9,0.7,1.3c0,0.1,0.1,0.1,0.1,0.2s0.1,0.1,0.2,0.2c0.1,0,0.3,0,0.1,0.2
	c0,0.1,0,0.1,0,0.2s0.1,0.1,0.1,0.2h0.1c-0.1,0.3-0.2,0.6-0.4,0.9c0,0.5-0.7,1,0,1.5c0.1,0,0.3,0.1,0.4,0.1c0.2,0,0.3,0.1,0.5,0.1
	c0.1,0,0.3,0,0.4,0c0.2,0,0.3-0.1,0.5-0.1c0.1,0,0.1,0,0.2-0.1c0.1,0,0.1,0,0.2,0h0.1c0.2,0.3,0.4,0.3,0.7,0.1
	c0,0.1-0.1,0.2-0.1,0.3h-0.1c-0.3-0.2-0.4,0-0.6,0.2c0,0.1,0,0.2,0,0.4c0.2,0.3,0.4,0.3,0.6,0l0,0l0,0c0.1-0.1,0.1-0.1,0.2-0.2
	c0.3,0.4-0.3,0.7,0,1.1c0,0-0.1,0.2-0.2,0.1c-0.6-0.2-0.4,0.3-0.5,0.6c-0.2,0.4-0.4,0.8-1,0.7c-0.1,0-0.1,0.2-0.2,0.3l0,0l0,0
	c-0.1,0.5-0.7,0.7-0.8,1.2c-0.1,0-0.2,0-0.3,0.1c-0.1,0,0.1,0.2-0.1,0.2c0,0,0,0-0.1,0c0-0.7-0.6-0.8-1.1-1c0-0.1,0-0.2-0.1-0.3
	c-0.1-0.4-0.3-0.6-0.7-0.6c-0.6-0.1-1.1-0.3-1.6-0.5c-0.3-0.1-0.5-0.1-0.8-0.2c-1,0-2,0-2.9-0.4c-0.5-0.2-1.1-0.5-1.7,0
	c-0.2,0.3-0.6,0.3-1,0.3c-0.2,0-0.3,0-0.5,0.2c0,0.3,0.1,0.5,0,0.8c-0.3,0.7-0.1,1.1,0.6,1.4c0.2,0.1,0.4,0.2,0.7,0.2
	c0.1,0.1,0.2,0.2,0.2,0.3c0.3,0.6,0.3,0.6,1.1,0.3c0.1-0.1,0.2-0.1,0.3-0.2c0.2,0,0.5,0,0.6-0.1c0.8-0.6,1.6-0.3,2.4,0.1
	c0.1,0.1,0.1,0.1,0.2,0.2c0.2,0,0.4,0,0.6,0c0,0,0,0,0,0.1c0.5,0.4,1,0.4,1.5,0.1c0.1-0.1,0.3-0.1,0.4-0.1h0.1
	c0.2,0.2,0.3,0.3,0.5,0.5c0,0.1-0.1,0.2-0.2,0.3c-0.6,0.5-0.6,0.6,0,1.1l0,0c-0.1,0-0.1,0-0.1,0.1c-0.1,0-0.2,0.1-0.3,0.1
	c-0.2,0.1-0.3,0.2-0.4,0.3c-0.3,0.3,0,0.7-0.3,1c-0.3,0.2-0.7,0.2-0.9,0.5c-0.1,0.2-0.3,0.4-0.4,0.6c-0.3,0.4-0.4,0.9-1,0.9
	c-0.3,0.1-0.7,0.1-1,0c-0.1,0-0.1,0-0.2,0h-0.1l0,0c-0.1-0.3-0.3-0.5-0.4-0.8c-0.8-0.3-0.9-0.3-1.2,0.4h0.1c0,0.1,0,0.2,0,0.3
	c-0.2-0.1-0.5-0.2-0.7-0.2c-0.1,0.4,0.1,0.7,0.1,1c-0.1,0.2-0.4,0.2-0.6,0.2c-0.2,0.1-0.2,0.2-0.2,0.4c0,0.2,0.1,0.3-0.2,0.3
	c-0.3,0-0.3,0.1-0.1,0.5c0,0.1,0,0.3,0,0.4c0.5,0.5,1,0.8,1.8,0.5v-0.1l0,0l0,0c0.1,0.4-0.4,0.5-0.4,0.8c-0.1,0.4,0.6,0.3,0.5,0.7
	v0.1c-0.2,0.2-0.2,0.4-0.2,0.6c0.1,0,0.1,0,0.2,0l0,0l0,0l0,0c0.1,0.1,0.3,0.3,0.4,0.4c0.2,0.3,0.5,0.2,0.8,0.2
	c0.3,0.3,0.6,0.3,0.9,0.1l0,0c0.2-0.1,0.2-0.4,0.4-0.6c0.1,0,0.1,0,0.2,0c0.2,0.2,0.5,0.2,0.6,0.4c0.3,0.1,0.7-0.2,1,0.1
	c0.2,0.2,0.3,0.1,0.4,0c0.3-0.1,0.5-0.3,0.8-0.4l0,0c0.3-0.4,0.4-1.1,1.2-1.1c0.1,0,0.3-0.2,0.3-0.4c0-0.5,0.4-0.8,0.5-1.3l0,0
	c0-0.1,0-0.1,0-0.2c0.2,0,0.4-0.1,0.4-0.4l0,0c0-0.2,0-0.5,0.2-0.6c0-0.2,0.1-0.3,0.2-0.4l0,0c0.4,0,0.6-0.2,0.6-0.6
	c0.1-0.1,0.2-0.2,0.2-0.4c0-0.1,0.1-0.2,0.2-0.2c0.1,0,0.1,0,0.2,0c0.5-0.4,0.3-0.8-0.1-1.1c0-0.1,0.1-0.1,0.1-0.2
	c0.2-0.1,0.5-0.1,0.7-0.3c0.3-0.4,0.6-0.4,1-0.3l0,0h0.1c0,0,0,0,0.1,0l-0.1,0.1c0.2,0.4,0.5,0.6,0.9,0.8c0.6,0.2,1.2,0.4,1.6,0.9
	c0.1,0,0.2,0,0.3,0v-0.1l0,0c0.2,0,0.4,0.1,0.6-0.1c0.1,0,0.1,0,0.2,0c0.1,0.1,0.2,0.3,0.4,0.4c0.1-0.2,0.4-0.2,0.5-0.3
	c0.1,0,0.1,0,0.1-0.1c0.3-0.1,0.2-0.4,0.3-0.6c0.1,0,0.1,0,0.2,0c0.1,0,0.3,0,0.4,0.1c-0.1-0.2-0.2-0.2-0.4-0.2l0,0
	c-0.3,0-0.6-0.1-0.8-0.3c0-0.1,0-0.1,0-0.2c-0.1,0-0.1,0-0.2,0c0,0-0.1,0-0.1,0.1c0,0,0,0,0-0.1h0.1h0.1c0-0.1,0-0.1,0-0.2
	c-0.4-0.7-1-1.1-1.8-1.1c-0.1-0.2,0.3-0.4-0.1-0.6c-0.6-0.3-1.2-0.6-1.9-0.9l0,0c-0.1,0.1-0.1,0.2-0.1,0.3c-0.1-0.1-0.2-0.1-0.2-0.2
	c-0.5-0.4-0.6-1.3-1.4-1.4l0,0v-0.1c0.1,0,0.1,0,0.2,0c0.2,0,0.3,0,0.4-0.2l0,0c0.2,0,0.5-0.3,0.7-0.1c0.3,0.4,0.5,0,0.7-0.1
	c0.1-0.7-0.5-0.8-1-0.8c0-0.1,0-0.1,0-0.2c0.1-0.1,0.3-0.3,0.4-0.4c0.1,0,0.3,0,0.4,0c0.1,0.2,0.2,0.2,0.4,0.2c0-0.1,0-0.1,0-0.2
	c0.1-0.1,0.1-0.1,0.2-0.2c0.1-0.2,0.3-0.4,0.4-0.6c0.2-0.1,0.2-0.2,0.2-0.4c0.1-0.1,0.1-0.1,0-0.2l0,0c0-0.1-0.1-0.2-0.2-0.2h-0.1
	c-0.1,0-0.2,0.1-0.2,0.2c0,0.2,0,0.4,0,0.6c-0.1,0.1-0.3,0.1-0.4,0.2c0-0.1,0-0.1,0-0.2c-0.1-0.1-0.1-0.1-0.2-0.2
	c-0.5,0.1-0.4,0.5-0.4,0.8c-0.2,0-0.4,0.1-0.6,0.1c-0.1,0-0.1,0-0.2,0c0-0.3,0-0.5,0-0.8l0,0c0.3-0.1,0.4-0.4,0.6-0.6l0,0
	c0,0.1,0.1,0.2,0.2,0.2h0.1c0,0,0.1,0,0.1-0.1c0.1,0,0.1-0.1,0.2-0.1l0,0c0-0.1,0.1-0.1,0.2-0.2c0-0.1,0-0.1,0-0.2
	c0.1-0.1,0.1-0.1,0.2-0.2s0.2-0.1,0.2-0.2c0.1,0,0.2,0,0.3,0s0.2-0.1,0.3-0.2l0,0c0-0.1-0.4-0.2-0.1-0.4c0.1-0.1,0.3-0.2,0.1-0.4
	c-0.1-0.2-0.3,0-0.4,0c0-0.1,0-0.3-0.1-0.3c0.4,0,0.8-0.1,1.2-0.4c0.2-0.1,0.3-0.2,0.5-0.3c0.2-0.1,0.4-0.2,0.5-0.3
	c0,0.1-0.1,0.2-0.1,0.3c-0.1,0-0.1,0-0.2,0.1c-0.1,0.4-0.1,0.7,0.5,0.7l0,0c0.1,0,0.1,0,0.2,0c0-0.1,0-0.2,0-0.2l0,0l0,0
	c0-0.1,0-0.1,0.1-0.2c0.2,0,0.4,0,0.6,0c0.1,0,0.1,0,0.2,0c0.1,0,0.3,0,0.4,0c0-0.1,0-0.1,0-0.2c0.1,0,0.1,0,0.2,0
	c0-0.3-0.1-0.4-0.4-0.4c0,0,0,0-0.1-0.1l0,0v0.1c0-0.1,0-0.1,0-0.2s0-0.1,0-0.2c0.3,0,0.5,0,0.8,0c-0.2-0.2-0.1-0.6-0.4-0.8
	c-0.1,0-0.3,0-0.4,0c-0.3,0.1-0.2,0.5-0.4,0.6c-0.1-0.1-0.1-0.1-0.2-0.2c0-0.1,0-0.1,0-0.2c0.3-0.3,0.2-0.7,0.2-1
	c0-0.1,0-0.1,0.1-0.2c0.2,0.3,0.5,0.2,0.7,0c0.2,0.2,0.8,0.3,1.2,0.4c0.1,0,0.1,0.1,0.2,0.1s0.1,0,0.2,0
	C114.9,37.1,115.4,37.1,115.4,36.6z M103.6,35.4L103.6,35.4L103.6,35.4L103.6,35.4z M105.2,37.7C105.2,37.6,105.2,37.6,105.2,37.7
	L105.2,37.7C105.3,37.6,105.2,37.6,105.2,37.7z M97.3,55.3L97.3,55.3L97.3,55.3L97.3,55.3L97.3,55.3z M103.9,52.1L103.9,52.1
	L103.9,52.1L103.9,52.1z M104.2,51.9L104.2,51.9L104.2,51.9L104.2,51.9L104.2,51.9L104.2,51.9L104.2,51.9z M105.6,44.7L105.6,44.7
	L105.6,44.7L105.6,44.7z M111.4,50.1L111.4,50.1L111.4,50.1L111.4,50.1L111.4,50.1z M113.3,36.6L113.3,36.6L113.3,36.6L113.3,36.6z
	 M123.4,59.9l-0.1,0.1c0,0.1,0.1,0.1,0.2,0.2c0-0.1,0.1-0.1,0.1-0.1C123.5,60,123.5,59.9,123.4,59.9z M124.1,60.5c0,0,0-0.1-0.1-0.2
	c-0.1,0-0.1,0-0.2,0.1c0,0.1-0.2,0.2,0.1,0.2C124,60.6,124.1,60.5,124.1,60.5z M112.2,51c0,0.1,0,0.3,0,0.4c0.2,0.1,0.4-0.1,0.5-0.2
	C112.7,50.9,112.5,50.7,112.2,51z M112.1,52L112.1,52C112.2,52,112.1,51.9,112.1,52C112.1,51.9,112.1,51.9,112.1,52L112.1,52z
	 M88.5,48.6c0,0.1,0,0.1,0,0.2c0.1,0,0.1,0,0.2,0.1C88.7,48.7,88.6,48.7,88.5,48.6z M110.1,41.6c-0.1,0.1-0.2,0.2-0.2,0.4
	c0.1,0.1,0.1,0.2,0.2,0.2c0.1,0,0.1,0,0.2,0c0-0.1,0-0.1,0-0.2c0.2-0.1,0.4-0.3,0.4-0.6c-0.1,0-0.2,0-0.4,0
	C110.2,41.5,110.2,41.5,110.1,41.6z M113.5,38.7C113.5,38.7,113.4,38.7,113.5,38.7C113.4,38.8,113.5,38.8,113.5,38.7z M103.1,35.1
	c0-0.1,0-0.3-0.2-0.2c-0.2,0.1-0.2,0.3-0.2,0.4s0,0.1,0,0.2C102.8,35.4,102.9,35.3,103.1,35.1z M160.2,33.8h0.2
	C160.3,33.7,160.2,33.7,160.2,33.8z M158.5,52c-0.1,0.1-0.3-0.1-0.4-0.1c-0.2,0.1-0.4,0.1-0.5,0.3c-0.3,0.3,0.1,0.4,0.2,0.6
	c0.2,0,0.4,0.1,0.5,0.3c0.1,0,0.2,0,0.3,0c-0.1-0.3-0.4-0.4-0.7-0.6c-0.1-0.1-0.1-0.2-0.1-0.3c0.5-0.1,1,0,1.5,0
	C159,52.1,158.8,51.8,158.5,52z M163.5,50.5c-0.2,0.2-0.4,0.3-0.5,0.6c-0.1,0-0.1,0-0.2,0c0.1,0.3,0.3,0.5,0.7,0.5
	c0.4,0,0.4-0.3,0.4-0.6v-0.1c0.1,0,0.1-0.1,0.1-0.2c-0.1,0-0.2,0-0.3,0.2l0,0C163.7,50.8,163.6,50.7,163.5,50.5z M158.9,51.6
	c0.1,0,0.2,0,0.3-0.2C159.1,51.5,159,51.5,158.9,51.6z M165.1,50.4c0.1,0,0.1-0.1,0.2-0.1C165.1,50.2,165.1,50.3,165.1,50.4z
	 M189.6,42.9c0.2,0.2,0.5,0.1,0.8,0.2c0-0.1-0.1-0.2-0.2-0.2C189.9,42.9,189.7,42.9,189.6,42.9z M188.6,42.3
	c0.1,0.2,0.2,0.5,0.5,0.4C189,42.6,188.9,42.3,188.6,42.3z M179.4,12.7L179.4,12.7c0.2-0.5-0.2-0.5-0.5-0.5c-0.2,0-0.5-0.1-0.6-0.2
	c-0.5-0.6-1.2-0.7-1.9-0.6c-0.5-0.1-1-0.4-1.6-0.5c-0.1-0.2-0.4-0.2-0.6-0.2l0,0c-0.4-0.1-0.4-0.1-0.4,0c0.1,0.5-0.3,0.2-0.4,0.3
	c-0.1-0.1-0.3-0.2-0.4,0c-0.1,0.1-0.1,0.2,0,0.4c0.1,0.2,0.3,0.4,0.5,0.5c0.1,0.1,0.1,0.3,0.2,0.4c0,0.1,0,0.1,0,0.2l0,0
	c0.1,0,0.1,0.1,0.1,0.1c0,0.2,0,0.3,0,0.5c0,0.1-0.1,0.1-0.1,0.2c0,0.1,0,0.2,0.1,0.3l0,0c0.1,0.1,0.1,0.1,0.2,0.2
	c0.2,0.1,0.4,0.2,0.6,0.1c-0.2,0.4-0.4,0.7-0.3,1.2c0.1,0.3,0.1,0.7,0.2,1c0.2,0.5,0,0.8-0.3,1.1c0,0,0.1,0.1,0.2,0.1l0,0
	c0,0.1,0.1,0.3,0.3,0.3l0,0c0,0.1,0.1,0.1,0.2,0.1c0,0,0.1,0,0.1,0.1c0.1,0.1,0.1,0.1,0.2,0l0,0c0,0,0.1,0,0.1-0.1s0.1-0.2,0.1-0.2
	s0,0,0.1,0c0,0.1,0,0.3-0.1,0.4c0,0.3,0.1,0.6-0.1,0.9c-0.2,0.6,0.3,1.1-0.1,1.7l0,0c-0.4-0.1-0.4,0-0.3,0.4c0,0.1,0,0.2-0.1,0.2
	c-0.1,0.1-0.3,0.1-0.4,0.2c0,0.2-0.1,0.4,0.1,0.7c0.2-0.2,0.3-0.4,0.5-0.5c0.1,0.6,0,1.3-0.3,1.8c-0.1,0-0.2,0-0.3,0.1
	c-0.1,0.7-0.1,0.8,0.3,1c0,0.1,0.1,0.1,0.1,0.1c0.2,0.1,0.3,0,0.4-0.1l0.1-0.1c0.1,0,0.3-0.1,0.3,0.2c-0.1,0.4-0.1,0.7-0.2,1.1
	c-0.3,0.1-0.5,0-0.7-0.3c-0.1,0-0.2,0-0.2-0.2s-0.1-0.2-0.3-0.2c0,0.2,0,0.4,0,0.6v0.1c0,0.1-0.1,0.3,0.1,0.3c0.1,0,0.3,0,0.3,0.1
	s0.3,0.2,0.1,0.3c-0.1,0-0.2,0-0.3,0.1c-0.2,0-0.3,0-0.5,0c-0.1,0.4,0.3,0.6,0.5,0.8c-0.3,0.2-0.5-0.2-0.8-0.1
	c-0.1,0.2-0.3,0.6-0.2,0.7c0.5,0.3,0.4,0.8,0.4,1.2l0,0c-0.1,0-0.1,0-0.1,0.1s0,0.2-0.1,0.3h-0.1c-0.1,0.2-0.1,0.4,0.1,0.6
	c0,0.1,0.1,0.1,0.1,0.2c0,0.2,0.1,0.4-0.1,0.4c-0.2,0-0.4-0.1-0.5,0.2c0.1,0.2,0.4,0.2,0.6,0.3c0.2,0.2,0.6,0.1,0.8,0.3
	c-0.1,0.4,0.2,0.5,0.5,0.6l0,0c0.1,0.1,0.1,0.1,0.2,0.1l0,0c0.3,0,0.6-0.1,0.3-0.5c-0.1-0.1,0-0.2,0.1-0.3v-0.1c0.3,0,0.6,0,0.9-0.1
	c0.2,0,0.3,0,0.5,0c0.2,0.1,0.2,0.4,0.5,0.1h0.1h0.1h0.1h0.1c0-0.1,0-0.1,0-0.2c0-0.3,0.1-0.7-0.4-0.6c0,0,0,0,0,0.1
	c-0.1,0-0.1-0.1-0.2-0.1h-0.1l0,0c0,0,0,0,0-0.1c0,0,0-0.1-0.1-0.1l0,0l0,0c0.2-0.1,0.2-0.3,0.2-0.4l0,0c0,0,0,0,0-0.1l0,0
	c0.1,0.1,0.1,0.1,0.2,0.1l0,0c0-0.1,0-0.2,0-0.3l0.1-0.1c0.1-0.1,0.2-0.2,0.3-0.4c0,0.1,0,0.2,0.2,0.2c0.1,0,0.1,0,0.1-0.1l0,0
	c0,0,0.1,0,0.2,0c0,0.3,0.2,0.3,0.5,0.3c0.1-0.1,0.1-0.1,0.2-0.2c0.2-0.4,0.5-0.9,0-1.3c-0.3-0.3-0.1-0.5,0.1-0.7v-0.1
	c0.2-0.2,0.1-0.5,0.1-0.8c-0.2,0-0.3,0.1-0.4,0.2c0-0.1-0.1-0.1-0.2-0.2c-0.1,0.2-0.2,0.3,0,0.5l0,0c0,0-0.1,0-0.1,0.1
	c-0.1,0.1,0,0.2,0,0.3l0,0c-0.1,0-0.1,0.1-0.2,0.1l0,0c0,0,0,0-0.1,0c-0.1-0.2-0.2-0.2-0.4-0.2c-0.1-0.1-0.2-0.1-0.3-0.2h-0.1
	c0-0.2,0-0.4,0.2-0.5c0.1-0.1,0.1-0.3,0.1-0.4c0-0.1-0.1-0.1-0.2-0.1c-0.1,0-0.1,0-0.2,0.1l-0.1,0.1l0,0c0.1-0.1,0.2-0.2,0.1-0.4
	s-0.2-0.3-0.4-0.4c0.1-0.1,0.1-0.3-0.2-0.2c0,0.1-0.1,0.2-0.1,0.3s0,0.1,0,0.2c-0.1-0.1-0.1-0.1-0.2-0.2c0-0.1,0-0.1,0-0.2
	c-0.2-0.5-0.1-0.9,0.1-1.3c0,0.1,0,0.1,0,0.2l0,0c0.1,0.4,0.1,0.4,0.5,0.2l0.1-0.1l0,0c0-0.1,0.1-0.1,0.1-0.2c0-0.1,0-0.2,0-0.3
	s0-0.2,0-0.3s0-0.2,0-0.3s0-0.2,0.1-0.3c0.1-0.1,0.1-0.2,0-0.3v-0.1h0.1l0,0l0.1,0.1c0.1,0,0.1,0,0.2,0c0,0.1,0,0.3,0.2,0.4
	c0.3,0.1,0.6,0,0.9,0c0-0.1-0.1-0.2,0-0.3c0.3-0.5,0-0.8-0.3-1.1c-0.1-0.1,0-0.2,0-0.3c0.2-0.2,0.1-0.4-0.2-0.5c0-0.1,0-0.2,0-0.3
	l0,0c0.1-0.1,0.2-0.2,0.2-0.3c0.1-0.2,0.2-0.3,0.1-0.5c-0.2-0.4-0.1-0.7,0.1-1.1c0.1-0.1,0-0.3,0.1-0.4l0,0l0,0
	c0-0.3,0.5-0.6,0.2-0.9c0-0.1,0-0.2,0-0.4s-0.1-0.2-0.3-0.1h-0.1l-0.1-0.1l0,0l0,0l0,0c0-0.1,0.1-0.1,0.2-0.2l0,0l0,0l0,0l0,0
	c0.2,0,0.4-0.1,0.4-0.3c-0.1-0.5-0.3-1-0.3-1.6c0-0.3,0-0.6,0.2-0.9C179.7,13.4,179.7,13,179.4,12.7z M178.7,26.9L178.7,26.9
	L178.7,26.9L178.7,26.9L178.7,26.9z M178,28.9L178,28.9L178,28.9L178,28.9z M177.1,28c0.3,0.1,0.6,0,0.8-0.3l0,0c0.1,0,0.2,0,0.3,0
	c0,0,0,0.1-0.1,0.1c0,0.1-0.1,0.2-0.1,0.4s-0.1,0.3-0.1,0.5c0-0.2-0.1-0.3-0.3-0.4C177.5,28.3,177.4,28.1,177.1,28
	C177,28,177,28,177.1,28L177.1,28z M176.8,30.2L176.8,30.2L176.8,30.2L176.8,30.2L176.8,30.2z M177.2,17.7c-0.1-0.8,0.2-1.4,0.8-1.8
	l0,0c0.2-0.1,0.3-0.3,0.4-0.5c0,0.2-0.1,0.4,0,0.6c-0.2,0-0.2,0.1-0.2,0.3c0,0,0,0,0,0.1c0,0,0,0-0.1,0.1l0,0l-0.1,0.1
	c0,0.1,0,0.2,0.1,0.3c0,0,0,0-0.1,0.1c0,0.1-0.1,0.1-0.1,0.2v0.1l0,0c-0.1,0-0.1,0-0.2,0l0,0c0-0.1-0.1-0.1-0.1,0
	c-0.2,0.1-0.4,0.2-0.3,0.5C177.3,17.6,177.3,17.7,177.2,17.7L177.2,17.7L177.2,17.7z M178,17.4L178,17.4L178,17.4L178,17.4L178,17.4
	L178,17.4z M177.6,21.5L177.6,21.5L177.6,21.5L177.6,21.5z M178.5,19.4c0,0.2,0,0.3,0,0.5c0,0.1-0.1,0.1-0.1,0.2c0,0.2,0,0.3,0,0.5
	l0,0c0,0.1,0.1,0.2,0.1,0.3l0,0c-0.1,0.1-0.1,0.2-0.2,0.3l0,0l0,0l0,0c-0.3,0.4-0.3,0.4-0.6,0l0,0c-0.2-0.3-0.4,0-0.5,0v-0.1
	c0-0.1,0-0.1,0-0.1l0,0c0.1,0,0.2,0,0.2-0.1c0.2-0.3,0.7-0.5,0.3-1c-0.1,0-0.2,0-0.2,0c0-0.1,0.1-0.2,0.1-0.3l0,0l0,0c0,0,0,0,0,0.1
	l0.1,0.1c0.5-0.1,0.4-0.5,0.5-0.8v-0.1c0.2-0.2,0.3-0.2,0.4,0.2C178.5,19.1,178.5,19.3,178.5,19.4z M178.5,20L178.5,20L178.5,20
	L178.5,20z M180.4,13.7c0,0.1,0.1,0.1,0.2,0.1c0.1,0,0.2,0,0.2-0.1s-0.1-0.1-0.2-0.1C180.5,13.6,180.4,13.6,180.4,13.7z M164.4,36.6
	c0.1,0.2,0.3,0.1,0.5,0.2C164.7,36.6,164.5,36.6,164.4,36.6z M163.9,36.3c0,0.1,0,0.2,0.2,0.3C164.1,36.5,164,36.4,163.9,36.3z
	 M186.9,39.2v-0.1c0,0-0.1-0.1-0.1-0.2V39C186.8,39.1,186.8,39.2,186.9,39.2z M185.7,60.5c0.1,0,0.1,0,0.2,0c-0.1,0-0.1-0.1-0.2-0.1
	C185.7,60.4,185.7,60.4,185.7,60.5z M167,57.1c-0.1,0.1-0.1,0.2-0.2,0.3c0.1,0,0.3,0.1,0.4,0C167.3,57.1,167.1,57.1,167,57.1z
	 M165.9,26.5c0.1-0.1,0.1-0.2,0-0.3V26.5z M175.1,19.2c0.1-0.2-0.1-0.2-0.2-0.2v0.1c0,0.1-0.1,0.1-0.1,0.1c0,0.1-0.1,0.1-0.1,0.2
	C174.8,19.6,175,19.4,175.1,19.2z M174.3,19.4c0-0.2,0-0.4-0.3-0.2c-0.1,0.1-0.2,0.2,0,0.3C174.1,19.5,174.2,19.5,174.3,19.4z
	 M189.7,32.3c-0.1,0-0.1,0.1-0.2,0.1c0.1,0,0.1,0,0.2,0C189.7,32.4,189.7,32.4,189.7,32.3z M200.2,30.5c0.1,0,0.1,0,0.2,0
	C200.3,30.4,200.2,30.4,200.2,30.5z M179.4,25c0-0.1-0.1-0.2-0.1-0.3c0-0.4-0.2-0.3-0.5-0.2c0,0,0,0.1-0.1,0.1c0,0.2,0,0.4,0.2,0.6
	C179.2,25.2,179.3,25.2,179.4,25z M178.7,24.2v-0.1c0.2-0.1,0.3-0.2,0.1-0.4c-0.2-0.1-0.3,0-0.4,0.2V24h-0.1c-0.2,0.2,0,0.6-0.3,0.8
	c-0.1,0.1-0.2,0.2-0.2,0.3c0,0.2,0,0.5,0.2,0.6c0.2,0.1,0.1-0.2,0.2-0.3c-0.1-0.3,0.2-0.6,0.3-0.8c0.1,0,0.2,0,0.2-0.1l0,0
	C178.8,24.4,178.8,24.3,178.7,24.2L178.7,24.2z M202.5,32.5c0,0-0.1,0-0.1-0.1v-0.1h-0.1l0,0c0,0,0,0,0.1,0.1c0-0.1,0.1-0.1,0.1-0.1
	h0.1c0,0,0,0,0.1,0v-0.1c0-0.1,0-0.2-0.1-0.3c-0.3-0.2-0.7-0.1-1-0.3c-0.1-0.2-0.3-0.2-0.4-0.2c-0.1,0.1-0.2,0.2-0.3,0.3
	c-0.7,0.2-0.2-0.5-0.4-0.6c-0.2-0.1-0.5,0.1-0.8-0.2c0.2,0,0.5,0,0.5-0.3c-0.3,0.3-0.7,0-1.1,0.2c-0.3,0.1-0.4,0.1-0.5-0.2
	c-0.2-0.4-0.4-0.4-0.8-0.1c-0.2,0.1-0.2,0.3-0.5,0.2c-0.4-0.1-0.8,0.1-1,0.5c0,0,0,0,0.1,0.1l0,0v-0.1c-0.1,0-0.2,0-0.3,0
	c-0.8-0.1-1.2-0.1-1.9,0.4c-0.1,0.1-0.2,0-0.3,0l0,0v-0.1c0.1-0.1,0.1-0.2,0-0.3c-0.2,0-0.5,0-0.7,0.1c-0.5,0.1-1,0.2-1.6,0.1l0,0
	c-0.1,0-0.1-0.1-0.1-0.2h-0.1c-0.2,0.1-0.6,0.1-0.7,0.4c0,0.1-0.1,0.1-0.1,0.2c0,0,0.1,0,0.1,0.1l0,0c0,0-0.1,0-0.1-0.1
	c-0.1,0.1-0.1,0.1,0,0.2c0,0.1,0,0.2,0,0.3l0,0l0,0c-0.1,0.2-0.4,0.1-0.5,0.3c0.1,0.1,0.3,0.3,0.5,0.2c0,0.3-0.2,0.4-0.4,0.5
	c-0.1,0-0.2,0.1-0.4,0.1c-0.1,0-0.1,0-0.2,0h-0.1c0,0,0-0.1-0.1-0.1v-0.1c-0.3-0.6-0.8-0.6-1.3-0.6c-0.2,0-0.4,0.2-0.6,0.1
	c0-0.4-0.1-0.7-0.3-1c0,0,0,0,0-0.1c0.1,0,0.2-0.1,0.2-0.2c0-0.1,0-0.1-0.1-0.1c0.3-0.4,0.7-0.8,0.9-1.4l0,0l0,0h0.1
	c0.1,0,0.2-0.1,0.2-0.1c0-0.1,0.1-0.1,0.1-0.2c0.1-0.2,0.2-0.4,0.1-0.7l0,0v-0.1h0.1c0.2,0,0.3,0.1,0.3,0.3c0,0.1,0.1,0.1,0.1,0.2
	c0-0.1,0-0.1,0-0.2c0.1-0.1,0.1-0.1,0.2-0.2c0-0.2,0-0.4,0-0.6h0.1c0.1-0.1,0.2-0.2,0.2-0.3l0,0l0,0c0.3,0,0.5-0.2,0.6-0.4h-0.1
	c0,0,0,0,0.1,0l0.1-0.1c0.3,0,0.6,0,0.6-0.5c0.1-0.1,0.2-0.1,0.3-0.2c0.1-0.1,0.1-0.1,0.2-0.2h0.1c0.1,0,0.1-0.1,0.2-0.2v-0.1
	c0-0.1,0-0.1,0-0.2l0,0c0.1,0,0.1-0.1,0.2-0.1c0.3-0.4,0.8-0.5,1.2-0.8c0.4-0.1,0.3-0.5,0.4-0.8c-0.3-0.4-0.4-0.9-0.4-1.4
	c-0.4-0.1-0.5-0.4-0.6-0.8c-0.1-0.5-0.6-0.8-0.6-1.3c0,0-0.1-0.1-0.2-0.1c-1.2-0.7-2.3-1.3-3.6-1.7c-0.2,0-0.3-0.1-0.5-0.1
	c-0.6,0-0.9,0.3-0.8,0.9c0.1,0.4,0.4,0.3,0.6,0.5c0,0.3,0.1,0.5,0,0.8h-0.1h-0.1c-0.3,0.5-0.5,1-0.3,1.5c0,0.1,0,0.2,0,0.3
	c0.1,0.1,0.1,0.1,0.2,0.2c0.1,0.1,0.1,0.3,0,0.5c-0.2,0.1-0.3,0.1-0.5,0c0,0.2,0,0.4,0.3,0.5l0.1,0.1c-0.1,0.1-0.1,0.2,0,0.2
	c0.1,0,0.2,0.1,0.2,0.2l-0.1,0.1c0,0.1,0,0.1-0.1,0.2c0-0.1,0-0.2-0.1-0.2c-0.3,0.1-0.1,0.4-0.2,0.5c0.1,0.1,0.1,0.1,0.2,0.2v0.1
	c0,0.1-0.1,0.2-0.2,0.2s-0.1,0.1-0.2,0.1c0,0,0,0-0.1,0.1c-0.2,0.1-0.4,0.2-0.6,0.1c-0.1,0-0.1,0.1-0.1,0.2c0,0.1,0.1,0.2,0.1,0.2
	c0.5,0,0.3,0.4,0.3,0.7c0,0.1-0.1,0.3,0,0.3c0.1,0,0.1,0,0.2,0.1c0,0.1,0.1,0.2-0.1,0.4c-0.1,0.2-0.3,0.3-0.5,0.5l-0.1,0.1
	c-0.3,0.1-0.5,0.3-0.3,0.8l0,0c0,0,0,0.2-0.1,0.2c-0.3,0.1-0.2,0.3-0.2,0.6c0,0.1,0,0.1,0,0.2c-0.1,0.1-0.1,0.1-0.2,0.2
	c-0.1,0.1-0.3,0.1-0.3,0.3l0,0c0,0,0,0-0.1,0c0,0.2-0.1,0.2-0.2,0.3c-0.1,0-0.2,0-0.3,0c-1.3,0.4-2.6,0.3-3.9,0.6
	c-0.1,0.1-0.3,0.1-0.5,0.1c0,0,0,0-0.1-0.1c-0.3-0.3-0.2-0.8-0.3-1.1c-0.1-0.1-0.1-0.1-0.2,0l0,0h-0.1c-0.3,0.1-0.5,0.3-0.5,0.6
	c0,0,0.1,0,0.1,0.1l0,0c0.1,0.2,0.1,0.3,0.2,0.5c0,0-0.1,0-0.1,0.1v0.1l0,0c-0.9,0-1.7,0.4-2.5,0.7c-0.2,0.1-0.5,0.1-0.8,0.2
	c-1,0.5-2.2,0.5-3.2,1.1H172c0,0,0-0.1-0.1-0.1c-0.1-0.1-0.2-0.2-0.3-0.4c0-0.1,0-0.1,0-0.2v-0.1c0.4-0.3,0.4-0.7,0.6-1.1
	c0.3-0.6,0.3-0.6-0.3-0.7c0,0,0,0,0-0.1v-0.1l0.1-0.1c0-0.2,0.1-0.4,0.1-0.6c0.2-0.3,0.1-0.6-0.1-0.9l0,0c0.4-0.4,0.3-0.8,0.2-1.3
	c0,0,0-0.1,0.1-0.1c0-0.1,0.1-0.2,0.1-0.3v-0.1h0.1c0.2-0.6,0.1-0.8-0.1-1.1c0-0.1,0-0.2,0-0.2c0-0.5,0.2-1,0.3-1.4
	c0.1-0.3,0.1-0.7-0.3-0.8c-0.7-0.3-1.3-0.9-2.1-1.1c-0.1,0-0.2-0.1-0.3-0.1c0,0,0,0-0.1,0c-0.2-0.1-0.3-0.2-0.5-0.2h-0.1
	c-0.5-0.2-0.9-0.3-1.4-0.2c-0.1,0-0.3,0-0.4,0c-0.2,0-0.3,0.1-0.4,0.2c-0.1-0.1-0.1-0.1-0.2-0.1c-0.4-0.3-0.9-0.5-1.4-0.6
	c-0.1,0.3,0.1,0.5,0,0.8h-0.1c-0.1-0.1-0.2-0.1-0.3,0l0,0c0,0.1-0.1,0.1-0.1,0.1c-0.1,0.1-0.1,0.2,0,0.3l0,0c0,0.1,0,0.2,0.1,0.3
	c0.3,0.4,0.2,0.9,0.2,1.3h0.1c0.1,0.1,0.2,0.2,0.1,0.3c-0.2,0.3,0,0.5,0,0.7c0,0.1,0,0.2,0.1,0.3l0,0c0.2,0,0.3,0.1,0.4,0.2
	c0-0.3-0.2-0.3-0.4-0.3l0,0v-0.1l0,0c0.2,0,0.4-0.1,0.5-0.3c0.1,0.1,0.1,0.3,0.1,0.4c0,0.1-0.1,0.2,0,0.3c0.3,0.2,0.3,0.4,0.1,0.7
	h-0.1v0.1c0.1,0.1,0.1,0.2,0.2,0.3l0,0c0,0.2,0,0.3,0,0.5v0.1c0.1,0.2,0.1,0.6,0,0.7c-0.3,0.3-0.2,0.6-0.1,1c0,0.4,0,0.7,0.3,1
	c0.2,0.2-0.1,0.6,0,0.9V32c0.1,0.2,0.2,0.3,0.1,0.5c0.1,0.2,0.5,0.3,0.1,0.6c-0.1,0.1,0,0.3,0.1,0.4c0.3,0.5,0.3,0.5-0.2,0.6
	c-0.2,0-0.2,0.1-0.2,0.3c0.7,0.5,0.5,0.9-0.1,1.3c-0.1,0.1-0.2,0.1-0.4,0.1c-0.4,0.1-0.8,0.1-1.2,0.2c0-0.1,0-0.2-0.1-0.3
	c0.1,0,0.2,0,0.2-0.1c-0.1,0-0.2,0-0.2,0.1l0,0c-0.2,0.1-0.2,0.5-0.6,0.4c0,0.2,0.1,0.2,0.2,0.3c-0.1,0.2-0.2,0.3,0.1,0.5
	c1.2,0.6,2.4,0.6,3.5,0.1c1.2-0.6,1.4-0.6,1.9,0.6c0,0.3,0.2,0.5-0.1,0.8c-0.2,0-0.3,0-0.5,0.1l0,0c0,0.1-0.1,0.1-0.1,0.2
	c-0.2,0-0.4,0-0.6,0c-0.6,0.1-0.6,0.1-0.3,0.6l0,0l0,0c-0.4,0-0.7,0-1.1,0.1l-0.1-0.1c-0.1,0-0.1,0-0.2,0l0,0c0-0.1,0-0.3-0.1-0.5
	c-0.1,0.3-0.3,0.5-0.5,0.6c-0.1,0-0.2,0-0.3,0.1c-0.1,0-0.1,0.1-0.2,0.1l0,0c-0.1,0-0.2,0-0.3,0c0,0.1,0,0.1,0,0.2
	c0,0-0.1,0.1-0.2,0.1c0,0-0.1,0-0.1,0.1s0,0.1,0,0.2c0,0.1-0.1,0.1-0.1,0.2c-0.4,0.9-1,1.1-1.8,0.5c0,0-0.1,0-0.2,0
	c-0.4,0.2-0.9,0.4-1.4,0.4c-0.7,0.8-1.8,0.7-2.7,0.9c-0.7,0.2-1.5,0.3-2.3,0.4c-0.4,0.1-0.7,0.1-1.1,0c-0.8-0.1-1.6-0.2-2.4-0.4
	c0,0.4-0.2,0.7,0,1.1l0,0c1,0.9,2,1.5,3.3,1.8c0.1,0,0.1,0,0.2,0c0.3,0,0.5-0.1,0.7-0.3c0,0,0,0,0.1-0.1l0.1-0.1
	c0.1-0.1,0.1-0.2,0.2-0.3c0.3,0.2,0.7,0.5,1.1,0.2l0,0c0.1,0.1,0.2,0.2,0.4,0.1l0,0c0.3,0.2,0.6,0,0.8-0.2c0.1-0.1,0.1-0.1,0.1-0.2
	l0.1-0.1c0.1,0.1,0.2,0.2,0.3,0.3c0.1,0,0.1,0,0.2,0c0.2,0,0.3-0.1,0.3-0.3c0-0.1,0-0.1,0-0.2l0,0c0.1,0.1,0.2,0.1,0.4,0.1l0,0l0,0
	l0,0l0,0c0.5,0.2,1,0,1.2-0.5l0.1-0.1c0,0,0,0,0.1-0.1l0.1-0.1l0.1-0.1c0.1-0.1,0.1-0.2,0.2-0.3l0.1-0.1c0.4,0,0.6-0.1,0.6-0.6l0,0
	C164,42,164,42,164,41.8v-0.1l0,0c0,0,0,0,0,0.1v-0.1c0-0.1,0.1-0.1,0.1-0.2l0,0c0.2,0.2,0.1,0.9,0.7,0.5c0.1,0.1,0.1,0.1,0.1,0.2
	l0,0l0,0l0,0c-0.1,0.1-0.2,0.2-0.2,0.3l0,0c0,0.1-0.1,0.1-0.1,0.2h0.1c0-0.1,0-0.1,0-0.2c0.2,0,0.5,0.3,0.7,0.1h0.1h0.1
	c0.1,0,0.1-0.1,0.2-0.1l0.1-0.1c0-0.1,0.1,0,0.2-0.1c0.5-0.2,0.7-0.6,1.1-0.9v-0.1c0.1,0,0.2,0,0.3,0c0.2,0.2,0.3,0.2,0.4-0.1
	c0-0.1,0-0.3,0.2-0.4l0,0l0,0h0.1c0.2,0,0.2-0.1,0.2-0.3c0.2-0.1,0.3-0.2,0.4-0.3c0.2,0.1,0.3,0.1,0.5-0.1c0-0.1,0.1-0.1,0.1-0.2
	c0.1,0,0.2-0.1,0.3-0.1c0.4-0.2,0.8-0.2,1.1-0.5c0.1,0.3,0.3,0.3,0.6,0.2c0-0.4-0.1-0.7-0.6-0.8c0-0.4-0.2-0.3-0.5-0.2
	c-0.1,0-0.1,0-0.2,0c-0.2,0-0.4,0-0.7,0v-0.1l0,0c0.1,0,0.1,0,0.2,0c0.1,0,0.1-0.1,0.2-0.1l0.1-0.1l0,0c0.4,0.1,0.7,0,0.6-0.5
	c-0.2-0.2-0.2-0.4-0.3-0.6c0,0,0,0,0-0.1c0.1-1.2,1-1.5,1.9-1.9c1.6-0.6,3.2-1.1,4.8-1.5c0.2-0.1,0.3-0.2,0.5-0.2
	c1.5-0.2,3-0.3,4.5-0.3c0,0,0,0,0.1,0c0,0.1,0,0.1,0.1,0.1c0.1,0.1,0.2-0.1,0.3-0.2c0,0,0,0,0.1,0c0.2,0,0.5-0.3,0.7,0.1
	c0.1,0.2-0.1,0.4-0.2,0.5c0,0.1-0.1,0.1-0.1,0.2l0,0c-0.3,0-0.4,0.3-0.5,0.5h-0.1c0-0.1-0.1-0.1-0.1-0.1c-0.1-0.2-0.3-0.1-0.5-0.1
	c0,0.1,0,0.2,0,0.3l0,0c-0.1,0.1-0.2,0.2-0.3,0.3c-0.1,0.1,0.2,0.4-0.1,0.5c-0.3,0-0.2-0.3-0.4-0.4h-0.1h-0.1
	c-0.1-0.1-0.2-0.1-0.3-0.1h-0.1c-0.1-0.1-0.1-0.1-0.2,0c-0.2,0.1-0.4,0.2-0.6,0.1c-0.6,0-1,0.3-1.2,0.7c-0.2,0.5-0.5,0.4-0.8,0.3
	c-0.1,0.5-0.2,0.9-0.2,1.3c-0.1,0.1-0.1,0.2-0.2,0.3c-0.2,0.3-0.4,0.3-0.8,0.3c0,0.3,0.3,0.5,0.5,0.4c0.4-0.1,0.9,0.1,1.3,0
	c0.1,0,0.2,0.1,0.2,0.2c0.2,0.1,0.3,0.1,0.4-0.1c0-0.4,0.2-0.6,0.4-0.9c0.1-0.2,0.1-0.5-0.1-0.7c-0.3-0.2-0.5,0-0.6,0.2
	c-0.1-0.1-0.1-0.2-0.2-0.3h0.1c0.1,0,0.1,0.1,0.2,0.1c0.3,0,0.4-0.2,0.4-0.5c0,0,0,0,0-0.1c0,0,0,0,0.1,0c0,0.1,0,0.1,0,0.1
	c0.5,0.6,1.1,0.2,1.7,0.1c0-0.1,0-0.1,0-0.2l0,0c0.2-0.1,0.3-0.1,0.3,0.1c0,0.1-0.1,0.1-0.2,0.2c-0.3,0-0.3,0.2-0.3,0.5l0,0
	c0.1,0,0.1,0.1,0.2,0.2v0.1h0.1c0,0.1,0.1,0.1,0.2,0.2c0,0.1,0.1,0.1,0.2,0.2l0,0c0.1,0.3,0,0.5-0.2,0.7s-0.3,0.4-0.4,0.6
	c-0.1,0.1-0.1,0.1-0.2,0.2c-0.2,0.2-0.5,0.4-0.8,0.6c-0.1,0-0.1,0.1-0.2,0.1l-0.1,0.1c0,0,0,0,0,0.1c-0.1,0-0.1,0.1-0.2,0.2
	c-0.1,0.1-0.1,0.1-0.2,0.2c-0.1,0.1-0.1,0.2-0.1,0.4l0,0c-0.1,0.1-0.2,0.3-0.4,0.2c-0.5,0.1-0.4,0.7-0.7,0.9
	c-0.8,0.5-1.1,1.3-1.7,1.9c-0.2-0.1-0.4,0-0.5,0.2c0,0.1,0,0.1,0,0.2l0,0c-0.2,0.1-0.3,0.3-0.4,0.5c-0.1,0-0.1,0-0.2,0.1l0,0
	c-0.3,0.1-0.4,0.3-0.6,0.4c-0.1,0-0.3,0.1-0.4,0c-0.4-0.2-0.5,0.1-0.4,0.3c0.2,0.4-0.2,0.5-0.4,0.7c-0.1,0.3-0.2,0.6-0.7,0.7
	l-0.1,0.1c-0.1,0-0.2,0-0.3,0.2l0,0c-0.4-0.1-0.5-0.2-0.3-0.6v-0.1c0.1,0,0.1-0.1,0.1-0.2c0,0,0,0-0.1-0.1l0,0c0,0,0,0,0.1,0.1
	c0.2-0.1,0.3-0.2,0-0.4c-0.3-0.1-0.4-0.2-0.6-0.4c0-0.1,0-0.2,0-0.2c-0.3-0.7-0.8-1.2-1.4-1.6c-0.3-0.2-0.6-0.3-0.9,0
	c-0.3,0.2-0.4,0.6-0.3,0.9c0.2,0.5,0.2,1,0.2,1.4c0,0.6,0.1,1.3,0,2c-0.7-0.3-1.3-0.8-2-0.9c-0.7-0.1-1.3-0.3-2.3-0.2
	c0.9,0.7,1.6,1.4,2,2.2c0.1,0.5,0.5,0.8,0.8,1.2l0.1,0.1v0.1h0.1l0,0c0.1,0.3,0.3,0.6,0,0.9c-0.3,0.1-0.6,0.3-0.9,0.4
	c-0.5,0-0.6,0.4-0.7,0.8c-0.4,0.2-0.9,0.4-1.3,0.6c-0.3,0.2-0.5,0.5-0.9,0.6c-0.1,0-0.3,0-0.4,0.1v0.1l0,0c-0.6,0-0.9,0.3-0.8,1
	c0,0.1,0,0.3,0,0.4v0.1c-0.1-0.1-0.2-0.1-0.4,0l0,0c-0.1,0.1-0.2,0.1-0.3,0.2c-0.1,0-0.2,0.1-0.2,0.2l0,0h-0.1
	c-0.1-0.2,0.1-0.5-0.2-0.5c-0.3-0.1-0.5,0.1-0.6,0.4c0,0,0,0,0,0.1l0,0c-0.3,0-0.3-0.3-0.3-0.5c0.2-0.4,0-0.5-0.3-0.6
	c-0.2-0.1-0.5-0.1-0.7-0.2c0.1,0.2,0.3,0.6,0.5,0.7c0.3,0.1,0.3,0.2,0.2,0.4c-0.1,0.2,0.1,0.3,0.2,0.4c0.2,0.2,0.4,0.1,0.6,0.1
	c0,0.2,0.1,0.3,0.1,0.4c-0.1,0-0.3,0.1-0.3,0.3l0,0c-0.2,0.1-0.3,0.3-0.4,0.4l-0.1,0.1l-0.1,0.1c-0.2,0.2-0.5,0.4-0.8,0.6
	c-0.1,0-0.1,0.1-0.1,0.1v0.1c-0.1,0-0.2,0.1-0.2,0.3c-0.2,0-0.3,0-0.5,0.2v0.1c-0.3,0.3-0.7,0.5-0.9,0.9c0,0,0,0-0.1,0
	c-0.3,0.1-0.5,0.3-0.7,0.5c-0.1,0.1-0.1,0.2-0.2,0.3c-0.2,0.5-0.4,0.7-0.9,0.2c-0.2-0.1-0.3-0.2-0.5-0.3c-0.3,0-0.3,0.2-0.5,0.3
	c-0.1,0.3-0.3,0.4-0.6,0.5c-0.1,0.1-0.2,0.1-0.3,0.1c-0.6,0.1-1.2,0.4-1.8,0.3c-0.1,0-0.1,0-0.2,0c-0.5,0-1-0.1-1.4,0.1
	c-0.1,0.6,0.5,0.6,0.8,0.9c0.2,0.4,0.6,0.6,0.9,0.9c0.3,0.3,0.9,0.3,0.9,0.9c0,0.2,0.1,0.4,0.3,0.5c0.1,0,0.1,0,0.2-0.1
	c0.4-0.2,1,0.1,1.1,0.5c0.1,0.1,0.2,0.2,0.4,0.2c0.5,0,1,0.3,1.6,0.2c0.4-0.1,0.9,0.3,1.4,0.3c0.5,0.2,0.9,0.1,1.2-0.4
	c0.2-0.3,0.5-0.6,0.8-0.9c0,0,0,0,0.1-0.1c0,0.1,0.1,0.1,0.1,0.2c0,0-0.1,0.1-0.2,0.1c0,0.1,0,0.1,0,0.2c0.3-0.1,0.6-0.2,0.5-0.6
	c0-0.1,0-0.1,0-0.2c0.2-0.2,0-0.3-0.1-0.3v0.1l0,0c-0.2-0.3-0.1-0.7-0.2-1V63c0.1,0,0.1-0.1,0.1-0.1c0.1-0.1-0.1-0.4,0.3-0.4
	c0.3,0,0.3-0.1,0.2-0.4c-0.1-0.2-0.2-0.4,0-0.6h0.1c0.4,0,0.7,0.4,1.1,0c0.6,0,0.6,0,0.5-0.5l0,0v-0.1l0,0l0,0
	c0.2,0.1,0.4,0.1,0.6,0.2c0.1,0,0.1,0.1,0.2,0.1c0.1-0.1,0.1-0.2,0.2-0.2l0,0c0.1-0.1,0.2-0.2,0.2-0.4v-0.1l0,0
	c0.2-0.1,0-0.4,0.4-0.3c0.5,0.1,0.6,0.1,0.6-0.5c0.1-0.4,0.3-0.2,0.5-0.2c0.1-0.3-0.1-0.8,0.5-0.9c0.3,0.1,0.4-0.3,0.7-0.1
	c0.4,0.2,0.4-0.1,0.4-0.3c0.1-0.7,0.1-0.7,0.8-0.9c0.1,0,0.2-0.1,0.3-0.1c-0.3-0.3-0.7-0.3-1.1-0.2c0,0,0,0-0.1,0
	c0-0.1,0-0.1,0.1-0.2c0-0.1,0-0.2,0-0.3c0.1,0,0.3,0,0.3-0.1l0,0c0-0.1,0-0.2-0.1-0.2l0,0c0-0.2,0.1-0.3,0.1-0.5l0,0
	c0.1,0,0.2,0.1,0.2,0c0-0.3,0.1-0.5,0.4-0.3c0.2,0.2,0.4,0.2,0.5-0.2c0.2-0.1,0.4-0.3,0.6-0.1s0.4,0.1,0.6,0.1
	c0.1,0.1,0.2,0.3,0.1,0.4c-0.1,0.6,0.2,1.1,0.5,1.6c0,0.1,0.1,0.1,0.2,0.1c0,0.1,0.1,0.1,0.2,0.1l0,0l0,0c0,0.2-0.1,0.4-0.3,0.5H170
	h-0.1v-0.1c-0.2,0-0.3,0-0.5,0c-0.8-0.2-0.8-0.2-0.6,0.6v0.1c0.2,0.9,0.3,1,1.1,0.9c0.2,0.1-0.1,0.6,0.4,0.6
	c0.4,0.4,0.9,0.4,1.4,0.4v0.1c0,0.1,0.1,0.2,0.2,0.1c0.1,0,0.1-0.1,0.1-0.2c0.3,0.3,0.6,0.2,0.9,0.1c0.1,0,0.2,0,0.3,0
	c0-0.1,0.1-0.1,0.2-0.1l0,0h0.1h0.1l0,0c0.1,0,0.1,0.1,0.2,0.1c0.1,0,0.2,0,0.3-0.1c0-0.1,0.1-0.1,0.2-0.1c0.1-0.1,0.1-0.1,0.2-0.2
	c0-0.1,0-0.2,0-0.3c0.1-0.1,0.1-0.1,0.2-0.2c0.3-0.2,0.5-0.4,0.8-0.6c0.2,0.4,0.4,1,1,0.5c0.1-0.1,0.2-0.2,0.2-0.3
	c0.1-0.2,0.1-0.3,0.1-0.4c0.1-0.1,0.3-0.1,0.5,0c0.1,0,0.2,0.1,0.3,0l0.1,0.1c0.2,0.1,0.3,0.2,0.5,0c0.2-0.3,0.5-0.5,0.8-0.4
	c0.4,0.2,0.4-0.1,0.6-0.2c0.2,0,0.4,0.4,0.6,0c0-0.1,0-0.2,0-0.3c0.2-0.1,0.4-0.3,0.7-0.2c0.2,0.1,0.3-0.1,0.3-0.2
	c0.1,0,0.3,0,0.4-0.1c0.1-0.1,0.2-0.1,0.3-0.1c0.2,0.3,0.4,0.6,0.8,0.5c0.1,0.7,0.1,0.7,0.8,0.8c0.1,0,0.2,0.1,0.3,0.1
	c-0.3,0.2-0.6,0.2-0.9,0.1c-0.2-0.1-0.4-0.1-0.5,0.1c0,0.1,0,0.2,0,0.3v0.1c0,0.1,0,0.1,0,0.2c0.1,0,0.2,0,0.3,0l0,0h0.1h0.1l0,0
	c0,0.1,0.1,0.1,0.2,0.1c0.1,0.3,0.4,0.1,0.6,0.2c-0.1-0.1-0.2-0.1-0.3-0.2c0.3-0.2,0.5-0.2,0.5,0.2c0,0.1,0,0.1,0,0.2
	c0,0.1,0,0.1,0.1,0.2l0,0c0.1,0.1,0.1,0.1,0.2,0.1c0.1,0,0.2,0,0.3,0c0.1,0.1,0.1,0.1,0.2,0.2c0.1,0.2,0.3,0.2,0.5,0.2
	c0.1,0,0.1,0,0.2-0.1c0.2,0.1,0.4,0.1,0.6,0c0.1,0,0.1,0,0.2,0c0,0,0.1,0,0.1-0.1h0.1c0,0,0,0,0.1,0v-0.1c0.1,0,0.2-0.1,0.2-0.2
	c0-0.1-0.1-0.1-0.2-0.1h-0.1c0,0,0,0-0.1-0.1V60l0.1-0.1c0.2,0.2,0.4,0.2,0.6,0.2c0.3,0,0.3-0.2,0.1-0.4h0.1c0.1,0,0.2-0.1,0.3-0.1
	l0,0h0.1c0,0,0,0,0-0.1l0,0h0.1c0,0,0,0,0-0.1l0,0c0-0.1,0.1-0.1,0.1-0.2c-0.1-0.5,0.4-0.5,0.7-0.7c0.1,0,0.1-0.1,0.2-0.1
	c0.2-0.8,0.4-1.5,0.4-2.3c0.2-0.4,0.4-0.9,0.4-1.4c-0.1-0.5,0.2-0.7,0.6-0.9c0.1-0.2,0.3-0.4,0.4-0.6c0-0.6,0.3-1.1,0.5-1.6v-0.1
	c0.3-0.1,0.7-0.2,1-0.4V51c-0.1-0.1-0.2-0.2-0.4-0.2c-0.1-0.1-0.1-0.3-0.3-0.4l0,0c0.2-0.4,0.4-0.7,0.6-1.1c0.1-0.2,0.2-0.3,0.2-0.5
	c0-0.4-0.4-0.5-0.4-0.9c0-0.2,0.1-0.3,0.1-0.5c0.1,0,0.1,0,0.1-0.2h-0.1c0,0,0,0,0-0.1c0-0.2,0.1-0.4,0.1-0.6c0-0.2,0-0.5,0-0.7
	c-0.1-0.2-0.3-0.3-0.5-0.4l0,0c0,0,0,0,0-0.1c-0.3-0.2,0-0.6-0.3-0.8l0,0c-0.1-0.1-0.2-0.1-0.3-0.1c0,0-0.1-0.1-0.1,0
	c0-0.1-0.1-0.1-0.2-0.1l0,0c-0.1-0.2-0.2-0.2-0.3,0c-0.2,0-0.4,0-0.5-0.1c-0.2-0.4-0.6-0.3-0.9-0.3c-0.4-0.4-0.8-0.7-1.3-1
	c0.1,0,0.1,0,0.2,0c-0.3-0.5-0.7-0.3-1.1-0.3c-0.3,0-0.6-0.3-0.9,0c-0.1,0.2-0.1,0.4-0.2,0.6c-0.2,0.3-0.5,0.6-0.9,0.4
	c-0.1-0.1-0.3,0-0.4,0c-0.3,0.1-0.6,0.3-1,0.1c-0.2-0.1-0.4,0.1-0.5,0.3c-0.4-0.2-0.9-0.2-1.3,0c-0.2,0.1-0.3,0.1-0.5,0.1
	c-0.8,0.1-1.5,0.5-2.1,1.1c-0.2,0.2-0.4,0.3-0.6,0.2c-0.3,0-0.3-0.2-0.3-0.5h0.1c0.3,0,0.6-0.1,0.6-0.4h0.1c0-0.1,0.1-0.1,0.2-0.1
	l0,0c0.1-0.1,0.1-0.2,0.1-0.3V44c0.1-0.1,0.1-0.2,0.2-0.3c0.1-0.1,0.1-0.1,0.2-0.2c0-0.1,0.1-0.1,0.1-0.2v-0.1
	c0.6-0.6,1-1.3,1.7-1.8c0.8-0.5,1.5-1.3,2.6-1.4c0.1-0.3-0.1-0.6,0.2-0.8c0.1,0,0.1,0,0.2,0c0.3,0.1,0.5,0.3,0.7-0.1
	c0.3-0.5,0.7-0.8,1-1.2c0.5-0.5,1-0.8,1.7-0.9c0.5,0,0.8-0.7,1.4-0.4c0.1,0,0.3-0.2,0.3-0.4c0.4-0.5,1-0.5,1.5-0.6
	c0.5,0.3,0.9-0.3,1.4-0.1c0,0,0.1-0.1,0.2-0.1c0.1-0.2,0.2-0.4,0.5-0.1c0.1,0.1,0.4-0.2,0.6-0.3c0.8,0.1,1.6,0.5,2.5,0.1V35
	c0,0-0.1,0-0.1-0.1l0,0c0,0,0,0,0.1,0.1c0-0.1,0.1-0.1,0.1-0.2c0.2,0.1,0.3,0.4,0.5,0.3c0.3-0.1,0.6-0.2,0.8,0.1c0,0.1,0.2,0,0.3,0
	c0.4-0.4,0.8-0.3,1.2-0.1c0.1,0.1,0.2,0.1,0.3,0.2c0.2,0.2,0.4,0.1,0.6,0.2c0.1,0.1,0.1,0.1,0.2,0.2l0,0c0,0.1,0.1,0.1,0.2,0
	c0.1,0,0.1,0,0.2,0c0.1,0,0.2,0,0.3-0.2l0,0c0.1-0.1,0.2-0.2,0.2-0.3s0-0.1,0-0.1c0-0.1,0.1-0.1,0.2-0.1l0,0
	c0.2-0.3,0.4-0.4,0.5-0.1c0.2,0.5,0.5,0.5,0.8,0.2l0,0c-0.1-0.3,0.3-0.5,0.3-0.8c0.2-0.1,0.4-0.1,0.4-0.4
	C202.9,32.6,202.6,32.7,202.5,32.5z M160.8,43.7L160.8,43.7L160.8,43.7L160.8,43.7z M167.3,40.7c-0.2,0.2-0.4,0.2-0.6,0.2
	c-0.1-0.2-0.3-0.1-0.5-0.2v-0.1h0.1c0.5-0.4,1.2-0.3,1.6-1v-0.1c0.1,0,0.2,0,0.2,0l0.1,0.1c0.1,0.2,0.4,0.1,0.3,0.4
	C168,40.1,167.6,40.4,167.3,40.7z M160.3,58L160.3,58C160.4,58,160.4,58,160.3,58C160.4,58,160.4,58,160.3,58z M166.8,51.2
	L166.8,51.2L166.8,51.2L166.8,51.2z M167.1,51.5L167.1,51.5L167.1,51.5L167.1,51.5z M167.7,52L167.7,52L167.7,52L167.7,52z
	 M182.8,58.6L182.8,58.6L182.8,58.6L182.8,58.6L182.8,58.6L182.8,58.6L182.8,58.6L182.8,58.6z M177.6,43.9L177.6,43.9L177.6,43.9
	L177.6,43.9z M172.8,46.5L172.8,46.5L172.8,46.5L172.8,46.5z M182,54.5C182,54.5,181.9,54.5,182,54.5L182,54.5
	C181.9,54.5,182,54.5,182,54.5L182,54.5z M177.8,46.6c0.1,0,0.1-0.1,0.2-0.1l0,0c0.4,0,0.6-0.1,0.7-0.4c0.1-0.1,0.1-0.1,0.2-0.2
	c0.1,0,0.1-0.1,0.2-0.1l0.1-0.1c0.2-0.1,0.4-0.3,0.6-0.4c0.1,0,0.1-0.1,0.2-0.1c0.1,0,0.2-0.1,0.3,0l0.1-0.1h0.1
	c0.1,0,0.1-0.1,0.2-0.1c0.1-0.1,0.3-0.1,0.4-0.2c0.1,0,0.1,0,0.2,0c0.1,0,0.1,0,0.2,0c0.1,0,0.2,0,0.3,0c0.3,0,0.6,0,1,0
	c1.5,0,3,0.1,4.2,1.3c0,0,0,0,0,0.1c0,0.7-0.3,1.2-0.5,1.9c-0.2,1-0.6,2-0.8,3c-0.1,0.3,0,0.7-0.1,1c0,0.1,0,0.1,0,0.2
	c0.1,0.5-0.1,1-0.4,1.4c0,0,0,0.1-0.1,0.1c0,0,0,0.1-0.1,0.1h-0.1c-0.1-0.1-0.3-0.1-0.4-0.2c-0.3-0.1-0.4,0.1-0.4,0.3v0.1
	c0,0-0.1,0-0.1,0.1c0.2,0.7-0.4,1.3-0.4,1.9c0,0.1,0,0.1,0,0.2c-0.3,0-0.4-0.2-0.4-0.5c0-0.1,0-0.2,0.1-0.3h0.1
	c0.3-0.1,0.4-0.2,0.2-0.5c0,0.1,0,0.1-0.1,0.2c0-0.1,0-0.1,0-0.2c-0.1-0.2-0.2-0.4-0.4-0.2l0,0H183c0,0,0,0,0-0.1
	c-0.2-0.1-0.4,0-0.5,0.2l-0.1-0.1h-0.1c0-0.2,0-0.3-0.1-0.5c0,0,0,0,0.1,0c0.1,0,0.1-0.1,0.2-0.1c0.1-0.5-0.2-0.5-0.5-0.6
	c-0.1,0-0.1,0-0.2,0l0,0h-0.1v-0.1c-0.1,0-0.3,0-0.4,0c-0.3,0-0.5-0.3-0.8,0h-0.1v0.1l0,0c0,0.4,0.3,0.1,0.4,0.1c0,0.3,0,0.5,0,0.8
	c0,0.1-0.1,0.1-0.1,0.2c-0.3,0.5-0.7-0.1-1.1,0.1l0,0l0,0l0,0l0,0c0.1-0.1,0,0,0-0.1c0-0.5-0.3-0.5-0.7-0.5
	c-0.5-0.1-0.9,0.2-1.3,0.4c-0.2,0.1-0.3,0.1-0.5,0.2c0,0,0,0.1-0.1,0.1c-0.1,0-0.3,0.1-0.4,0.1c0-0.1-0.1-0.1-0.1-0.2
	c-0.1-0.1-0.1-0.1-0.2,0l0,0c0,0.1-0.1,0.1-0.1,0.2c-0.1,0.1-0.2,0.2-0.3,0.2l0,0c-0.1,0-0.1,0-0.2,0c-0.1,0-0.1,0-0.2,0
	c-0.1,0-0.1,0-0.2,0.1l-0.1,0.1c0,0,0,0-0.1,0.1l-0.1,0.1c0,0,0,0.1-0.1,0.1c-0.3,0-0.5,0.1-0.7,0.4h-0.1c-0.1,0.1-0.2,0.2-0.3,0.3
	c-0.3,0.4-0.8,0.3-1.2,0.5c0-0.1,0-0.1,0.1-0.2l0,0c0.1,0,0.1-0.1,0.1-0.2c0.1-0.2,0.1-0.4,0.1-0.6c0-0.2,0-0.5-0.1-0.7
	c0-0.2-0.1-0.3-0.1-0.5c0.1-0.2,0.3-0.5,0.2-0.7c-0.5-0.6-0.2-1.3-0.4-2c-0.1-0.4,0.1-0.8-0.2-1.1l-0.1-0.1c0-0.2,0.1-0.4,0.3-0.6
	c0-0.3,0.1-0.6-0.1-0.8v-0.1c0-0.1,0-0.1,0-0.2V49c0.3,0.1,0.6,0,0.8-0.2c0.1-0.2,0.1-0.5,0-0.7l0,0V48c0.3,0,0.6-0.1,0.8-0.3
	c0.2-0.1,0.3-0.3,0.5-0.5c0-0.1,0.1-0.1,0.1-0.2l0,0c0.1,0,0.2-0.1,0.2-0.2v-0.1h0.1l0,0h0.1h0.1l0,0c0.1,0.1,0.2,0.1,0.3,0.1
	s0.1-0.1,0.2-0.2l0.1-0.1v-0.1c0,0,0.1,0,0,0l0.1,0.1c0,0,0.1,0,0.1,0.1h0.1c0,0,0,0,0.1,0.1c-0.1,0.3,0.1,0.3,0.3,0.3s0.3,0,0.5,0
	c0.1,0.1,0.1,0.1,0.2,0c0.1,0,0.2-0.1,0.4-0.1c0.1,0,0.2,0,0.2-0.1c0.1,0,0.2-0.1,0.3-0.1C177.6,46.7,177.7,46.7,177.8,46.6z
	 M182.2,38.5L182.2,38.5L182.2,38.5L182.2,38.5z M184.2,35.1c-0.1,0.1-0.2,0.2-0.3,0.3l-0.1,0.1c-0.1,0-0.1,0.1-0.2,0.1l-0.1,0.1
	l-0.1,0.1l-0.1,0.1l-0.1,0.1l-0.1,0.1l-0.1,0.1c0,0,0,0-0.1,0.1l-0.1,0.1c0,0,0,0-0.1,0.1l-0.1,0.1c0,0,0,0-0.1,0.1l-0.1,0.1
	c0,0,0,0-0.1,0c-0.1-0.2-0.2-0.2-0.4-0.2v-0.1c0.3,0,0.6,0.1,0.6-0.3c0-0.1,0.1-0.1,0.1-0.2h0.1c0.1,0,0.1-0.1,0.2-0.2
	c0-0.1,0-0.2,0-0.3s-0.1-0.2-0.1-0.3c0.1-0.3,0.2-0.5,0-0.8c0.1-0.1,0.2-0.2,0.3-0.3l0,0h0.1c0,0,0,0.1,0.1,0.1
	c0.2,0.3,0.6,0.1,0.8,0.3C184.4,34.7,184.3,34.9,184.2,35.1z M184.3,30.8L184.3,30.8L184.3,30.8L184.3,30.8L184.3,30.8L184.3,30.8
	L184.3,30.8L184.3,30.8L184.3,30.8L184.3,30.8z M186.9,29.2c0-0.1,0-0.1,0-0.2c0-0.1,0.1-0.2,0.1-0.3c0,0,0,0,0.1-0.1l0.1-0.1
	c0.1-0.1,0.1-0.1,0.2-0.2c0.3,0,0.5-0.1,0.5-0.5c0-0.3,0-0.6,0-1c0-0.1,0.1-0.2,0.1-0.3c0.3-0.5,0.8-0.7,1.2-1.1c0,0,0,0,0-0.1
	c0.1,0,0.2,0,0.4-0.1c0,0,0,0,0.1,0.1c0,0.1,0,0.2,0.1,0.4c0,0.3,0,0.5-0.1,0.8c0,0.1-0.1,0.1-0.1,0.2c-0.1,0-0.2,0.1-0.2,0.2V27
	c-0.1,0-0.2-0.3-0.4-0.2c-0.1,0.1-0.2,0.4-0.1,0.4c0.6,0.1,0.2,0.3,0.2,0.6l0,0c-0.1,0-0.1,0-0.2,0c-0.1-0.2-0.2-0.2-0.3,0
	c-0.1,0.1-0.1,0.3-0.2,0.4c-0.1,0.1-0.1,0.1-0.2,0.2c-0.1,0.1-0.2,0.3-0.4,0.4h-0.1c-0.1,0-0.2,0.1-0.3,0.2
	c-0.1,0.1-0.1,0.2-0.1,0.3c0,0,0,0.1-0.1,0.1h-0.1C186.9,29.3,186.9,29.2,186.9,29.2z M193.9,33.4L193.9,33.4L193.9,33.4L193.9,33.4
	L193.9,33.4z M197.3,34C197.3,33.9,197.3,33.9,197.3,34c0,0,0.1,0,0.2,0C197.5,34,197.4,34,197.3,34z M191.8,46.9
	c0.1,0,0.2-0.1,0.2-0.3C191.9,46.7,191.9,46.8,191.8,46.9z M163.1,53.2c-0.1,0-0.2,0-0.3,0.2C163,53.4,163.1,53.3,163.1,53.2z
	 M159.4,44.5L159.4,44.5L159.4,44.5L159.4,44.5z M159.6,44.5c-0.1,0-0.1,0-0.2-0.1C159.5,44.5,159.5,44.7,159.6,44.5z M162.8,44.7
	L162.8,44.7L162.8,44.7L162.8,44.7z M185.4,60.3c0.1,0,0.1,0,0.2,0C185.5,60.2,185.5,60.2,185.4,60.3z M166,27.1L166,27.1
	C166,27,166,27,166,27.1z M173.4,29.4c0.1,0.1,0.1,0.1,0.2,0C173.5,29.4,173.5,29.4,173.4,29.4z M188.8,31.9c0.1,0,0.2,0,0.3-0.1
	c0.1,0,0.2-0.2,0.1-0.2c-0.1-0.1-0.2-0.1-0.3,0C188.8,31.7,188.8,31.8,188.8,31.9L188.8,31.9z M189.8,32.5L189.8,32.5
	C189.8,32.5,189.7,32.5,189.8,32.5C189.7,32.5,189.7,32.5,189.8,32.5L189.8,32.5z M188.5,30.8L188.5,30.8L188.5,30.8
	c0.2-0.1,0.3-0.1,0.4-0.1c0-0.1,0-0.1,0-0.2c0-0.1-0.1-0.1-0.1-0.2c0-0.3-0.2-0.3-0.5-0.3c-0.1,0.1-0.1,0.1-0.2,0.2H188v0.1
	c0,0,0,0,0.1,0v0.1C188.3,30.6,188.4,30.7,188.5,30.8z M189.5,30.1c0-0.3-0.2-0.3-0.4-0.4c0-0.1,0-0.1,0-0.2c0,0.1-0.1,0.1-0.1,0.2
	l0,0c-0.1,0.3,0,0.4,0.3,0.5C189.4,30.3,189.5,30.2,189.5,30.1z M189.4,29.3c-0.1,0.1-0.1,0.2-0.2,0.3
	C189.4,29.6,189.5,29.5,189.4,29.3L189.4,29.3z M189.9,28.2C189.9,28.2,189.8,28.2,189.9,28.2c-0.1,0.1-0.1,0.1,0,0.2l0,0
	c0.2,0.2,0.3,0.2,0.5,0c-0.2,0-0.3,0-0.5,0C189.9,28.3,189.9,28.2,189.9,28.2z M190.4,27.2C190.4,27.2,190.4,27.1,190.4,27.2
	C190.3,27.2,190.3,27.2,190.4,27.2L190.4,27.2z M191.6,26c-0.1,0.1-0.1,0.1-0.2,0.2C191.5,26.2,191.5,26.1,191.6,26z M185,28.2
	c0.2-0.1,0.3-0.1,0.5-0.2C185.2,27.8,185,27.9,185,28.2z M186,25.3c-0.1,0-0.2,0-0.3,0C185.8,25.4,185.9,25.4,186,25.3z M186.2,25.1
	c0.1,0,0.1-0.1,0.2-0.1h-0.1l0,0C186.2,25,186.2,25.1,186.2,25.1z M182.6,53.5c0.2,0,0.1-0.1,0.2-0.2c-0.1,0-0.2,0-0.3,0
	C182.5,53.3,182.5,53.5,182.6,53.5z M167.1,41.9c-0.3,0-0.5,0-0.6,0.3C166.8,42.2,167,42.1,167.1,41.9z M170.8,39.8L170.8,39.8v-0.1
	l0.1-0.1h-0.1c-0.4-0.2-0.3,0.1-0.4,0.3l0,0C170.6,40,170.7,40,170.8,39.8z M177.4,54.3c-0.1,0-0.2,0-0.3,0.2
	C177.2,54.5,177.4,54.4,177.4,54.3z M173.6,37.2v0.1c-0.2,0.1-0.4,0-0.5,0.2c-0.1,0-0.2,0-0.3,0c-0.2-0.3-0.4-0.3-0.5,0
	c-0.2,0-0.4,0.1-0.5,0.2c-0.1,0.1-0.2,0.3-0.1,0.5c0.1,0.2,0.3,0.2,0.5,0.1c0.2-0.1,0.3-0.2,0.5-0.4V38c0,0.2-0.2,0.3-0.2,0.5
	c-0.1,0.3-0.2,0.6,0.2,0.7v-0.1c0.2-0.1,0.6,0.1,0.7-0.2c0.2,0,0.5,0.1,0.6-0.2c0.1,0,0.1,0,0.2,0c0-0.1,0-0.1,0-0.2
	c0.1,0,0.1-0.1,0.2-0.1c0.4,0,0.8,0.3,1.1-0.2c0.5,0,0.2-0.4,0.4-0.6v-0.3c0-0.1,0-0.1,0-0.2c-0.3,0-0.7,0-0.6-0.5
	c0-0.1,0-0.3,0-0.4c0-0.3-0.1-0.5-0.4-0.4c-0.2,0.1-0.7,0-0.5,0.5l0,0C173.8,36.7,173.8,36.7,173.6,37.2z M181.1,36.8L181.1,36.8
	L181.1,36.8L181.1,36.8z M179,38.2c0.1-0.1,0-0.1,0-0.2c-0.1,0-0.1,0.1-0.2,0.2C178.9,38.2,178.9,38.3,179,38.2z M178.7,25.1
	c-0.1,0.1-0.1,0.2-0.1,0.3c0,0,0.1,0,0.1,0.1C178.9,25.4,178.8,25.3,178.7,25.1C178.8,25.2,178.7,25.1,178.7,25.1z M177.8,29.5
	c-0.1,0.1-0.1,0.2-0.1,0.4h0.1h0.1c0-0.1,0.1-0.1,0.1-0.2l0,0C178,29.6,177.9,29.4,177.8,29.5z M150.2,5.4c-0.1,0-0.2-0.1-0.3-0.2
	c0-0.1-0.1-0.1-0.1-0.3c0-0.1,0-0.3,0-0.4V1.6c0-0.2,0-0.5,0-0.7s0-0.4,0-0.5h0.5c0.1,0,0.1,0,0.2,0c0.1,0,0.2,0,0.2,0
	c0.2,0,0.3,0,0.5,0.1c0.1,0,0.2,0.1,0.3,0.2c0,0,0.1,0.1,0.1,0.2c0.1,0.1,0.1,0.2,0.2,0.2c0.1,0.1,0.1,0.2,0.2,0.3
	c0.1,0.1,0.1,0.2,0.1,0.3h0.1L152,0.1c-0.1,0-0.2,0.1-0.3,0.1s-0.2,0-0.4,0c-0.2,0-0.4,0-0.5,0c-0.1,0-0.3,0-0.4,0
	c-0.1,0-0.3,0-0.4,0h-1.5c-0.1,0-0.3,0-0.4,0c-0.1,0-0.3,0-0.5,0c-0.2,0-0.3,0-0.4,0s-0.2,0-0.3-0.1l-0.3,1.5h0.1
	c0-0.1,0.1-0.2,0.1-0.3c0-0.1,0.1-0.2,0.2-0.2c0.1-0.1,0.1-0.2,0.2-0.2s0.1-0.1,0.1-0.2c0.1-0.1,0.2-0.2,0.3-0.2
	c0.1,0,0.3-0.1,0.5-0.1c0.1,0,0.2,0,0.2,0c0.1,0,0.1,0,0.2,0h0.5v2.9c0,0.1,0,0.3,0,0.4s0,0.3,0,0.4s0,0.2,0,0.3c0,0.1,0,0.2,0,0.2
	c0,0.1,0,0.2,0,0.2c0,0.1,0,0.1,0,0.2s0,0.1-0.1,0.1c-0.1,0.1-0.2,0.2-0.4,0.2c-0.1,0-0.2,0.1-0.4,0.1v0.1h2.5V5.4
	C150.5,5.5,150.4,5.5,150.2,5.4z M155.8,5.2c0.2-0.1,0.3-0.3,0.4-0.5s0.1-0.4,0.1-0.6c0-0.4-0.1-0.6-0.3-0.9
	c-0.2-0.2-0.4-0.4-0.8-0.5c-0.1,0-0.2-0.1-0.3-0.1s-0.2-0.1-0.3-0.1c-0.1,0-0.2-0.1-0.3-0.1c-0.1,0-0.2-0.1-0.3-0.1
	c0-0.1-0.2-0.2-0.4-0.4s-0.2-0.4-0.2-0.6s0-0.3,0.1-0.5c0.1-0.1,0.1-0.2,0.2-0.3s0.2-0.2,0.4-0.2c0.1,0,0.3-0.1,0.4-0.1
	c0.2,0,0.4,0,0.5,0.1c0.2,0.1,0.3,0.2,0.4,0.3c0.2,0.2,0.3,0.3,0.4,0.5c0.1,0.2,0.2,0.3,0.2,0.5h0.1V0.2H156c0,0.1-0.1,0.1-0.1,0.2
	s-0.1,0.1-0.1,0.1s0,0-0.1-0.1c-0.1,0-0.1-0.1-0.2-0.1c-0.1,0-0.2-0.1-0.4-0.1c-0.2-0.1-0.4-0.1-0.6-0.1s-0.5,0-0.7,0.1
	c-0.2,0.1-0.4,0.2-0.6,0.3c-0.2,0.1-0.3,0.3-0.4,0.5c-0.1,0.2-0.1,0.4-0.1,0.7c0,0.2,0,0.3,0.1,0.5c0.1,0.1,0.1,0.3,0.2,0.4
	c0.1,0.1,0.2,0.2,0.3,0.3c0.1,0.1,0.2,0.2,0.4,0.2c0.1,0,0.2,0,0.3,0c0.1,0,0.2,0.1,0.2,0.1c0.1,0,0.2,0.1,0.2,0.1s0.2,0.1,0.4,0.1
	c0.2,0,0.2,0.1,0.3,0.1c0.1,0.1,0.2,0.1,0.3,0.2c0.1,0.1,0.1,0.2,0.2,0.3c0.1,0.1,0,0.3,0,0.4c0,0.3-0.1,0.6-0.3,0.8
	c-0.2,0.2-0.5,0.3-0.9,0.3c-0.1,0-0.3,0-0.4-0.1c-0.1,0-0.3-0.1-0.3-0.1c-0.1,0-0.2-0.1-0.3-0.2s-0.2-0.2-0.3-0.3
	c-0.1-0.1-0.2-0.2-0.2-0.4c-0.1-0.1-0.1-0.3-0.2-0.4h-0.1v1.5h0.1c0-0.1,0.1-0.1,0.1-0.2s0.1-0.1,0.1-0.1s0.1,0,0.1,0.1
	c0.1,0,0.1,0.1,0.3,0.1c0.1,0,0.3,0.1,0.4,0.1c0.2,0,0.4,0,0.6,0c0.3,0,0.5,0,0.8-0.1C155.4,5.5,155.6,5.4,155.8,5.2z M161.4,5.2
	c0.2-0.1,0.3-0.3,0.4-0.4c0.1-0.2,0.1-0.3,0.2-0.5c0-0.2,0.1-0.3,0.1-0.5c0-0.1,0-0.3,0-0.4c0-0.3,0-0.6,0-0.9s0-0.5,0-0.7
	c0-0.1,0-0.2,0-0.3c0-0.1,0-0.2,0-0.3c0-0.1,0-0.2,0-0.3s0-0.1,0-0.2c0.1-0.1,0.1-0.3,0.2-0.3c0.1-0.1,0.3-0.1,0.4-0.1V0.2h-1.9v0.1
	c0.2,0,0.4,0.1,0.5,0.2c0.1,0.1,0.2,0.2,0.3,0.3c0,0.1,0,0.1,0,0.2s0,0.2,0,0.3s0,0.2,0,0.3c0,0.1,0,0.2,0,0.3v1.2
	c0,0.2,0,0.3,0,0.5s0,0.4-0.1,0.5c0,0.2-0.1,0.3-0.2,0.5c-0.1,0.2-0.2,0.3-0.3,0.4c-0.1,0.1-0.3,0.2-0.5,0.3
	c-0.2,0.1-0.4,0.1-0.7,0.1c-0.2,0-0.5,0-0.7-0.1c-0.2-0.1-0.4-0.2-0.5-0.4c-0.1-0.2-0.2-0.3-0.3-0.6c-0.1-0.2-0.1-0.5-0.1-0.7
	c0-0.1,0-0.2,0-0.3c0-0.1,0-0.2,0-0.3V1.5c0-0.1,0-0.2,0-0.3c0-0.1,0-0.2,0-0.3c0-0.1,0-0.2,0.1-0.3c0-0.1,0.1-0.1,0.2-0.2
	c0.1,0,0.1-0.1,0.2-0.1s0.2,0,0.2,0V0.2h-2.2v0.1c0.1,0,0.2,0,0.3,0.1c0.1,0,0.2,0.1,0.3,0.2l0.1,0.1c0,0,0,0.1,0,0.2s0,0.2,0,0.2
	v1.3c0,0.3,0,0.5,0,0.7s0,0.4,0,0.5s0,0.2,0,0.3c0,0.1,0,0.3,0.1,0.4c0,0.1,0.1,0.3,0.2,0.4s0.2,0.3,0.4,0.4
	c0.2,0.1,0.4,0.2,0.6,0.3c0.2,0.1,0.5,0.1,0.9,0.1c0.4,0,0.7,0,0.9-0.1C161,5.5,161.2,5.4,161.4,5.2z M165.3,3.4
	c0.3,0.3,0.6,0.7,0.9,1s0.6,0.7,0.9,1l0.1,0.1c0,0,0,0,0.1,0h1.7V5.4c-0.1,0-0.3,0-0.4-0.1c-0.1,0-0.2-0.1-0.3-0.1c0,0,0,0-0.1-0.1
	c0,0-0.1-0.1-0.2-0.1c-0.1,0-0.1-0.1-0.2-0.2c-0.1-0.1-0.1-0.1-0.2-0.2c-0.2-0.2-0.4-0.5-0.7-0.7c-0.2-0.3-0.4-0.5-0.6-0.7
	c-0.2-0.2-0.4-0.4-0.5-0.6c-0.1-0.2-0.2-0.3-0.3-0.3c0.1-0.1,0.2-0.2,0.3-0.3c0.1-0.1,0.2-0.2,0.3-0.3c0.1-0.1,0.2-0.2,0.3-0.3
	c0.1-0.1,0.2-0.2,0.3-0.3c0.3-0.2,0.5-0.5,0.8-0.7c0.3-0.2,0.5-0.3,0.8-0.3V0h-2v0.1c0.1,0,0.2,0.1,0.3,0.1c0.1,0.1,0.1,0.2,0.1,0.3
	c0,0.1,0,0.2-0.1,0.3c0.1,0.3,0,0.4,0,0.5c-0.1,0.1-0.3,0.3-0.4,0.5c-0.1,0.2-0.4,0.3-0.6,0.5c-0.2,0.2-0.3,0.3-0.5,0.4
	c-0.2,0.1-0.3,0.2-0.4,0.3V1.8c0-0.1,0-0.2,0-0.3c0-0.1,0-0.2,0-0.3c0-0.2,0-0.4,0.1-0.5c0-0.1,0.1-0.2,0.2-0.3
	c0.1-0.1,0.1-0.1,0.2-0.1s0.2,0,0.3,0V0.2h-2.3v0.1c0.1,0,0.2,0,0.3,0.1c0.1,0,0.2,0.1,0.3,0.2c0.1,0.1,0.1,0.2,0.1,0.3
	c0,0.2,0,0.3,0,0.5v2.3c0,0.1,0,0.3,0,0.4s0,0.2,0,0.3c0,0.1,0,0.2,0,0.2c0,0.1,0,0.2,0,0.2s0,0.1,0,0.2s0,0.1-0.1,0.1
	c-0.1,0.1-0.1,0.1-0.3,0.2c-0.1,0-0.2,0.1-0.4,0.1v0.1h2.5V5.4c0,0-0.1,0-0.2,0s-0.1,0-0.2-0.1c-0.1,0-0.1-0.1-0.2-0.1
	c-0.1,0-0.1-0.1-0.1-0.1c0-0.1-0.1-0.2-0.1-0.3c0-0.1,0-0.3,0-0.4c0-0.2,0-0.4,0-0.6V3.1V3c0,0,0,0,0.1,0c0,0,0.1,0,0.1,0.1
	C165.1,3.2,165.2,3.3,165.3,3.4z M171.2,5.6L171.2,5.6c-0.1-0.1-0.2-0.1-0.4-0.2c-0.1,0-0.2-0.1-0.3-0.2c0-0.1-0.1-0.1-0.1-0.3
	c0-0.1,0-0.3,0-0.4V2c0-0.1,0-0.2,0-0.4c0-0.1,0-0.2,0-0.4c0-0.1,0-0.2,0-0.4c0-0.1,0-0.2,0.1-0.3c0.1-0.1,0.2-0.2,0.3-0.2
	c0.1,0,0.2-0.1,0.3-0.1V0.1h-2.2v0.1c0.1,0,0.2,0,0.3,0.1c0.1,0,0.2,0.1,0.3,0.2l0.1,0.1c0,0.1,0,0.1,0,0.2s0,0.2,0,0.2v2.2
	c0,0.2,0,0.3,0,0.4s0,0.3,0,0.4s0,0.2,0,0.3c0,0.1,0,0.2,0,0.2c0,0.1,0,0.2,0,0.2c0,0.1,0,0.1,0,0.2s0,0.1-0.1,0.1
	c-0.1,0.1-0.2,0.1-0.3,0.2c-0.1,0-0.2,0.1-0.3,0.1v0.1L171.2,5.6L171.2,5.6z M176.7,2c-0.1-0.1-0.2-0.3-0.2-0.4s-0.1-0.2-0.2-0.3
	c-0.1-0.1-0.2-0.3-0.2-0.4C176,0.8,176,0.7,176,0.6c0-0.1,0-0.1,0.1-0.2c0,0,0.1-0.1,0.2-0.1c0.1,0,0.1,0,0.2,0c0.1,0,0.1,0,0.2,0
	V0.2h-2.3v0.1c0.1,0,0.2,0,0.3,0.1s0.2,0.1,0.2,0.2c0.1,0.1,0.2,0.2,0.2,0.3c0.1,0.1,0.2,0.3,0.3,0.4c0,0.1,0.1,0.2,0.2,0.3
	c0.1,0.1,0.2,0.2,0.2,0.4c0.1,0.1,0.2,0.3,0.3,0.4c0.1,0.1,0.2,0.3,0.2,0.4c0.1,0.1,0.1,0.2,0.2,0.3c0,0.1,0.1,0.1,0.1,0.1
	c0,0.3,0,0.5,0,0.7s0,0.4,0,0.5s0,0.2,0,0.2c0,0.1,0,0.2,0,0.2c0,0.1,0,0.1,0,0.2s0,0.1-0.1,0.1c-0.1,0.1-0.2,0.2-0.3,0.2
	c-0.1,0-0.2,0.1-0.3,0.1v0.1h2.3V5.4c-0.1,0-0.2,0-0.3-0.1c-0.1,0-0.2-0.1-0.3-0.2c0-0.1-0.1-0.2-0.1-0.3c0-0.1,0-0.3,0-0.4V2.9
	c0.1-0.1,0.1-0.2,0.2-0.4c0.1-0.2,0.2-0.3,0.3-0.5c0.1-0.2,0.2-0.3,0.3-0.5c0.1-0.2,0.2-0.3,0.2-0.4c0.1-0.1,0.2-0.3,0.2-0.4
	c0.1-0.1,0.2-0.2,0.2-0.3c0.1-0.1,0.2-0.1,0.3-0.2c0.1-0.1,0.2-0.1,0.4-0.1V0h-1.7v0.1c0.1,0,0.1,0,0.2,0c0.1,0,0.1,0,0.2,0.1
	c0.1,0,0.1,0.1,0.2,0.1c0.1,0,0.1,0.1,0.1,0.2s0,0.1,0,0.2s0,0.1-0.1,0.2c0,0.1-0.1,0.1-0.1,0.2s-0.1,0.1-0.1,0.1
	c0,0.1-0.1,0.2-0.2,0.3c-0.1,0.1-0.2,0.3-0.3,0.4c-0.1,0.2-0.2,0.3-0.3,0.4c-0.1,0.1-0.2,0.3-0.2,0.4c-0.1-0.1-0.2-0.3-0.3-0.4
	C176.8,2.3,176.8,2.1,176.7,2z M181.3,0.3c-0.4,0.1-0.7,0.3-0.9,0.5c-0.3,0.2-0.5,0.5-0.6,0.9c-0.2,0.3-0.2,0.7-0.2,1.2
	c0,0.4,0.1,0.8,0.2,1.1c0.1,0.3,0.3,0.6,0.6,0.9c0.3,0.2,0.5,0.4,0.9,0.6c0.3,0.1,0.7,0.2,1.1,0.2c0.4,0,0.7-0.1,1.1-0.2
	c0.3-0.1,0.6-0.3,0.9-0.6s0.5-0.5,0.6-0.9c0.1-0.3,0.2-0.7,0.2-1.1s-0.1-0.7-0.2-1c-0.1-0.3-0.3-0.6-0.5-0.9
	c-0.2-0.2-0.5-0.4-0.9-0.6c-0.3-0.2-0.7-0.2-1.1-0.2C182,0.1,181.6,0.2,181.3,0.3z M183.1,0.5c0.2,0.2,0.4,0.4,0.6,0.6
	c0.2,0.3,0.3,0.5,0.4,0.8c0.1,0.3,0.1,0.6,0.1,0.9s0,0.6-0.1,0.9c-0.1,0.3-0.2,0.6-0.3,0.8c-0.2,0.2-0.3,0.5-0.6,0.6
	s-0.5,0.2-0.8,0.2c-0.3,0-0.6-0.1-0.8-0.2c-0.2-0.1-0.4-0.3-0.6-0.6c-0.2-0.2-0.3-0.5-0.4-0.8c-0.1-0.3-0.1-0.6-0.1-1
	c0-0.3,0-0.6,0.1-1c0.1-0.3,0.2-0.6,0.3-0.8c0.2-0.2,0.3-0.5,0.6-0.6c0.2-0.2,0.5-0.2,0.8-0.2C182.6,0.2,182.9,0.3,183.1,0.5z
	 M188.2,0.1L188.2,0.1c0.1,0.1,0.2,0.1,0.3,0.2c0.1,0,0.2,0.1,0.3,0.2l0.1,0.1c0,0.1,0,0.1,0,0.2s0,0.2,0,0.2v2.2c0,0.1,0,0.3,0,0.4
	s0,0.3,0,0.4s0,0.2,0,0.3c0,0.1,0,0.2,0,0.2v0.2c0,0.1,0,0.1,0,0.2s0,0.1-0.1,0.1c-0.1,0.1-0.2,0.1-0.3,0.2c-0.1,0-0.2,0.1-0.3,0.1
	v0.1h2.3V5.3c-0.1,0-0.2,0-0.4-0.1c-0.1,0-0.2-0.1-0.3-0.2c0-0.1-0.1-0.1-0.1-0.3c0-0.1,0-0.3,0-0.4V1.8c0-0.1,0-0.2,0-0.4
	c0-0.1,0-0.2,0-0.4c0-0.1,0-0.2,0-0.4c0-0.1,0-0.2,0.1-0.3c0.1-0.1,0.2-0.2,0.3-0.2c0.1,0,0.2-0.1,0.3-0.1v0.1H188.2L188.2,0.1z
	 M193,3.1c-0.1-0.3-0.2-0.5-0.3-0.8c-0.1-0.3-0.2-0.5-0.3-0.8c-0.1-0.2-0.2-0.4-0.2-0.6c-0.1-0.2-0.1-0.3-0.1-0.3
	c0-0.1,0-0.2,0.1-0.2c0-0.1,0.1-0.1,0.2-0.1c0.1,0,0.1,0,0.2-0.1c0.1,0,0.1,0,0.1,0V0.1h-2.1v0.1c0.1,0,0.2,0,0.3,0.1
	c0.1,0,0.1,0.1,0.2,0.1l0.1,0.1c0,0,0,0.1,0.1,0.1c0,0.1,0.1,0.1,0.1,0.2s0,0.1,0.1,0.2c0,0.1,0,0.1,0.1,0.2c0,0.1,0.1,0.2,0.1,0.2
	c0.1,0.3,0.2,0.6,0.4,0.9c0.1,0.3,0.2,0.6,0.4,1c0.1,0.3,0.3,0.7,0.4,1c0.1,0.4,0.3,0.7,0.4,1.1h0.1l0.3-0.7
	c0.1-0.2,0.2-0.5,0.3-0.7c0.1-0.3,0.2-0.5,0.3-0.8c0.1-0.3,0.2-0.5,0.3-0.8c0.1-0.3,0.2-0.5,0.3-0.7c0.1,0.3,0.2,0.6,0.3,0.8
	c0.1,0.3,0.2,0.6,0.3,0.9c0.1,0.3,0.2,0.6,0.3,0.9c0.1,0.3,0.2,0.7,0.4,1h0.1l0.3-0.7c0.1-0.3,0.2-0.6,0.3-0.9
	c0.1-0.3,0.2-0.6,0.3-0.9c0.1-0.3,0.2-0.6,0.3-0.9c0.1-0.3,0.2-0.6,0.3-0.8c0-0.1,0.1-0.3,0.1-0.4s0.1-0.2,0.1-0.2
	c0-0.1,0.1-0.1,0.1-0.1l0.1-0.1c0,0,0.1-0.1,0.2-0.1c0.1-0.1,0.2-0.1,0.3-0.1l0,0h-1.6v0.1c0.1,0,0.1,0,0.2,0c0.1,0,0.1,0,0.2,0.1
	c0.1,0,0.1,0.1,0.2,0.1c0,0,0.1,0.1,0.1,0.2c0,0,0,0.1,0,0.2s0,0.3-0.1,0.5c-0.1,0.2-0.1,0.4-0.2,0.6s-0.1,0.4-0.2,0.6
	c-0.1,0.2-0.1,0.4-0.2,0.6c-0.1,0.2-0.1,0.4-0.2,0.5c-0.1,0.2-0.1,0.3-0.1,0.4s-0.1,0.2-0.1,0.2c0-0.1-0.1-0.2-0.2-0.5
	c-0.1-0.2-0.2-0.4-0.3-0.7c-0.1-0.3-0.2-0.5-0.3-0.8c-0.1-0.3-0.2-0.6-0.3-0.8c-0.1-0.2-0.2-0.5-0.2-0.6c-0.1-0.2-0.1-0.3-0.1-0.3
	c0-0.1,0-0.1,0.1-0.2c0.1-0.1,0.1-0.1,0.2-0.1c0.1,0,0.2,0,0.2-0.1c0.1,0,0.1,0,0.2,0l0,0h-2.3v0.1c0.1,0,0.2,0,0.3,0
	c0.1,0,0.2,0.1,0.2,0.1l0.1,0.1l0.1,0.1c0.1,0.1,0.1,0.3,0.2,0.4c0.1,0.1,0.1,0.3,0.2,0.5c-0.1,0.3-0.2,0.7-0.3,1
	c-0.1,0.3-0.2,0.6-0.3,0.9c-0.1,0.2-0.2,0.5-0.2,0.6c-0.1,0.2-0.1,0.3-0.1,0.3c-0.1-0.1-0.1-0.3-0.2-0.6
	C193.2,3.6,193.1,3.3,193,3.1z M201,0.2c0,0.1-0.1,0.1-0.1,0.2c-0.1,0.1-0.1,0.1-0.2,0.2c-0.1,0.1-0.2,0.1-0.2,0.1l0.1,0.2
	c-0.1,0.3-0.2,0.6-0.4,0.9c-0.1,0.3-0.3,0.6-0.4,1c-0.1,0.3-0.3,0.6-0.4,0.9s-0.2,0.6-0.4,0.8c-0.1,0.3-0.2,0.4-0.3,0.6
	c-0.1,0.1-0.1,0.2-0.2,0.2c0,0-0.1,0.1-0.2,0.1c-0.1,0.1-0.2,0.1-0.3,0.1v0.1h1.6V5.5c-0.1,0-0.1,0-0.2,0c-0.1,0-0.1,0-0.2-0.1
	c-0.1,0-0.1-0.1-0.2-0.1c0,0-0.1-0.1-0.1-0.2s0.1-0.3,0.2-0.6c0.1-0.2,0.1-0.3,0.2-0.5c0.1-0.2,0.1-0.4,0.2-0.5h2
	c0.1,0.2,0.1,0.4,0.2,0.6c0.1,0.2,0.1,0.3,0.2,0.5c0,0.1,0.1,0.3,0.1,0.4s0,0.2,0,0.2c0,0.1,0,0.1-0.1,0.2c0,0-0.1,0.1-0.2,0.1
	s-0.1,0-0.2,0.1c-0.1,0.1-0.1,0-0.1,0v0.1h2.2V5.6c-0.1,0-0.2,0-0.3-0.1c-0.1,0-0.2-0.1-0.2-0.1C203,5.3,203,5.3,203,5.2
	s-0.1-0.1-0.1-0.1c-0.1-0.1-0.1-0.2-0.2-0.3c0-0.1-0.1-0.2-0.2-0.4c-0.1-0.3-0.2-0.6-0.4-1c-0.1-0.3-0.2-0.7-0.4-1
	c-0.1-0.3-0.3-0.7-0.4-1.1c-0.1-0.4-0.3-0.8-0.4-1.2h-0.1C201,0.1,201,0.1,201,0.2z M200.7,1.4c0.1,0.2,0.1,0.4,0.2,0.6
	s0.2,0.4,0.3,0.6c0.1,0.2,0.2,0.4,0.3,0.7h-1.9c0.1-0.3,0.2-0.6,0.3-0.8c0.1-0.3,0.2-0.5,0.3-0.7c0.1-0.2,0.2-0.4,0.2-0.5
	c0.1-0.1,0.1-0.2,0.1-0.3C200.6,1.1,200.7,1.2,200.7,1.4z"/>
</svg>
