<?xml version="1.0" encoding="utf-8"?>
<!-- Generator: Adobe Illustrator 24.0.2, SVG Export Plug-In . SVG Version: 6.00 Build 0)  -->
<svg version="1.1" id="logo" xmlns="http://www.w3.org/2000/svg" xmlns:xlink="http://www.w3.org/1999/xlink" x="0px" y="0px"
	 viewBox="0 0 71.1 204" style="enable-background:new 0 0 71.1 204;" xml:space="preserve">
<style type="text/css">
	.st0{fill:#000000;}
</style>
<path class="st0" d="M16.2,172.2h0.2C16.3,172.1,16.2,172.1,16.2,172.2z M14.5,190.4c-0.1,0.1-0.3-0.1-0.4-0.1
	c-0.2,0.1-0.4,0.1-0.5,0.3c-0.3,0.3,0.1,0.4,0.2,0.6c0.2,0,0.4,0.1,0.5,0.3c0.1,0,0.2,0,0.3,0c-0.1-0.3-0.4-0.4-0.7-0.6
	c-0.1-0.1-0.1-0.2-0.1-0.3c0.5-0.1,1,0,1.5,0C15,190.5,14.8,190.2,14.5,190.4z M18.4,61.8c0.4,0,0.8,0.1,1-0.3
	C18.6,61.1,18.6,61.1,18.4,61.8z M42.1,36.5c0.1,0.3,0.1,0.7,0.3,1c0.2-0.3,0.4-0.7,0.6-1c0.1-0.2,0.2-0.3,0-0.5s-0.3,0-0.4,0.2
	C42.4,36.3,42.3,36.4,42.1,36.5z M42.5,38.4c0.3-0.4,0-0.7-0.1-1C42.4,37.8,42.4,38.1,42.5,38.4z M16.5,57.4c0,0.1,0,0.2,0,0.2l0,0
	l0,0c-0.1,0-0.1,0-0.2,0c0.1,0.5,0.3,0.9,0.7,1.2c0.1,0.1,0.2,0.2,0.3,0.3c0,0.3,0.1,0.7,0.2,1c0.1,0.2,0.6,0.2,0.8,0.5
	c0.4,0.5,1,0.7,1.6,0.8c0.3,0,0.5,0,0.8,0.1l0,0c0.2,0.2,0.4,0.2,0.6,0.2c0.5-0.1,1,0,1.5,0.3c0-0.1-0.1-0.2-0.1-0.3
	c0-0.6,0-0.6-0.5-0.4c-0.2,0.1-0.5,0.2-0.7,0.2c0-0.1,0.1-0.1,0-0.2l0,0v-0.1c0.9,0,0.8-1.1,1.5-1.3v-0.1c-0.2-0.6,0.1-1.2,0-1.8
	c-0.1-0.5-0.2-1-0.3-1.6c-0.1-0.6,0-1.2-0.1-1.7c-0.2-0.5-0.2-1-0.2-1.4c0.1-1-0.4-2-0.1-3c0-0.1,0-0.1,0-0.2c0.1,0,0.1,0,0.2,0l0,0
	c0.1,0.1,0.1,0.1,0.2,0.2l0,0c0.1-0.1,0-0.2-0.1-0.2h0.1c0.6-0.3,0.8-0.7,0.4-1.3c-0.3-0.4-0.2-0.8-0.1-1.3c0.4-1,0-1.9-0.2-2.9
	c0-0.1-0.1-0.2-0.2-0.3c-0.1-0.8-0.5-1.6-0.2-2.4c0-0.8,0.2-1.5-0.2-2.2C22,39.2,22,38.8,22,38.3c0.1-1,0.4-2,0.2-2.9
	c-0.4-1.3-0.2-2.5-0.1-3.8c0-0.1,0.1-0.2,0.1-0.3c-0.2-2.3-0.1-4.6,0.9-6.8c0.2-0.4,0.2-0.8,0-1.2c-0.5-0.8-0.9-1.5-1.7-2
	c-0.2,0-0.3-0.1-0.5-0.2c-0.1-0.1-0.1-0.2,0-0.3c0.1-0.3,0.4,0,0.6-0.1c0.1,0,0.1,0,0.2,0c0.2,0.1,0.4,0.1,0.6,0
	c0.3,0.2,0.6,0.3,0.9,0.1c0.4-0.2,0.9-0.4,1.3-0.6c0.3,0.1,0.5,0,0.8-0.2c1.3-0.9,2.5-1.8,3.9-2.6c0.2-0.1,0.5-0.3,0.5-0.6l0,0
	c0.1,0,0.1,0.1,0.2,0.1c0.3,0.1,0.6-0.1,0.9-0.2c1-0.4,1.9-0.8,3-1c1.1-0.2,2.2-0.5,3.1,0.4l0,0c0,0.1,0,0.1-0.1,0.2
	c0,0.8,0.1,1.6,0.2,2.4c0.1,0.6,0.1,1.1,0.2,1.7c0,0.7,0,1.4,0,2c-0.2,0.8-0.1,1.6-0.1,2.3c0,0.1,0.1,0.1,0.2,0.2
	c0,0.2,0.1,0.4,0.3,0.5v0.1v0.1c0,0.1,0,0.1-0.1,0.1c-0.3,0.1-0.7,0.2-0.5,0.7c0.1,0.1,0.2,0.1,0,0.2c-0.5,0.6-0.5,1.3-0.3,2
	c0.1,0.1,0.1,0.3,0.2,0.4c-0.7,0.9-0.7,1,0.3,2c0,0,0.1,0,0.2,0c0.1,0.1,0.1,0.2,0.2,0.3l0,0c0,0.3,0,0.6,0,0.8l-0.1,0.1v0.1
	c-0.2,0-0.4,0.2-0.5,0.3c0,0,0,0,0-0.1c-0.1,0.1-0.2,0.2-0.2,0.4c-0.1,0.2-0.1,0.4-0.1,0.5l0,0c-0.2,0-0.2-0.3-0.4-0.2
	c-0.1,0.9,0,1,0.6,0.8v0.1c0.1,0.1,0.1,0.2,0.2,0.3c0,0.2-0.1,0.5-0.1,0.7l0,0l0,0c-0.1,0-0.1-0.1-0.2-0.1c-0.4,0.4-0.3,0.9,0,1.3
	l0,0l0,0l-0.1-0.1c-0.7,0.1-0.9,0.4-0.5,1c0.2,0.2,0.3,0.5,0.2,0.8c0,0.3,0,0.6,0.3,0.7c0.1,0,0.1,0,0.2,0c0,0,0,0,0.1,0l0,0
	c0,0,0,0,0.1,0c0,0.1,0,0.2,0,0.3v0.1c-0.2-0.1-0.5-0.2-0.8,0c-0.6,0.4-0.6,0.6,0,0.8c0.2,0.1,0.3,0.2,0.3,0.4c0,0.3,0,0.6,0,0.9
	c-0.1,0.4-0.1,0.7,0.4,0.8c0.1,0,0.2,0.1,0.3,0.1c0,0,0,0,0,0.1s-0.1,0.3-0.1,0.4c-0.2,0-0.4-0.1-0.5-0.1c-0.2,0-0.4,0.1-0.4,0.3
	s0,0.3,0.2,0.4c0.1,0,0.2,0.1,0.2,0.1c-0.1,0.1-0.2,0.2-0.2,0.3c-0.1,0.1-0.2,0.2-0.2,0.3s0,0.1-0.1,0.2c-0.1,0.1-0.2,0.2-0.1,0.4
	c0.1,0.4,0,0.8,0.3,1.1h0.1v0.1c0,0.3,0,0.6,0.2,0.8l0.1,0.1c0.1,0.2,0.4,0.3,0.3,0.6c-0.1,0.1-0.2,0.1-0.4,0.2
	c-0.4,0.6-0.3,0.8,0.4,1.3v0.1c0,0.1,0.1,0.1,0.2,0.2c0,0,0.1,0,0.1,0.1c-0.1,0.2-0.3,0.3-0.6,0.4c-0.2,0-0.4,0.1-0.5,0.1
	s-0.4,0.1-0.4,0.3c0,0.3,0.3,0.3,0.5,0.3c0.1,0.1,0.1,0.1,0.2,0.2c-0.1,0.3-0.3,0.6-0.4,0.9c-0.2,0.4-0.1,0.6,0.3,0.6
	c0.1,0,0.2,0,0.4,0c0,0.2-0.1,0.4-0.3,0.4c-0.5,0.1-0.5,0.4-0.4,0.8c0,0.1,0,0.3,0,0.5c0,0.1,0,0.1,0,0.2c0.1,0.4,0,0.7-0.3,1
	c0-0.2-0.1-0.3-0.3-0.4l0,0c-0.3-0.5-0.6-0.9-0.9-1.4l0,0c-0.1-0.2-0.2-0.3-0.3-0.5c-0.4-0.4-0.6-0.3-1,0.2c0.2,0.3,0.1,0.7,0.5,1
	H34l0,0h-0.1c0.1,0.1,0.1,0.2,0.2,0.3c0.1,0.3,0.2,0.6,0.3,1c0,0.1,0,0.1,0,0.1c0,0.1,0,0.1,0,0.2c0,0.2,0,0.4,0.2,0.6
	c0,0.1,0,0.1,0,0.2c0.1,0.1,0.1,0.1,0.2,0.2c0,0.2,0,0.3,0.2,0.4l0,0c0,0.1,0,0.1,0,0.2c0.1,0.1,0.1,0.1,0.2,0.2c0,0.1,0,0.1,0,0.2
	c0.1,0.1,0.1,0.1,0.2,0.2c0,0.1,0,0.1,0,0.2c0.1,0.1,0.1,0.1,0.2,0.2c0,0.1,0,0.1,0,0.2c0.1,0.1,0.1,0.1,0.2,0.2c0,0.1,0,0.1,0,0.2
	c-0.8,0.2-1.5,0.5-2.3,0.4c-0.1,0.1-0.3,0.1-0.4,0.2c0,0.2-0.2,0.3,0.1,0.6c0.3-0.3,0.8,0.1,1.1-0.1c0.6-0.4,1.2-0.2,1.9-0.3l0,0
	c0.1,0.1,0.1,0.1,0.2,0.2c0.1,0.1,0.1,0.1,0.2,0.2c0,0.1,0,0.1,0,0.2c0.3,0.4,0.6,0.8,0.4,1.2c-0.4,0.9,0.5,1.6,0.4,2.4
	c0.9,0.7,1.3,2.1,2.9,1.8c0.2,0,0.3,0.1,0.5,0.2c0,0,0-0.1,0.1-0.1l0,0c0,0,0,0-0.1,0.1c0.1,0.4,0.4,0.4,0.7,0.3
	c0.6,0,1.3-0.1,1.8,0.3l0,0c0.1,0.1,0.1,0.1,0.2,0.1c0.2-0.1,0.3-0.4,0.5-0.6c-0.1-0.3,0-0.5,0.1-0.7L44,64.8l0,0l0.1,0.1
	c0.8-0.2,0.8-0.3,0.6-1.2c0.1,0,0.2-0.1,0.2-0.2c0.2-0.1,0.3-0.2,0.2-0.3c-0.1-0.6-0.3-1.2-0.5-1.7c-0.1-0.4-0.5-0.7-0.5-1.2
	c-0.1-0.1-0.2-0.2-0.3-0.3l0,0c0.1,0,0.2,0.2,0.3,0.3c0.1-0.3-0.1-0.6-0.2-0.8c-0.2-0.5-0.7-0.9-0.6-1.5l0,0c0-0.3-0.1-0.5-0.1-0.8
	c-0.1,0-0.1,0-0.1,0H43c-0.1,0-0.1,0-0.2,0c-0.1,0-0.1,0-0.1,0c0-0.1-0.1-0.2-0.1-0.2c0.2-0.4,0.2-0.7-0.3-0.8
	c-0.4-0.1,0-0.7-0.4-0.9c-0.2-0.1,0-0.3,0.1-0.5s0.3-0.5-0.1-0.6c-1-0.6-0.8-1.5-0.6-2.4c0.3-0.1,0.4-0.2,0.4-0.5
	c-0.3,0.1-0.6-0.4-0.9,0l0,0c-0.2,0-0.4,0-0.6-0.1c0-0.1,0-0.2,0.1-0.3l0,0c0.1,0,0.3-0.1,0.4-0.1l0,0h0.1l0,0
	c0.2,0.3,0.4,0.3,0.6,0c0-0.1,0-0.1,0.1-0.2c0-0.4-0.2-0.5-0.5-0.5c-0.1,0-0.3,0.1-0.4,0.1c-0.1-0.1-0.3-0.2-0.3-0.3c0,0,0,0,0-0.1
	c0.3-0.2,0.6-0.3,0.7-0.7C40.8,49,40.7,49,40.5,49c-0.1-0.2-0.4-0.3-0.2-0.6c0.1-0.2,0.2-0.4,0.5-0.4c0.1,0,0.3,0,0.3-0.2
	c-0.3-0.7,0.5-0.5,0.6-0.7c0.3,0,0.4-0.2,0.6-0.3c0-0.3-0.2-0.4-0.4-0.4c0-0.1-0.1-0.2-0.1-0.4h-0.1c0-0.2,0-0.4-0.2-0.4
	c-0.3,0-0.3,0.3-0.2,0.5c0,0,0,0,0,0.1c0,0,0,0-0.1,0.1c-0.2,0.1-0.3,0.2-0.4-0.1c-0.1-0.4,0-0.7,0-1.1l0,0c0.4-0.1,0.8,0.1,1.2-0.1
	c-0.2-0.3-0.6-0.4-1-0.4c0-0.1,0-0.1,0.1-0.2c0.1-0.1,0.1-0.1,0.2-0.2c0-0.4,0.1-0.7,0.7-0.7c0.1,0,0.1-0.1,0.2-0.2
	c0.1,0,0.1,0,0.2,0c0-0.2,0-0.3-0.1-0.4c0-0.2,0.4-0.2,0.2-0.5c-0.1-0.2-0.4-0.3-0.4-0.6h0.1c0.2,0,0.2-0.2,0.2-0.4
	c0.2-0.1,0.2-0.2,0-0.4l0,0c-0.1-0.2-0.2-0.4-0.5-0.2c-0.1,0.1,0,0.4-0.3,0.5c-0.1-0.8,0.6-1.3,0.4-2c0,0,0.2-0.1,0.3-0.2l0,0
	c0.5,0,0.4-0.4,0.4-0.7c0.1,0,0.1,0,0.2,0H43c0,0,0-0.1-0.1-0.1c-0.2-0.6-0.3-1.3,0.1-1.9c0-0.4,0.1-0.7,0.2-1.1
	c0.2-0.6,0.5-1.3-0.1-1.9c-0.1-0.1,0-0.3,0-0.5l0,0l0,0l0,0c0.1-0.1,0.2-0.2,0.2-0.4c-0.1,0-0.2,0-0.2,0l0,0
	c-0.2,0.1-0.3,0.1-0.3-0.2c0,0,0-0.1-0.1-0.1l0,0l0,0c0,0,0,0,0-0.1c0.1-0.2,0.1-0.4,0.1-0.7c-0.1-0.5-0.4-0.7-0.8-0.9
	c0.1-0.1,0.1-0.2,0.1-0.3c0.5-0.4,0.3-1.1,0.6-1.7l0.1-0.1c0-0.1,0-0.2,0-0.3c0,0-0.1,0-0.1-0.1l0,0c0,0,0,0.1,0.1,0.1
	c0.3-0.5,0-1.3,0.5-1.8v-0.1c-0.5-0.4-0.1-0.8-0.1-1.2l0,0c0.3-0.8,0.4-1.6,0.5-2.4c0-0.1,0-0.1,0-0.2c0-0.4-0.4-0.8-0.2-1.2
	c-0.5-0.1-0.4-0.6-0.6-0.9c-0.3-0.6-0.1-0.9,0.3-1.2l0.1,0.1c0.1-0.1,0.1-0.1,0.2-0.2c0,0,0,0-0.1-0.1c0-0.6-0.1-1.1-0.2-1.7l0,0
	c-0.1-0.5-0.2-1-0.3-1.5l0,0c0.2-0.1,0.1-0.4,0.2-0.6c-0.1,0-0.1,0-0.2,0c-0.2-0.7-0.5-1.4-1.2-1.5c-0.7-0.2-1.4-0.5-2.2-0.6
	c-1.2-0.3-2.4-0.1-3.6,0.1c-1.4,0.2-2.7,0.6-4,1l0,0c-0.4,0-0.8-0.3-1,0.3c-0.9,0.1-1.7,0.6-2.4,1.2c0,0.1,0,0.1-0.1,0.2
	c-0.3,0.1-0.5,0.3-0.8,0.5c-0.2,0-0.3,0.1-0.4,0.2c-0.5,0.1-0.8,0.6-1.3,0.7c-0.1,0-0.3,0.1-0.3,0.2l0,0c-0.8,0.1-1.5,0.5-1.9,1.2
	c-0.2,0-0.3,0-0.4,0.2c-0.2,0.1-0.5,0.1-0.6,0.3c-0.3,0.5-0.7,0.2-1.1,0.1c-0.3-0.1-0.6-0.1-0.9,0.1c-0.2,0.1,0.2,0.4,0,0.6
	c-0.2,0-0.4,0-0.6,0s-0.4-0.1-0.5-0.1c-0.5-0.5-1.1-0.4-1.7-0.1c-0.2,0-0.3,0-0.5,0c-0.3,0-0.4,0.1-0.3,0.4C17,20.2,17,20.4,17,20.5
	c0.1,0,0.1,0.1,0.1,0.1c0.4,0.3,0.5,0.7,0.4,1.2c-0.1,1.9-0.2,3.7-0.3,5.6c-0.1,1.2-0.2,2.4-0.4,3.6c0.2,0.4,0.2,0.8,0.1,1.3
	c0,0.3-0.2,0.6,0.1,0.9l0,0l0,0l0,0l0,0l0,0l0,0c-0.2,0.8,0.2,1.5,0.1,2.3c-0.1,0.5-0.2,0.9,0.1,1.4c0.1,0.9,0,1.9,0,2.8
	c0,0.7,0,1.4,0.4,2c0,0.2,0,0.5,0,0.7c-0.1,0.8,0.1,1.7-0.1,2.5l0,0c-0.2,0.1-0.6,0.2-0.1,0.5c0.1,0.1,0.2,0.2,0.2,0.4
	c-0.2,0.3-0.1,0.7-0.2,1c-0.2,1,0,2.1-0.3,3.1c0.3,0.5,0,1.1,0.2,1.6c-0.1,0.5,0,1.1,0,1.6c-0.1,0.4-0.1,0.8-0.1,1.2
	c0,0.3,0,0.5,0,0.8c-0.3,0.1-0.4,0.2-0.3,0.5h-0.1c-0.5-0.3-0.5,0.3-1,0.4c0.4,0.2,0.6,0.4,0.9,0.5C15.9,56.6,16.4,56.9,16.5,57.4z
	 M33.8,54L33.8,54L33.8,54L33.8,54z M43.9,64.1L43.9,64.1L43.9,64.1L43.9,64.1z M41.2,38.4c0,0.1,0,0.1,0.1,0.2c0,0.1,0,0.2,0,0.3
	l0,0C41.2,38.7,41.2,38.5,41.2,38.4z M42,25.2C42.1,25.2,42.1,25.2,42,25.2C42.1,25.2,42.1,25.2,42,25.2L42,25.2z M41.1,22L41.1,22
	C41.2,22,41.2,22,41.1,22C41.2,22,41.2,22,41.1,22C41.2,22,41.2,22,41.1,22z M39.7,33.7L39.7,33.7L39.7,33.7L39.7,33.7z M38.3,25.2
	L38.3,25.2L38.3,25.2L38.3,25.2z M37.7,26.1L37.7,26.1L37.7,26.1L37.7,26.1z M16.5,30.3L16.5,30.3L16.5,30.3L16.5,30.3z M15.9,53.5
	c-0.2,0.1-0.6,0.1-0.2,0.5C15.9,53.8,16,53.7,15.9,53.5z M42.2,15.5c0,0.1,0,0.1,0,0.2h0.1C42.3,15.6,42.3,15.6,42.2,15.5z
	 M40.5,48.2c0,0.1,0,0.2,0.1,0.2c0.2,0,0.3-0.1,0.3-0.3c0-0.1-0.1-0.2-0.2-0.2C40.7,48,40.6,48.1,40.5,48.2z M32.3,59.3
	c-0.3-0.3-0.6-0.2-0.9-0.2c0,0.3-0.1,0.6,0.1,0.9c0.1,0.2,0.2,0.2,0.4,0.2c0.2-0.1,0.2-0.2,0.1-0.4c-0.1-0.1-0.3-0.2-0.1-0.5
	C31.9,59.2,32.1,59.3,32.3,59.3z M22.6,51.3c0,0.3-0.1,0.5,0.1,0.8c0.3-0.2,0-0.5,0-0.8c0-0.1,0-0.3,0-0.4c0.1-0.1,0.1-0.1,0.2-0.2
	c0.2-0.3,0.1-0.5-0.2-0.6h-0.1C22.3,50.5,22.6,50.9,22.6,51.3z M22.7,53c0.1,0.1,0.1,0.1,0.2,0.2l0,0l0,0l0,0
	c0.1,0.1,0.1,0.1,0.2,0.2c0-0.1,0-0.1,0-0.2C23,53.1,23,53.1,22.9,53C22.8,53,22.7,53,22.7,53z M15.8,27.8c-0.2,0.3-0.4,0.6-0.1,1
	C15.6,28.5,16.1,28.2,15.8,27.8z M15.8,28.8L15.8,28.8L15.8,28.8L15.8,28.8z M15.9,48c0,0,0-0.1-0.1-0.1C15.9,48,15.9,48,15.9,48
	C15.9,48.1,15.9,48,15.9,48z M15.6,49c0.1,0,0.1,0,0.2,0C15.8,48.9,15.7,48.9,15.6,49z M16.1,44.3L16.1,44.3L16.1,44.3L16.1,44.3z
	 M16,46.2c0.1,0,0.1,0,0.2,0C16.1,46.1,16,46.1,16,46.2z M15.8,46.2c0.1,0.1,0.1,0.1,0.2,0C15.9,46.2,15.8,46.2,15.8,46.2z
	 M41.4,44.7L41.4,44.7L41.4,44.7L41.4,44.7z M41.4,44.7L41.4,44.7C41.4,44.7,41.3,44.7,41.4,44.7z M16.1,33L16.1,33L16.1,33L16.1,33
	z M25.9,34.5C25.9,34.4,25.9,34.4,25.9,34.5c0.2-0.2,0.4-0.2,0.4,0.1c0,0.2,0,0.3,0.2,0.4c0.1,0.2,0.2,0.4,0.2,0.6
	c0.1,0.7,0.7,1.3,0.6,2c-0.6,0.9-0.6,0.9,0.1,1.4c0,0.2,0,0.5,0,0.7c-0.2,0.3-0.3,0.5-0.5,0.8c-0.1,0.1-0.1,0.3,0.1,0.3l0,0l0,0
	c0.1,0.1,0.1,0.3,0.2,0.4c0,0.2,0,0.4-0.1,0.5c-0.1,0-0.1,0-0.1,0c-0.1,0-0.2,0-0.3,0c-0.2,0-0.3,0.1-0.3,0.3
	c-0.5,1.3-0.4,2.6,0.1,3.9c0.2,0.4,0.1,0.9,0.1,1.3c0,0.4,0,0.8-0.1,1.1c0.2,0.1,0.1,0.3,0.1,0.5c0,0.4,0.3,0.6,0.5,0.7
	c0.3,0.1,0.5-0.2,0.6-0.4c0.2-0.2,0.4-0.5,0.8-0.2l0,0c0.1,0.1,0.1,0.3,0.2,0.4c0.1,0.3,0.1,0.5,0.2,0.8c0.1,0.2,0.2,0.4,0.5,0.3
	c0.2,0,0.4-0.1,0.5-0.4c0.1-0.7,0.2-0.7,0.9-0.6c0-0.1,0-0.1,0-0.2h0.1H31c0.1,0,0.1-0.1,0.2-0.2c0-0.1,0-0.2,0-0.4
	c0-0.1,0-0.3,0-0.4c0.1,0,0.1,0,0.2,0c0.4-0.5,0.5-1,0.5-1.6c0-0.2,0-0.5,0-0.7v-0.1v-0.1l0,0l0,0l0,0c-0.1-0.4-0.4-0.8-0.1-1.2
	c0.3-0.3,0.3-0.8,0.5-1.1c0.6-1,0.5-2,0.3-3c0.1-0.5,0-0.8-0.3-1.2C32.1,39,32,38.8,32,38.6c-0.1-0.1-0.1-0.1-0.2-0.2l0,0
	c-0.1-0.2-0.2-0.4-0.4-0.6c-0.1-0.1-0.2-0.1-0.4-0.2c-0.1-0.1-0.1-0.1-0.2-0.2c-0.1-0.2-0.1-0.4-0.3-0.5c-0.8-0.4-1.1-1.3-1.7-1.9
	c-0.2-0.2,0.1-0.8-0.5-0.8c0-0.1,0.1-0.1,0.1-0.2c0-0.3,0-0.6,0-0.9c0.1-0.3,0-0.6-0.2-0.8c-0.1-0.2-0.1-0.3,0-0.5
	c0.3-0.5,1.6-0.8,2.2-0.5c1.1,0.5,2.3,0.2,3-0.6l0,0c0.1-0.1,0.1-0.1,0.2-0.2c1.1-0.8,1.1-1.4,0.1-2.3c-0.3-0.3-0.6-0.5-0.9-0.8
	c-1-0.9-2.1-1.6-3.3-2.1c-0.3,0-0.5,0-0.7-0.1c-0.2-0.2-0.4-0.4-0.3-0.8c0-0.1-0.1-0.2-0.3-0.2c-0.4,0.1-0.7-0.1-1,0
	c-0.2,0-0.3,0-0.5-0.1C25.9,24,25.9,24,26,24.7c0,0.1,0,0.1,0.1,0.2c0.3,0.5,0.7,1,0.7,1.6s-0.1,1.1-0.2,1.7
	c-0.7,0.6-0.8,1.4-0.7,2.3c-0.7,0.1-0.8,0.1-1,0.9c0,0.2,0,0.4-0.1,0.6c-0.2,0.2-0.2,0.4,0,0.6c0,0.4-0.1,0.8-0.1,1.2
	c-0.1,0.1-0.1,0.3,0,0.4c0,0.2,0,0.4,0,0.6c0,0.2-0.1,0.4,0.2,0.6c0-0.2,0-0.4,0-0.5l0,0H25c0,0,0,0,0-0.1c0.1,0.2,0.4,0.3,0.6,0.3
	C25.9,34.8,25.8,34.6,25.9,34.5z M24.2,20.7L24.2,20.7L24.2,20.7L24.2,20.7z M23.8,20.9l0.1,0.1c0.1,0,0.2,0,0.3-0.2
	c0-0.1,0-0.1,0-0.2c-0.1,0-0.1,0-0.2,0C23.9,20.7,23.8,20.7,23.8,20.9z M36.6,23.3c0-0.1-0.1-0.2-0.3-0.2s-0.2,0.2-0.3,0.3
	c0,0.2,0.1,0.2,0.3,0.2C36.5,23.6,36.6,23.5,36.6,23.3z M29.6,34.6c0,0.1,0,0.2,0.1,0.2c0.2,0,0.4-0.2,0.5-0.4
	c0-0.1-0.1-0.2-0.2-0.2C29.9,34.3,29.7,34.4,29.6,34.6z M36,35.5L36,35.5v0.2V35.5C36.1,35.5,36,35.5,36,35.5z M19.5,188.9
	c-0.2,0.2-0.4,0.3-0.5,0.6c-0.1,0-0.1,0-0.2,0c0.1,0.3,0.3,0.5,0.7,0.5c0.4,0,0.4-0.3,0.4-0.6v-0.1c0.1,0,0.1-0.1,0.1-0.2
	c-0.1,0-0.2,0-0.3,0.2l0,0C19.7,189.2,19.6,189.1,19.5,188.9z M14.9,190c0.1,0,0.2,0,0.3-0.2C15.1,189.9,15,189.9,14.9,190z
	 M21.1,188.8c0.1,0,0.1-0.1,0.2-0.1C21.1,188.6,21.1,188.7,21.1,188.8z M25.3,82.3L25.3,82.3C25,83,25,83.2,25.5,83.5
	c0.1-0.1,0.1-0.1,0.2-0.2c0-0.1,0-0.1,0-0.2c-0.1-0.1-0.1-0.1-0.2-0.2c0-0.1,0-0.3,0-0.4C25.4,82.5,25.4,82.4,25.3,82.3z M26,85.6
	c0.1,0.2,0.2,0.3,0.3,0.5c0.1,0.2,0.1,0.4,0,0.6c-0.1,0.1,0,0.4,0.1,0.4c0.8,0.1,0.7,0.6,0.6,1.1c0,0.2,0.1,0.4,0.2,0.6
	c0.2,0.3,0.3,0.7,0.1,1c-0.1,0.2-0.1,0.4,0,0.7c0,0.1,0.1,0.2,0,0.3v0.1c0,0.1-0.1,0.2-0.2,0.2l0,0l0,0c-0.1,0.1-0.2,0.1-0.3,0.2
	c-0.1,0-0.1,0.1-0.2,0.2c0,0-0.1,0.1-0.1,0.2c-0.6,0.5-0.6,0.5-0.3,0.7c0.4,0.4,0.6,0.4,1-0.2c0-0.1,0.1-0.1,0.1-0.1h0.1
	c0.1,0,0.2,0,0.2,0c0.1,0,0.2,0,0.3,0c0.1,0,0.2,0,0.2-0.1c0.1,0,0.2-0.1,0.2-0.1c0.6-0.2,1.2,0,1.7,0.3c0.1,0.1,0.2,0.2,0.3,0.3
	c0,0,0,0,0,0.1c-0.1,1.1,0.4,1.9,1,2.7c0,0,0.1,0,0.1,0.1c0,0.3,0.2,0.6,0.4,0.9c0.3,0.3,0.5,0.7,1,0.6c0.2-0.2,0.2-0.4,0.2-0.7
	c0.1-0.2,0.1-0.5,0.1-0.7c0.1-0.1,0.1-0.2,0.2-0.3c0.1-0.2,0.2-0.4,0.2-0.6c0-0.1,0-0.1,0-0.2c0.2-0.3,0.4-0.7,0.1-1.1
	c-0.2-0.2-0.2-0.5-0.2-0.7c0.1-0.4,0-0.8-0.2-1.1v-0.1c0-0.1,0.1-0.2,0.1-0.3c0.1-0.2,0.2-0.3,0.3-0.5c0.3-0.6,0.2-1.3,0.1-2
	c-0.1-0.1-0.1-0.2-0.2-0.3c0-0.1,0-0.2,0-0.3l0,0c0-0.1-0.1-0.1-0.2-0.2v-0.1c-0.1-1,0.8-1.7,0.9-2.7c0-0.5,0.1-0.9-0.5-1.1
	c0,0-0.1,0-0.1-0.1v-0.1c-0.4-0.3-0.7-0.7-1.3-0.6c-0.5-0.3-1.2-0.3-1.4-1c-0.7-0.4-1.4-0.8-2.2-0.9c-0.5-0.1-1.1-0.4-1.6-0.6
	s-1-0.4-1.6-0.1c0,0.4-0.2,0.8-0.1,1.1c0.3,0.8,0.1,1.6,0.1,2.3C26.2,84.8,25.6,85.2,26,85.6z M27.8,80.2c0-0.2,0-0.3-0.2-0.4
	C27.6,79.9,27.6,80.1,27.8,80.2z M13.9,106.9L13.9,106.9c0.1,0,0.1,0,0.2,0c0.1,0.1,0.1,0.1,0.2,0.2l0,0c0.3,0.3,0.5,0.3,0.8,0
	c0.2-0.1,0.2-0.2,0.2-0.4c0.1-0.2,0.3-0.5,0.6-0.4c0.3,0.1,0.3,0.4,0.4,0.7c0,0.3,0,0.7,0,1c0,0.5,0,0.9,0.4,1.3
	c0.1,0.2,0,0.3-0.2,0.4s-0.2,0.2-0.2,0.4c0.1,0.3,0.1,0.7,0.1,1c0,0.9,0.2,1.9-0.1,2.8c0.1,0.1,0.2,0.1,0.4,0.1
	c-0.2,0.5-0.2,1,0.2,1.5c0.2,0.2,0.2,0.5,0,0.8s-0.4,0.7-0.2,1.1c-0.1,0.2,0,0.4-0.2,0.6c0.2,0.4,0.6,0.7,0.8,1.2
	c0.1,0.5,0.1,0.9,0.2,1.4c-0.1-0.1-0.2-0.1-0.3-0.2c-0.2,0.5-0.7,0.8-0.7,1.4c-0.1,0.1-0.3,0.1-0.3,0.3l0,0c0,0.1,0,0.1,0,0.2
	c-0.1,0.1-0.1,0.2,0,0.4c0,0.2,0,0.4,0,0.6c-0.2,0-0.4,0.1-0.3,0.4c0.1,0.2,0.1,0.3-0.1,0.4c0-0.1-0.1-0.2-0.2-0.2
	c-0.1,0.2,0,0.3,0.2,0.4c-0.1,0.3,0,0.5,0.2,0.7c0.3-0.2,0.7,0.1,1,0c0.1,0,0.1,0,0.2,0c0,0.1,0,0.1,0,0.2c-0.3,0.3-0.3,0.5,0,0.8
	c0,0.1,0,0.2,0,0.4c-0.1,0-0.3,0-0.4,0l0,0c-0.1-0.1-0.3-0.1-0.4-0.1c-0.4,0-1,0.1-1,0.3c0,0.4,0.5,0.3,0.8,0.6
	c0.1,0.1,0.2,0.1,0.3,0.2c-0.3,0.2-0.3,0.4,0,0.6c0.1,0.1,0.2,0.2,0.2,0.4c0.1,0.2,0.2,0.3,0.2,0.5c0,0.1,0,0.2,0,0.3
	c0.2,0.2,0.3,0.5,0.4,0.7c0.1,0.3,0.3,0.5,0.7,0.5c0.3,0,0.6,0.3,0.7-0.1c0.1-0.4,0.4-0.4,0.7-0.4c0.2,0,0.5,0.1,0.6-0.2
	c0.2-0.1,0.3-0.2,0.5,0c0.3,0.3,0.6,0.3,0.9,0.1c0.4-0.3,0-0.6-0.1-0.9c0-0.5-0.3-0.9-0.2-1.5c0-0.2-0.2-0.4-0.3-0.6
	c0.1-0.4,0.1-0.7-0.3-0.9c-0.1-0.1-0.3-0.3-0.2-0.4c0.6-0.3,0.3-0.8,0.3-1.3l0,0c0.3-0.9,0.3-0.9-0.6-1.1c0-0.1-0.1-0.3-0.2-0.4l0,0
	l0,0l0,0l0,0l0,0h-0.1l0,0l0,0c0-0.3,0.3-0.3,0.4-0.6c0.3,0,0.3-0.2,0.2-0.4c0.1,0,0.2-0.1,0.2-0.2l0,0c0.4-0.4,0.1-0.9,0.3-1.4
	c0.1,0,0.1,0,0.2,0c0-0.1,0-0.1,0-0.2c0.2-0.1,0.2-0.3,0.2-0.5c0.2-0.7-0.2-1.2-0.3-1.9c0.1-0.1,0.1-0.2,0.2-0.2l0,0l0,0
	c0-0.3,0-0.6,0.1-1c0,0,0.1,0,0.1-0.1c0.3-0.1,0.3-0.2,0-0.4l0,0c0-0.1,0-0.2,0-0.2c-0.1-0.8,0.4-1.4,0.3-2.2
	c0.6-1.3,0.8-2.6,0.3-3.9l0,0c0.5,0,0.6-0.3,0.7-0.7l0.1-0.1c0.4-0.6,0-0.8-0.4-1.1c-0.7-0.5-1.5-0.9-2.4-1.2c0.2,0,0.4,0,0.6,0
	c-0.2-0.3-0.5-0.2-0.8-0.2c-0.1,0-0.3,0-0.4,0c-0.5-0.2-1-0.5-1.5-0.7c-0.2-0.1-0.5-0.3-0.6,0.1c-0.1-0.1-0.2-0.2-0.2-0.4h0.1
	c0.2-0.1,0.3-0.2,0.4-0.4v-0.1c0.1-0.1,0.1-0.1,0.2-0.2s0.1-0.1,0.2-0.2s0.1-0.1,0.2-0.2l0,0c-0.3-0.4-0.3-0.6-0.3-1h0.1
	c0,0.1,0.1,0.1,0.1,0.2c0.7,0.1,1.2-0.4,1.3-1.4h0.1c0.1-0.1,0.1-0.2,0.2-0.4c0,0,0,0,0.1,0c0.5-0.2,0.5-0.6,0.6-1c0,0,0,0,0.1,0.1
	c0.9-0.5,1.1-1.5,2-2c0.1-0.2,0.2-0.3,0.4-0.4v-0.1c0.1,0,0.2-0.1,0.2-0.1s0,0,0.1-0.1c0.3-0.1,0.5-0.3,0.5-0.7c0,0,0,0,0.1-0.1
	s0.1-0.1,0.2-0.2c0,0,0,0,0.1,0s0.1-0.1,0.2-0.1h0.1c0-0.5,0.5-0.7,0.8-0.9c0.1,0,0.1,0,0.2-0.1c0.1,0,0.2-0.1,0.2-0.2
	c0,0,0-0.1,0.1-0.1c0.4-0.1,0.6-0.5,0.8-0.9c-0.4-0.1-0.6,0.2-0.8,0.4c-0.2-0.1-0.3-0.3-0.7-0.4c0.2,0.8-0.3,0.6-0.7,0.5
	c-0.2,0-0.3-0.1-0.4-0.2c0.2,0,0.4,0,0.6,0c0.2-0.4,0.2-0.7-0.2-1l0,0c-0.3,0.2-0.2,0.6-0.4,0.8c-0.1,0-0.1,0-0.2,0
	c-0.1,0.1-0.1,0.1-0.2,0.2c0,0.1,0,0.1,0,0.2c0.1,0.4,0.3,0.8,0.2,1.2c-0.1,0.1-0.3,0.1-0.4,0.2c-0.3,0-0.6,0.1-0.6,0.4
	c0,0.4-0.7,0.1-0.6,0.6c0,0.1-0.1,0.2-0.1,0.3l0,0l0,0h-0.1l0,0c-0.2,0.1-0.3,0.2-0.4,0.4l0,0c-0.1,0-0.2,0.1-0.2,0.2
	c-0.5,0.1-0.9,0.6-1.4,0.5l0,0c-0.4,0.3-0.9,0.4-0.8,1l0,0l0,0l0,0c-0.1,0.1-0.1,0.1-0.2,0.2l0,0c0.3,0.6-0.3,0.9-0.4,1.4
	c-0.2,0.1-0.2,0.3,0,0.4l0,0c0,0.1,0,0.3,0,0.4c-0.1,0-0.1,0-0.2,0c-0.1,0.1-0.1,0.1-0.2,0.2l0,0c-0.3,0-0.6-0.1-0.8,0.2
	c-0.1,0.1-0.2,0.2-0.4,0.2c-0.1,0-0.1,0-0.2,0c0,0.2,0,0.4,0,0.6l0,0c-0.3-0.1-0.4,0-0.6,0.2c-0.1,0-0.1,0-0.2,0c0,0.1,0,0.1,0,0.2
	s0,0.1,0,0.2c-0.1,0.1-0.1,0.1-0.2,0.2c-0.1,0-0.1,0-0.2,0c-0.4,0.2-0.4,0.5-0.3,0.8c0.2,0.3,0.1,0.7,0.2,1c-0.3,0.2-0.7,0.3-1,0.5
	c-0.1,0-0.3,0-0.4,0c-0.1,0-0.2,0-0.4,0c-0.1,0-0.1,0.1-0.2,0.2l0,0C13,107.3,13.5,107.1,13.9,106.9z M16.7,122.3L16.7,122.3
	L16.7,122.3L16.7,122.3L16.7,122.3L16.7,122.3z M19.9,120.1L19.9,120.1L19.9,120.1L19.9,120.1z M19.6,106.2
	C19.6,106.3,19.6,106.3,19.6,106.2C19.6,106.3,19.6,106.3,19.6,106.2C19.6,106.3,19.6,106.3,19.6,106.2z M19.3,121.6L19.3,121.6
	L19.3,121.6L19.3,121.6L19.3,121.6L19.3,121.6L19.3,121.6L19.3,121.6L19.3,121.6z M23.3,96.7L23.3,96.7L23.3,96.7L23.3,96.7z
	 M20.8,98.3L20.8,98.3L20.8,98.3L20.8,98.3z M18.6,100C18.6,100.1,18.6,100.1,18.6,100C18.6,100.1,18.6,100.1,18.6,100
	C18.6,100.1,18.6,100.1,18.6,100L18.6,100C18.6,100.1,18.6,100,18.6,100z M17,104C17,104,17,104.1,17,104C17,104.1,17,104,17,104
	L17,104z M16.5,103.8C16.5,103.8,16.4,103.8,16.5,103.8c-0.2,0-0.3,0.1-0.4,0.3c-0.3-0.1-0.1-0.4-0.2-0.5
	C16.1,103.6,16.5,103.4,16.5,103.8z M6.7,117.5c0.1-0.1,0.1-0.2,0.1-0.3v-0.1c0.1,0,0.1-0.1,0.2-0.1c0,0,0.1,0.1,0.2,0
	c0.3-0.4,0.8-0.7,0.6-1.2h0.1l0,0c0.1-0.1,0.1-0.1,0.2-0.2c0.3-0.3,0.9-0.3,1-0.8c0-0.5,0.4-0.7,0.5-1.1c0.1-0.1,0.3-0.3,0.4-0.4
	c0.4-0.4,0.8-0.7,1-1.2l0,0c0.3-0.4,0.2-1.1,0.8-1.2c0.1-0.1,0.1-0.1,0.2-0.2c0.3-0.1,0-0.6,0.3-0.6c0.4,0,0.6-0.4,0.9-0.6
	c0.1,0,0.1,0,0.2,0c0-0.1,0-0.1,0-0.2l0,0l0,0c0-0.4,0.4-0.7,0.6-1c-0.5-0.9-0.6-0.9-1.3-0.2c0,0-0.1,0.1-0.1,0.2
	c-0.1,0-0.1,0-0.2,0c0,0,0,0,0,0.1l0,0l0,0c-0.1-0.1-0.2-0.1-0.2,0l0,0l0,0c0,0,0,0,0-0.1c-0.1,0.1-0.1,0.1-0.2,0.2
	c-0.2,0.2-0.2,0.4-0.1,0.6c0.2,0.4,0.5-0.1,0.8,0.1c-0.5,0.6-0.9,0.2-1.4,0.1c-0.3,0.1-0.7,0.1-0.6,0.6c0,0.2,0.2,0.5,0,0.5
	c-0.6-0.2-1.1,0.5-1.7,0.3c-0.2,0.2-0.1,0.3,0.1,0.4c0.3,0.1,0.7,0.3,0.4,0.8l0,0l0,0l0,0c-0.2,0-0.3,0.1-0.4,0.2
	c-0.4,0-0.8-0.2-1.2,0.2c-0.1,0.1-0.1,0.1-0.2,0.2s-0.3,0.1-0.4,0.2c-0.2,0.1-0.3,0.2-0.4,0.4l0,0c0,0.1,0,0.1,0,0.2l0,0l0,0l0,0
	c-0.5,0.1-0.5,0.4-0.3,0.7c0.1,0.2,0.4,0.3,0.4,0.5l0,0l0,0l0,0c-0.1,0.1-0.1,0.1-0.2,0.2c0,0.1,0,0.1,0,0.2
	c-0.1,0.1-0.2,0.1-0.4,0.2c-0.2,0.2-0.6,0.2-0.7,0.5c-0.1,0.1-0.1,0.1-0.2,0.2c-0.2,0.1-0.2,0.4-0.2,0.6c-0.3,0.1-0.6,0.3-0.7,0.6
	l0,0l0,0c-0.1,0.1-0.1,0.1-0.2,0.2c-0.5-0.1-0.8,0.2-1,0.6l0.1,0.1l0,0l0,0c0,0,0,0-0.1-0.1c-0.5,0.9-0.6,0.9-1.6,0.5
	c-0.2-0.1-0.4-0.1-0.4,0c-0.2,0.7-0.7,0.1-1,0.1c0.1,0.4,0.2,0.6,0.3,0.9c0,0.1,0,0.1,0,0.2s0,0.1,0,0.2c-0.1,0-0.3,0-0.4,0
	c0,0.1,0,0.1,0,0.2l0,0c-0.2,0.2-0.2,0.4-0.2,0.6c-0.2,0.2-0.2,0.3,0,0.5l0,0c0,0.1,0,0.3-0.2,0.4c0,0.1,0,0.1,0,0.2s0,0.1,0,0.2
	c0.1,0,0.1,0,0.2,0l0,0c0.1,0.1,0.1,0.1,0.2,0.2l0,0c0.1,0.1,0.1,0.1,0.2,0.2c0.1,0.2,0.2,0.3,0.3,0.5c0.3,0.4,0.5,0.3,0.7-0.1
	c0.2-0.2,0.3-0.5,0.6-0.5c0.5,0,1,0.2,1.3-0.1c0.4-0.4,0.9-0.9,0.9-1.5c0-0.4,0.3-0.6,0.6-0.8c0.3-0.2,0.7-0.4,0.7-0.9l0,0l0,0
	c0.1-0.1,0.3-0.1,0.4-0.2c0-0.1,0-0.2,0-0.4h0.1C6.4,117.8,6.6,117.7,6.7,117.5z M8.5,113.8L8.5,113.8L8.5,113.8L8.5,113.8
	L8.5,113.8z M8.5,113.8L8.5,113.8L8.5,113.8L8.5,113.8z M8,113.2L8,113.2C7.9,113.2,7.9,113.2,8,113.2C7.9,113.2,7.9,113.2,8,113.2z
	 M2.5,119.7L2.5,119.7L2.5,119.7L2.5,119.7z M3.5,118.9L3.5,118.9L3.5,118.9L3.5,118.9L3.5,118.9L3.5,118.9z M40.6,99.7
	c-0.9,0.2-1.8,0.6-2.7,0.5c-0.6,0.1-1.3,0.1-2,0.2c-0.5,0.1-0.9,0-1.3-0.4c0-0.1-0.1-0.1-0.2-0.1c0-0.1,0-0.1,0-0.2
	c0.7-0.4,1.2-0.9,1.1-1.8c0.1-0.1,0.2-0.2,0.2-0.4c0.6-0.4,1.3-0.7,2-1c0.1,0,0.2-0.1,0.2-0.2l0,0c0.1,0,0.3,0,0.4,0
	c0-0.1,0.1-0.3,0.2-0.4c0-0.1,0-0.1,0-0.2c0.1-0.2,0.3-0.4,0.4-0.6c0.3-0.3,0.1-0.9,0.6-1c0.1-0.1,0.3-0.3,0.4-0.4
	c0.5-0.2,0.5-0.8,0.6-1.2c0.4-0.2,0.9-0.1,1.2-0.4c0.2-0.3,0.3-0.6,0.6-0.8c0.4-0.4,0.7-0.8,0.5-1.3c-0.2-0.4-0.2-1-0.6-1.3
	c-0.8-0.6-1.4-1.3-2.3-1.7c-1.1-0.6-2.1-1.4-3.2-2c-0.2-0.1-0.4-0.4-0.7-0.1c-0.2,0.2-0.2,0.5,0,0.7c0.1,0.1,0.2,0.3,0.2,0.5
	c0.3,0.6,0.8,1,1.1,1.5c0.4,0.6,0.3,1.2,0,1.7c-0.3,0.4-0.5,0.7-0.4,1.3c0.1,0.3-0.2,0.5-0.3,0.7c-0.1,0.1-0.2,0.2-0.2,0.3l0,0
	c-0.2,0.1-0.2,0.2-0.2,0.4l0,0c-0.1,0.1-0.1,0.1-0.2,0.2l0,0c-0.1,0-0.2,0.1-0.2,0.2l0,0c-0.1,0-0.1,0-0.2,0
	c-0.1,0.1-0.2,0.1-0.2,0.2c-0.1,0.1-0.3,0.1-0.4,0.2l0,0c-0.6-0.3-0.6,0.1-0.6,0.6l0.1,0.1c-0.1,0.1-0.1,0.2-0.2,0.3
	c-0.1,0.1-0.3,0.2-0.2,0.4c0.1,0.2,0.3,0.1,0.4,0c0.2-0.1,0.4-0.1,0.6-0.1c0,0.2,0,0.4,0,0.6l0,0c-0.1,0-0.2,0.1-0.2,0.2l0,0
	c-0.1,0.1-0.2,0.2-0.2,0.4c0,0.1,0.1,0.1,0.2,0H35h0.1c0,0.1,0.1,0.2,0.2,0.2c0,0.1,0.1,0.2,0.2,0.2c0,0.1,0,0.1-0.1,0.2
	c0,0,0,0,0,0.1h-0.1c-0.2-0.1-0.3-0.1-0.5-0.2s-0.4,0.1-0.5,0.2c0,0.1,0,0.1-0.1,0.2s-0.1,0.2-0.2,0.3l0,0c-0.1,0-0.1,0.1-0.2,0.1
	c0,0.1,0.2,0.3,0.1,0.4c-0.1,0.1-0.2,0-0.3,0c-0.3,0.3-0.1,0.7,0,1c0,0.1,0.1,0.1,0.1,0.2c-0.1,0-0.2,0.1-0.3,0.2
	C32.9,98.7,33,98.2,33,98c0.2-0.1,0.2-0.2,0.2-0.4c-0.1,0-0.3,0-0.4,0l0,0l0,0c-0.3,0.1-0.8-0.1-1,0.4c0.1,0.2,0.2,0.3,0.1,0.6
	c-0.1,0-0.1,0-0.2,0c-0.6,0.2-0.2,0.4,0,0.6l0,0c0.2,0.7-0.4,0.8-0.8,0.9c-0.2,0.2-0.4,0.4-0.6,0.6c-0.2,0.1-0.6,0.3-0.4,0.5
	c0.3,0.4,0.4,1,0.5,1.4c0,0-0.1,0.1-0.2,0.1c-0.3-0.3-0.6-0.4-1-0.2c-0.3,0.3-0.6,0.7-0.8,1c-0.5,0-0.8,0.1-0.8,0.6
	c0.1,0.2,0.2,0.4,0.4,0.5c-0.1,0.2-0.3,0.4-0.6,0.4l-0.1,0.1c0,0,0,0,0-0.1h0.1c-0.1-0.2-0.2-0.4-0.2-0.6c-0.1-0.3-0.3-0.4-0.6-0.4
	c-0.1-0.1-0.1-0.1-0.2-0.2c-0.1,0-0.1,0-0.2,0c-0.3-0.1-0.4-0.1-0.7,0.3l-0.1,0.1v0.1c-0.2,0.2-0.2,0.4-0.2,0.6
	c-0.1,0.1-0.2,0.2-0.3,0.4c-0.2,0.1-0.2,0.3,0,0.4c0.2,0.2,0,0.4,0.1,0.6c-0.1,0.1-0.1,0.1-0.2,0.2c-0.1,0-0.1,0-0.2,0
	c-0.8-0.1-0.8,0-0.7,0.6c0,0,0,0.1,0,0.2s0.1,0.2,0.2,0.3l0,0c0.1,0.1,0.1,0.3,0.2,0.4c-0.1,0-0.1,0-0.2,0c0,0.2,0,0.3,0.2,0.4
	c0.2,0.2,0.4,0.3,0.6,0.5c0.1,0.1,0.1,0.1,0.2,0.2c-0.2,0.5,0,0.9,0.2,1.3c0.1,0.3,0.3,0.7,0.7,0.6c0.4,0,0.9-0.1,1-0.7
	c0.2-0.3,0.7,0.1,0.9-0.3l0,0c0.1-0.1,0.2-0.2,0.2-0.2c0.1,0,0.2,0,0.4,0c0.2,0,0.4,0,0.6,0c0,0,0-0.1,0.1-0.1
	c0.1-0.1,0.1-0.1,0.2-0.2c0-0.1,0-0.1,0-0.2c0-0.2,0-0.4,0.1-0.6c0.4-0.4,0.3-0.7-0.2-1c0.6-0.1,1.1,0,1.2-0.6
	c-0.4,0.3-0.9,0.5-1.4,0.3l0,0l0,0l0,0l0,0l0,0c0.1-0.2,0.4-0.1,0.5-0.3c0.2-0.2,0.1-0.6,0.2-0.8c0-0.1,0-0.1,0-0.2l0.1-0.1
	c0.1,0.1,0.1,0,0-0.1c-0.2-0.1-0.3-0.1-0.4,0.1c0-0.1-0.1-0.3-0.2-0.4l0,0l0,0c0.1,0,0.1-0.1,0.1-0.2l0,0c0,0,0,0.1,0.1,0.1
	c0.1,0.1,0.3,0.1,0.5,0c0.1,0,0.1-0.1,0.1-0.1h0.1l0,0l0.1,0.1c0.5-0.1,0.6-0.5,0.8-0.8v-0.1c0.1-0.1,0.1-0.1,0.2-0.2
	c0,0-0.1,0-0.1-0.1l0,0c0,0,0.1,0,0.1,0.1h0.1l0,0c0.2-0.4,0.8-0.6,0.8-0.9c0-0.6,0.5-0.8,0.8-1.1c0.1,0,0.1,0,0.2,0
	c0.1-0.2,0.3-0.2,0.4-0.2c0.2,0.3,0.4,0.5,0.7,0.7c0.1,0.1,0.2,0.2,0.3,0.4c0.4,0.3,0.8,0,1.1-0.1c1.7-0.5,3.3-1.3,5.1-1.3
	c0.5,0,0.7,0.1,0.5,0.6s-0.5,1-0.8,1.5c0.3,0.9,0.5,1.1,1.3,0.7c0.3-0.1,0.5-0.3,0.7-0.5v-0.1c0,0.1,0,0.1,0,0.2
	c-0.1,0.2,0,0.3,0.2,0.3c-0.4,0.8-1,1.4-1.5,2.1c-0.1,0.2-0.1,0.3-0.1,0.5l0,0c0.4,0.3,0.7,0.3,1.1,0.1c0,0,0.1,0,0.1-0.1l0,0
	c0.1-0.1,0.2-0.1,0.2-0.2l0,0c0.2-0.2,0.2-0.4,0-0.6c0.5-0.8,1-1.1,1.7-1.1c0.5,0,0.9,0.1,1.4,0.2l0,0c0.2,0,0.5,0.1,0.7,0.1
	c0.3,0,0.5,0,0.7-0.2c0.3,0,0.6,0.1,0.8,0.3c0.1,0.1,0.3,0.1,0.4,0c0-0.1,0.1-0.3,0.1-0.4c0.1,0,0.2,0,0.3,0c0-0.1,0.1-0.1,0.1-0.2
	c0.3-0.1,0.6-0.2,0.8-0.5c0.1,0,0.1,0,0.2,0c0.7-0.2,0.8-0.9,1.2-1.3c0-0.4,0.5-0.9-0.5-0.9c-0.2,0-0.2-0.4-0.1-0.6
	c-0.4-0.6-0.9-1-1.5-1.3c-1.3-0.7-2.9-0.6-4.3-1c-0.2-0.1-0.3,0.1-0.4,0.3C43.1,99.6,41.8,99.4,40.6,99.7z M36.9,91.7L36.9,91.7
	L36.9,91.7L36.9,91.7L36.9,91.7L36.9,91.7L36.9,91.7L36.9,91.7L36.9,91.7z M25,106.9L25,106.9C25,106.8,25,106.8,25,106.9L25,106.9z
	 M27.9,109.7L27.9,109.7C27.9,109.8,27.9,109.8,27.9,109.7C27.9,109.8,27.9,109.8,27.9,109.7z M30.8,103.3
	C30.8,103.2,30.8,103.2,30.8,103.3C30.8,103.2,30.8,103.2,30.8,103.3C30.9,103.3,30.8,103.3,30.8,103.3z M32.6,100.7L32.6,100.7
	L32.6,100.7C32.6,100.6,32.6,100.7,32.6,100.7L32.6,100.7z M33.6,99C33.6,99.1,33.6,99.1,33.6,99C33.6,99.1,33.6,99,33.6,99L33.6,99
	L33.6,99L33.6,99L33.6,99z M49.2,103.9C49.2,104,49.2,104,49.2,103.9C49.2,104,49.2,104,49.2,103.9C49.2,104,49.2,104,49.2,103.9z
	 M51.1,102.8C51.1,102.8,51,102.8,51.1,102.8C51,102.8,51,102.8,51.1,102.8L51.1,102.8z M25.8,85.8c0-0.1,0-0.1,0-0.2
	c0,0-0.1,0-0.1,0.1C25.8,85.7,25.8,85.7,25.8,85.8z M33.7,91.2c0.2-0.1,0.2-0.4,0.2-0.6C33.7,90.8,33.7,91,33.7,91.2z M68.5,131.3
	c-0.2-0.2-0.4-0.3-0.6-0.5c0-0.1-0.1-0.1-0.1-0.2c-0.1-0.1-0.2-0.2-0.3-0.3c-0.8-0.7-1.8-0.9-2.6-1.6c0,0,0,0,0-0.1
	c-0.3,0-0.6,0.1-0.8-0.2l0,0c-0.1-0.1-0.1-0.1-0.2-0.2l0,0c-0.2,0-0.4-0.1-0.6-0.1c-0.1-0.1-0.2-0.2-0.4-0.2c-0.1,0-0.2,0-0.3,0l0,0
	c-0.2-0.2-0.5-0.1-0.7-0.3c-0.1,0-0.3,0-0.4,0c-0.3-0.2-0.7-0.3-1-0.4c-1.3-0.4-2.7-0.5-4-1.1c-0.4,0-0.9-0.1-1.3-0.1
	c-0.3,0-0.4-0.1-0.5-0.4c-0.1,0-0.1,0-0.2,0c-0.3,0-0.7,0-1,0c-0.5,0-1-0.5-1.5-0.2c-0.5-0.3-0.9-0.6-1.5-0.2
	c-0.4,0.3-0.5-0.2-0.7-0.4c-0.2-0.4-0.6-0.4-1-0.4c-0.5,0-1.1-0.1-1.5-0.3c-0.4-0.2-0.7-0.3-1.1-0.3c-0.1,0-0.1,0-0.2,0
	c-0.3-0.3-0.7-0.3-1-0.6c-0.3-0.3-0.8-0.5-1.2-0.4c-0.1,0-0.1,0-0.2,0c-0.1-0.2-0.3-0.4-0.6-0.4l0,0c0-0.1-0.1-0.2-0.2-0.2
	c0-0.1-0.1-0.2-0.2-0.2c-0.3-0.1-0.7-0.2-1-0.3c0,0-0.1,0-0.1,0.1c-0.2,0.2-0.4,0.5-0.4,0.9c0,0.2,0.2,0.3,0.3,0.4
	c-0.1,0-0.2,0.1-0.3,0.2l0,0l0,0l0,0c0,0-0.1,0-0.1-0.1c-0.5,0.2-0.5,0.3-0.2,0.5c0.1,0.1,0.3,0.3,0.5,0.2c0.1,0,0.2-0.1,0.3,0
	c0,0,0,0,0.1,0h0.1c0,0,0.1,0,0.1,0.1c0.2,0.5,0.6,0.5,1,0.5c0.1,0,0.2,0.1,0.3,0.1c0,0,0,0,0.1,0c0,0,0,0,0.1,0.1
	c0.2,0.4,0.5,0.6,0.8,0.7c0.2,0.1,0.3,0.3,0.5,0.4c0.7,0.3,1.3,0.9,2.2,0.7l0,0c0.1,0.1,0.1,0.2,0.3,0.3h0.1
	c0.2,0.2,0.6,0.4,0.7,0.7c0.1,0,0.2,0.1,0.3,0.1c0.1,0.1,0.1,0.1,0.2,0.2c0.7,0.5,1.4,1,1.9,1.6l0,0c0,0.2,0.2,0.4,0.5,0.3
	c0.1,0,0.2,0.1,0.2,0.1c-0.2,0.1-0.3,0.2-0.3,0.3c0.1,0.2,0.2,0.4,0.5,0.4s0.6-0.1,0.8-0.3c0.1,0.1,0.3,0.1,0.4,0.2
	c0.1,0.2,0.1,0.4,0.3,0.4c0.1,0,0.1-0.2,0.1-0.4c0.2,0.1,0.4,0.2,0.6,0.3c0.6,0.5,1.2,0.8,2,0.9c0.1,0,0.1,0,0.2,0c0,0,0,0,0.1,0
	c0.5,0.1,1,0.1,1.4-0.3c0.5-0.9,0.8-1,1.6-0.4l0,0l0,0c0.3,0.5,0.9,0.2,1.3,0.4c0.1,0,0.2,0.1,0.3,0.1c0.1,0.1,0.3,0,0.5,0
	c0.3,0,0.8-0.1,0.8,0.5c0.3,0.8,1.1,0.9,1.8,1.1c0.3,0.1,0.5-0.1,0.6-0.4c-0.1,0-0.1,0-0.2,0l0,0H64c0.2,0,0.3-0.1,0.5,0
	c0.9,0.8,2,0.7,3,0.7c1,0.1,1.9-0.4,2.2-1.1C69.5,132.1,68.9,131.8,68.5,131.3z M55.7,125.6c-0.4-0.3-0.7-0.4-1.1-0.5
	c0.1,0.1,0.1,0.3,0.2,0.4C55.1,125.6,55.4,125.9,55.7,125.6z M54.8,125.5L54.8,125.5L54.8,125.5L54.8,125.5L54.8,125.5z M20.5,130.3
	c0,0.1,0,0.3,0,0.4c0.1-0.1,0.1-0.1,0.2-0.2c0.2-0.1,0.2-0.2,0.2-0.4C20.7,130.2,20.5,129.9,20.5,130.3z M27.5,129
	c0.1,0.3,0.1,0.6,0.4,0.6c0.1,0,0.2-0.1,0.2-0.2C28.1,129.1,27.9,129.1,27.5,129z M30.4,128c0,0.1,0.1,0.2,0.1,0.3
	c0-0.1,0.1-0.2,0.1-0.2C30.5,128,30.5,128,30.4,128z M44.7,106.2C44.7,106.3,44.6,106.3,44.7,106.2c0,0.1,0,0.2,0,0.2
	c0.1,0.2,0.4,0.2,0.6,0.2c0-0.1,0-0.1,0-0.2c0.1-0.1,0.2-0.3,0.2-0.4c-0.1-0.2-0.2-0.3-0.4-0.4C45,105.9,44.9,106.1,44.7,106.2z
	 M43.6,109.4c0-0.2,0-0.3-0.2-0.4c-0.1,0.1-0.1,0.1-0.2,0.2C43.3,109.4,43.5,109.4,43.6,109.4z M41.7,105
	C41.6,105,41.6,105,41.7,105C41.7,105.1,41.7,105.1,41.7,105C41.7,105.1,41.7,105.1,41.7,105L41.7,105z M70.5,132.8
	c-0.1-0.1-0.1-0.1-0.2-0.2c0,0.1,0,0.1,0,0.2c0,0.1,0,0.3,0,0.4c0,0.2,0,0.3,0.2,0.4c0-0.1,0-0.3,0-0.4S70.5,133,70.5,132.8z
	 M70.3,132.6c-0.1-0.2-0.2-0.2-0.4-0.2C70,132.6,70.1,132.6,70.3,132.6z M70.5,133.8c0,0.1,0,0.1,0,0.2c0.1-0.1,0.1-0.1,0.2-0.2
	c-0.1-0.1-0.1-0.1-0.2-0.2C70.5,133.7,70.5,133.8,70.5,133.8z M20.6,106.3c0.1,0.2,0.4,0.2,0.6,0.2C21,106.4,20.9,106.2,20.6,106.3z
	 M20.7,122.4c0-0.2,0-0.4,0-0.6C20.5,122,20.5,122.2,20.7,122.4z M21.5,128.5c0-0.1,0-0.3,0-0.4C21.3,128.2,21.3,128.4,21.5,128.5z
	 M20.7,122.4c0,0.2,0,0.3,0.2,0.4C20.9,122.7,20.9,122.5,20.7,122.4z M15.7,125.2c0-0.1,0.1-0.2,0.1-0.3c0-0.1,0-0.1,0-0.2
	c-0.1,0-0.1,0.1-0.1,0.1C15.6,125,15.5,125.1,15.7,125.2z M15.8,124.7L15.8,124.7L15.8,124.7L15.8,124.7L15.8,124.7z M15.8,122.3
	c0-0.1-0.2-0.1-0.3-0.1c0,0.1,0,0.2,0,0.3C15.6,122.4,15.8,122.5,15.8,122.3z M42.6,125.4c0-0.2-0.1-0.2-0.2-0.2
	c-0.1,0-0.3,0-0.3,0.2c0,0.1,0.1,0.2,0.2,0.2C42.4,125.5,42.6,125.6,42.6,125.4z M43.8,107.7c-0.2,0.1-0.4,0.1-0.6,0.1
	c-0.3,0-0.4-0.2-0.4-0.4c0-0.1,0-0.1,0-0.2c-0.2,0-0.3,0-0.4,0.2l0,0c-0.4,0.1-0.9-0.2-1.2,0.2c-0.2,0.3-0.6-0.2-0.8,0.1
	c-0.1,0.1-0.2,0.2-0.2,0.2c-0.1,0-0.1,0-0.2,0c-0.1,0.1-0.3,0.1-0.4,0.2c0,0.2,0.1,0.4,0.1,0.7c-0.1,0.3,0.1,0.3,0.3,0.4
	c0.1,0.1,0.1,0.1,0.2,0.2c0,0.1,0,0.2,0,0.4c-0.2-0.1-0.3-0.2-0.5-0.3c0-0.1,0-0.1-0.1-0.2c-0.5-0.4-1.1-0.6-1.5-1.1
	c-0.1,0-0.2,0-0.3-0.1c-0.5-0.5-1.1-0.9-1.7-1.4c-0.4-0.3-0.9-0.2-1.1-0.7c-0.1-0.2-0.2-0.2-0.4-0.2l0,0c0-0.1,0-0.2,0-0.3
	c-0.1,0-0.1,0-0.2,0c-0.2-0.1-0.4-0.1-0.6-0.2c0-0.1-0.1-0.2-0.2-0.2c-0.1-0.1-0.1-0.1-0.2-0.2c0,0.1,0,0.1,0,0.2
	c-0.6-0.2-1-0.1-1.4,0.5c0,0,0,0.1-0.1,0.1c-0.2,0.2-0.5,0.4-0.4,0.8l0,0l0,0c0.2,0.4,0.4,0.9,0.7,1.3c0,0.1,0.1,0.1,0.1,0.2
	s0.1,0.1,0.2,0.2c0.1,0,0.3,0,0.1,0.2c0,0.1,0,0.1,0,0.2s0.1,0.1,0.1,0.2h0.1c-0.1,0.3-0.2,0.6-0.4,0.9c0,0.5-0.7,1,0,1.5
	c0.1,0,0.3,0.1,0.4,0.1c0.2,0,0.3,0.1,0.5,0.1c0.1,0,0.3,0,0.4,0c0.2,0,0.3-0.1,0.5-0.1c0.1,0,0.1,0,0.2-0.1c0.1,0,0.1,0,0.2,0h0.1
	c0.2,0.3,0.4,0.3,0.7,0.1c0,0.1-0.1,0.2-0.1,0.3h-0.1c-0.3-0.2-0.4,0-0.6,0.2c0,0.1,0,0.2,0,0.4c0.2,0.3,0.4,0.3,0.6,0l0,0l0,0
	c0.1-0.1,0.1-0.1,0.2-0.2c0.3,0.4-0.3,0.7,0,1.1c0,0-0.1,0.2-0.2,0.1c-0.6-0.2-0.4,0.3-0.5,0.6c-0.2,0.4-0.4,0.8-1,0.7
	c-0.1,0-0.1,0.2-0.2,0.3l0,0l0,0c-0.1,0.5-0.7,0.7-0.8,1.2c-0.1,0-0.2,0-0.3,0.1c-0.1,0,0.1,0.2-0.1,0.2c0,0,0,0-0.1,0
	c0-0.7-0.6-0.8-1.1-1c0-0.1,0-0.2-0.1-0.3c-0.1-0.4-0.3-0.6-0.7-0.6c-0.6-0.1-1.1-0.3-1.6-0.5c-0.3-0.1-0.5-0.1-0.8-0.2
	c-1,0-2,0-2.9-0.4c-0.5-0.2-1.1-0.5-1.7,0c-0.2,0.3-0.6,0.3-1,0.3c-0.2,0-0.3,0-0.5,0.2c0,0.3,0.1,0.5,0,0.8
	c-0.3,0.7-0.1,1.1,0.6,1.4c0.2,0.1,0.4,0.2,0.7,0.2c0.1,0.1,0.2,0.2,0.2,0.3c0.3,0.6,0.3,0.6,1.1,0.3c0.1-0.1,0.2-0.1,0.3-0.2
	c0.2,0,0.5,0,0.6-0.1c0.8-0.6,1.6-0.3,2.4,0.1c0.1,0.1,0.1,0.1,0.2,0.2c0.2,0,0.4,0,0.6,0c0,0,0,0,0,0.1c0.5,0.4,1,0.4,1.5,0.1
	c0.1-0.1,0.3-0.1,0.4-0.1h0.1c0.2,0.2,0.3,0.3,0.5,0.5c0,0.1-0.1,0.2-0.2,0.3c-0.6,0.5-0.6,0.6,0,1.1l0,0c-0.1,0-0.1,0-0.1,0.1
	c-0.1,0-0.2,0.1-0.3,0.1c-0.2,0.1-0.3,0.2-0.4,0.3c-0.3,0.3,0,0.7-0.3,1c-0.3,0.2-0.7,0.2-0.9,0.5c-0.1,0.2-0.3,0.4-0.4,0.6
	c-0.3,0.4-0.4,0.9-1,0.9c-0.3,0.1-0.7,0.1-1,0c-0.1,0-0.1,0-0.2,0h-0.1l0,0c-0.1-0.3-0.3-0.5-0.4-0.8c-0.8-0.3-0.9-0.3-1.2,0.4h0.1
	c0,0.1,0,0.2,0,0.3c-0.2-0.1-0.5-0.2-0.7-0.2c-0.1,0.4,0.1,0.7,0.1,1c-0.1,0.2-0.4,0.2-0.6,0.2c-0.2,0.1-0.2,0.2-0.2,0.4
	c0,0.2,0.1,0.3-0.2,0.3c-0.3,0-0.3,0.1-0.1,0.5c0,0.1,0,0.3,0,0.4c0.5,0.5,1,0.8,1.8,0.5v-0.1l0,0l0,0c0.1,0.4-0.4,0.5-0.4,0.8
	c-0.1,0.4,0.6,0.3,0.5,0.7v0.1c-0.2,0.2-0.2,0.4-0.2,0.6c0.1,0,0.1,0,0.2,0l0,0l0,0l0,0c0.1,0.1,0.3,0.3,0.4,0.4
	c0.2,0.3,0.5,0.2,0.8,0.2c0.3,0.3,0.6,0.3,0.9,0.1l0,0c0.2-0.1,0.2-0.4,0.4-0.6c0.1,0,0.1,0,0.2,0c0.2,0.2,0.5,0.2,0.6,0.4
	c0.3,0.1,0.7-0.2,1,0.1c0.2,0.2,0.3,0.1,0.4,0c0.3-0.1,0.5-0.3,0.8-0.4l0,0c0.3-0.4,0.4-1.1,1.2-1.1c0.1,0,0.3-0.2,0.3-0.4
	c0-0.5,0.4-0.8,0.5-1.3l0,0c0-0.1,0-0.1,0-0.2c0.2,0,0.4-0.1,0.4-0.4l0,0c0-0.2,0-0.5,0.2-0.6c0-0.2,0.1-0.3,0.2-0.4l0,0
	c0.4,0,0.6-0.2,0.6-0.6c0.1-0.1,0.2-0.2,0.2-0.4c0-0.1,0.1-0.2,0.2-0.2c0.1,0,0.1,0,0.2,0c0.5-0.4,0.3-0.8-0.1-1.1
	c0-0.1,0.1-0.1,0.1-0.2c0.2-0.1,0.5-0.1,0.7-0.3c0.3-0.4,0.6-0.4,1-0.3l0,0h0.1c0,0,0,0,0.1,0l-0.1,0.1c0.2,0.4,0.5,0.6,0.9,0.8
	c0.6,0.2,1.2,0.4,1.6,0.9c0.1,0,0.2,0,0.3,0v-0.1l0,0c0.2,0,0.4,0.1,0.6-0.1c0.1,0,0.1,0,0.2,0c0.1,0.1,0.2,0.3,0.4,0.4
	c0.1-0.2,0.4-0.2,0.5-0.3c0.1,0,0.1,0,0.1-0.1c0.3-0.1,0.2-0.4,0.3-0.6c0.1,0,0.1,0,0.2,0c0.1,0,0.3,0,0.4,0.1
	c-0.1-0.2-0.2-0.2-0.4-0.2l0,0c-0.3,0-0.6-0.1-0.8-0.3c0-0.1,0-0.1,0-0.2c-0.1,0-0.1,0-0.2,0c0,0-0.1,0-0.1,0.1c0,0,0,0,0-0.1h0.1
	h0.1c0-0.1,0-0.1,0-0.2c-0.4-0.7-1-1.1-1.8-1.1c-0.1-0.2,0.3-0.4-0.1-0.6c-0.6-0.3-1.2-0.6-1.9-0.9l0,0c-0.1,0.1-0.1,0.2-0.1,0.3
	c-0.1-0.1-0.2-0.1-0.2-0.2c-0.5-0.4-0.6-1.3-1.4-1.4l0,0v-0.1c0.1,0,0.1,0,0.2,0c0.2,0,0.3,0,0.4-0.2l0,0c0.2,0,0.5-0.3,0.7-0.1
	c0.3,0.4,0.5,0,0.7-0.1c0.1-0.7-0.5-0.8-1-0.8c0-0.1,0-0.1,0-0.2c0.1-0.1,0.3-0.3,0.4-0.4c0.1,0,0.3,0,0.4,0
	c0.1,0.2,0.2,0.2,0.4,0.2c0-0.1,0-0.1,0-0.2c0.1-0.1,0.1-0.1,0.2-0.2c0.1-0.2,0.3-0.4,0.4-0.6c0.2-0.1,0.2-0.2,0.2-0.4
	c0.1-0.1,0.1-0.1,0-0.2l0,0c0-0.1-0.1-0.2-0.2-0.2h-0.1c-0.1,0-0.2,0.1-0.2,0.2c0,0.2,0,0.4,0,0.6c-0.1,0.1-0.3,0.1-0.4,0.2
	c0-0.1,0-0.1,0-0.2c-0.1-0.1-0.1-0.1-0.2-0.2c-0.5,0.1-0.4,0.5-0.4,0.8c-0.2,0-0.4,0.1-0.6,0.1c-0.1,0-0.1,0-0.2,0
	c0-0.3,0-0.5,0-0.8l0,0c0.3-0.1,0.4-0.4,0.6-0.6l0,0c0,0.1,0.1,0.2,0.2,0.2h0.1c0,0,0.1,0,0.1-0.1c0.1,0,0.1-0.1,0.2-0.1l0,0
	c0-0.1,0.1-0.1,0.2-0.2c0-0.1,0-0.1,0-0.2c0.1-0.1,0.1-0.1,0.2-0.2c0.1-0.1,0.2-0.1,0.2-0.2c0.1,0,0.2,0,0.3,0s0.2-0.1,0.3-0.2l0,0
	c0-0.1-0.4-0.2-0.1-0.4c0.1-0.1,0.3-0.2,0.1-0.4c-0.1-0.2-0.3,0-0.4,0c0-0.1,0-0.3-0.1-0.3c0.4,0,0.8-0.1,1.2-0.4
	c0.2-0.1,0.3-0.2,0.5-0.3c0.2-0.1,0.4-0.2,0.5-0.3c0,0.1-0.1,0.2-0.1,0.3c-0.1,0-0.1,0-0.2,0.1c-0.1,0.4-0.1,0.7,0.5,0.7l0,0
	c0.1,0,0.1,0,0.2,0c0-0.1,0-0.2,0-0.2l0,0l0,0c0-0.1,0-0.1,0.1-0.2c0.2,0,0.4,0,0.6,0c0.1,0,0.1,0,0.2,0c0.1,0,0.3,0,0.4,0
	c0-0.1,0-0.1,0-0.2c0.1,0,0.1,0,0.2,0c0-0.3-0.1-0.4-0.4-0.4c0,0,0,0-0.1-0.1l0,0v0.1c0-0.1,0-0.1,0-0.2s0-0.1,0-0.2
	c0.3,0,0.5,0,0.8,0c-0.2-0.2-0.1-0.6-0.4-0.8c-0.1,0-0.3,0-0.4,0c-0.3,0.1-0.2,0.5-0.4,0.6c-0.1-0.1-0.1-0.1-0.2-0.2
	c0-0.1,0-0.1,0-0.2c0.3-0.3,0.2-0.7,0.2-1c0-0.1,0-0.1,0.1-0.2c0.2,0.3,0.5,0.2,0.7,0c0.2,0.2,0.8,0.3,1.2,0.4
	c0.1,0,0.1,0.1,0.2,0.1c0.1,0,0.1,0,0.2,0C43.3,108.2,43.8,108.2,43.8,107.7z M32,106.5L32,106.5L32,106.5L32,106.5z M33.6,108.8
	C33.6,108.7,33.6,108.7,33.6,108.8L33.6,108.8C33.7,108.7,33.6,108.7,33.6,108.8z M25.7,126.4L25.7,126.4L25.7,126.4L25.7,126.4
	L25.7,126.4z M32.3,123.2L32.3,123.2L32.3,123.2L32.3,123.2z M32.6,123L32.6,123L32.6,123L32.6,123L32.6,123L32.6,123L32.6,123z
	 M34,115.8L34,115.8L34,115.8L34,115.8z M39.8,121.2L39.8,121.2L39.8,121.2L39.8,121.2L39.8,121.2z M41.7,107.7L41.7,107.7
	L41.7,107.7L41.7,107.7z M51.8,131l-0.1,0.1c0,0.1,0.1,0.1,0.2,0.2c0-0.1,0.1-0.1,0.1-0.1C51.9,131.1,51.9,131,51.8,131z
	 M52.5,131.6c0,0,0-0.1-0.1-0.2c-0.1,0-0.1,0-0.2,0.1c0,0.1-0.2,0.2,0.1,0.2C52.4,131.7,52.5,131.6,52.5,131.6z M40.6,122.1
	c0,0.1,0,0.3,0,0.4c0.2,0.1,0.4-0.1,0.5-0.2C41.1,122,40.9,121.8,40.6,122.1z M40.5,123.1L40.5,123.1
	C40.6,123.1,40.5,123,40.5,123.1C40.5,123,40.5,123,40.5,123.1L40.5,123.1z M16.9,119.7c0,0.1,0,0.1,0,0.2c0.1,0,0.1,0,0.2,0.1
	C17.1,119.8,17,119.8,16.9,119.7z M38.5,112.7c-0.1,0.1-0.2,0.2-0.2,0.4c0.1,0.1,0.1,0.2,0.2,0.2c0.1,0,0.1,0,0.2,0
	c0-0.1,0-0.1,0-0.2c0.2-0.1,0.4-0.3,0.4-0.6c-0.1,0-0.2,0-0.4,0C38.6,112.6,38.6,112.6,38.5,112.7z M41.9,109.8
	C41.9,109.8,41.8,109.8,41.9,109.8C41.8,109.9,41.9,109.9,41.9,109.8z M31.5,106.2c0-0.1,0-0.3-0.2-0.2c-0.2,0.1-0.2,0.3-0.2,0.4
	s0,0.1,0,0.2C31.2,106.5,31.3,106.4,31.5,106.2z M45.6,181.3c0.2,0.2,0.5,0.1,0.8,0.2c0-0.1-0.1-0.2-0.2-0.2
	C45.9,181.3,45.7,181.3,45.6,181.3z M44.6,180.7c0.1,0.2,0.2,0.5,0.5,0.4C45,181,44.9,180.7,44.6,180.7z M35.4,151.1L35.4,151.1
	c0.2-0.5-0.2-0.5-0.5-0.5c-0.2,0-0.5-0.1-0.6-0.2c-0.5-0.6-1.2-0.7-1.9-0.6c-0.5-0.1-1-0.4-1.6-0.5c-0.1-0.2-0.4-0.2-0.6-0.2l0,0
	c-0.4-0.1-0.4-0.1-0.4,0c0.1,0.5-0.3,0.2-0.4,0.3c-0.1-0.1-0.3-0.2-0.4,0c-0.1,0.1-0.1,0.2,0,0.4s0.3,0.4,0.5,0.5
	c0.1,0.1,0.1,0.3,0.2,0.4c0,0.1,0,0.1,0,0.2l0,0c0.1,0,0.1,0.1,0.1,0.1c0,0.2,0,0.3,0,0.5c0,0.1-0.1,0.1-0.1,0.2
	c0,0.1,0,0.2,0.1,0.3l0,0c0.1,0.1,0.1,0.1,0.2,0.2c0.2,0.1,0.4,0.2,0.6,0.1c-0.2,0.4-0.4,0.7-0.3,1.2c0.1,0.3,0.1,0.7,0.2,1
	c0.2,0.5,0,0.8-0.3,1.1c0,0,0.1,0.1,0.2,0.1l0,0c0,0.1,0.1,0.3,0.3,0.3l0,0c0,0.1,0.1,0.1,0.2,0.1c0,0,0.1,0,0.1,0.1
	c0.1,0.1,0.1,0.1,0.2,0l0,0c0,0,0.1,0,0.1-0.1s0.1-0.2,0.1-0.2s0,0,0.1,0c0,0.1,0,0.3-0.1,0.4c0,0.3,0.1,0.6-0.1,0.9
	c-0.2,0.6,0.3,1.1-0.1,1.7l0,0c-0.4-0.1-0.4,0-0.3,0.4c0,0.1,0,0.2-0.1,0.2c-0.1,0.1-0.3,0.1-0.4,0.2c0,0.2-0.1,0.4,0.1,0.7
	c0.2-0.2,0.3-0.4,0.5-0.5c0.1,0.6,0,1.3-0.3,1.8c-0.1,0-0.2,0-0.3,0.1c-0.1,0.7-0.1,0.8,0.3,1c0,0.1,0.1,0.1,0.1,0.1
	c0.2,0.1,0.3,0,0.4-0.1l0.1-0.1c0.1,0,0.3-0.1,0.3,0.2c-0.1,0.4-0.1,0.7-0.2,1.1c-0.3,0.1-0.5,0-0.7-0.3c-0.1,0-0.2,0-0.2-0.2
	s-0.1-0.2-0.3-0.2c0,0.2,0,0.4,0,0.6v0.1c0,0.1-0.1,0.3,0.1,0.3c0.1,0,0.3,0,0.3,0.1s0.3,0.2,0.1,0.3c-0.1,0-0.2,0-0.3,0.1
	c-0.2,0-0.3,0-0.5,0c-0.1,0.4,0.3,0.6,0.5,0.8c-0.3,0.2-0.5-0.2-0.8-0.1c-0.1,0.2-0.3,0.6-0.2,0.7c0.5,0.3,0.4,0.8,0.4,1.2l0,0
	c-0.1,0-0.1,0-0.1,0.1s0,0.2-0.1,0.3h-0.1c-0.1,0.2-0.1,0.4,0.1,0.6c0,0.1,0.1,0.1,0.1,0.2c0,0.2,0.1,0.4-0.1,0.4s-0.4-0.1-0.5,0.2
	c0.1,0.2,0.4,0.2,0.6,0.3c0.2,0.2,0.6,0.1,0.8,0.3c-0.1,0.4,0.2,0.5,0.5,0.6l0,0c0.1,0.1,0.1,0.1,0.2,0.1l0,0c0.3,0,0.6-0.1,0.3-0.5
	c-0.1-0.1,0-0.2,0.1-0.3v-0.1c0.3,0,0.6,0,0.9-0.1c0.2,0,0.3,0,0.5,0c0.2,0.1,0.2,0.4,0.5,0.1h0.1h0.1h0.1h0.1c0-0.1,0-0.1,0-0.2
	c0-0.3,0.1-0.7-0.4-0.6c0,0,0,0,0,0.1c-0.1,0-0.1-0.1-0.2-0.1h-0.1l0,0c0,0,0,0,0-0.1c0,0,0-0.1-0.1-0.1l0,0l0,0
	c0.2-0.1,0.2-0.3,0.2-0.4l0,0c0,0,0,0,0-0.1l0,0c0.1,0.1,0.1,0.1,0.2,0.1l0,0c0-0.1,0-0.2,0-0.3l0.1-0.1c0.1-0.1,0.2-0.2,0.3-0.4
	c0,0.1,0,0.2,0.2,0.2c0.1,0,0.1,0,0.1-0.1l0,0c0,0,0.1,0,0.2,0c0,0.3,0.2,0.3,0.5,0.3c0.1-0.1,0.1-0.1,0.2-0.2
	c0.2-0.4,0.5-0.9,0-1.3c-0.3-0.3-0.1-0.5,0.1-0.7v-0.1c0.2-0.2,0.1-0.5,0.1-0.8c-0.2,0-0.3,0.1-0.4,0.2c0-0.1-0.1-0.1-0.2-0.2
	c-0.1,0.2-0.2,0.3,0,0.5l0,0c0,0-0.1,0-0.1,0.1c-0.1,0.1,0,0.2,0,0.3l0,0c-0.1,0-0.1,0.1-0.2,0.1l0,0c0,0,0,0-0.1,0
	c-0.1-0.2-0.2-0.2-0.4-0.2c-0.1-0.1-0.2-0.1-0.3-0.2h-0.1c0-0.2,0-0.4,0.2-0.5c0.1-0.1,0.1-0.3,0.1-0.4c0-0.1-0.1-0.1-0.2-0.1
	c-0.1,0-0.1,0-0.2,0.1l-0.1,0.1l0,0c0.1-0.1,0.2-0.2,0.1-0.4c-0.1-0.2-0.2-0.3-0.4-0.4c0.1-0.1,0.1-0.3-0.2-0.2
	c0,0.1-0.1,0.2-0.1,0.3s0,0.1,0,0.2c-0.1-0.1-0.1-0.1-0.2-0.2c0-0.1,0-0.1,0-0.2c-0.2-0.5-0.1-0.9,0.1-1.3c0,0.1,0,0.1,0,0.2l0,0
	c0.1,0.4,0.1,0.4,0.5,0.2l0.1-0.1l0,0c0-0.1,0.1-0.1,0.1-0.2c0-0.1,0-0.2,0-0.3s0-0.2,0-0.3s0-0.2,0-0.3s0-0.2,0.1-0.3
	s0.1-0.2,0-0.3v-0.1h0.1l0,0l0.1,0.1c0.1,0,0.1,0,0.2,0c0,0.1,0,0.3,0.2,0.4c0.3,0.1,0.6,0,0.9,0c0-0.1-0.1-0.2,0-0.3
	c0.3-0.5,0-0.8-0.3-1.1c-0.1-0.1,0-0.2,0-0.3c0.2-0.2,0.1-0.4-0.2-0.5c0-0.1,0-0.2,0-0.3l0,0c0.1-0.1,0.2-0.2,0.2-0.3
	c0.1-0.2,0.2-0.3,0.1-0.5c-0.2-0.4-0.1-0.7,0.1-1.1c0.1-0.1,0-0.3,0.1-0.4l0,0l0,0c0-0.3,0.5-0.6,0.2-0.9c0-0.1,0-0.2,0-0.4
	s-0.1-0.2-0.3-0.1h-0.1l-0.1-0.1l0,0l0,0l0,0c0-0.1,0.1-0.1,0.2-0.2l0,0l0,0l0,0l0,0c0.2,0,0.4-0.1,0.4-0.3c-0.1-0.5-0.3-1-0.3-1.6
	c0-0.3,0-0.6,0.2-0.9C35.7,151.8,35.7,151.4,35.4,151.1z M34.7,165.3L34.7,165.3L34.7,165.3L34.7,165.3L34.7,165.3z M34,167.3
	L34,167.3L34,167.3L34,167.3z M33.1,166.4c0.3,0.1,0.6,0,0.8-0.3l0,0c0.1,0,0.2,0,0.3,0c0,0,0,0.1-0.1,0.1c0,0.1-0.1,0.2-0.1,0.4
	s-0.1,0.3-0.1,0.5c0-0.2-0.1-0.3-0.3-0.4C33.5,166.7,33.4,166.5,33.1,166.4C33,166.4,33,166.4,33.1,166.4L33.1,166.4z M32.8,168.6
	L32.8,168.6L32.8,168.6L32.8,168.6L32.8,168.6z M33.2,156.1c-0.1-0.8,0.2-1.4,0.8-1.8l0,0c0.2-0.1,0.3-0.3,0.4-0.5
	c0,0.2-0.1,0.4,0,0.6c-0.2,0-0.2,0.1-0.2,0.3c0,0,0,0,0,0.1c0,0,0,0-0.1,0.1l0,0L34,155c0,0.1,0,0.2,0.1,0.3c0,0,0,0-0.1,0.1
	c0,0.1-0.1,0.1-0.1,0.2v0.1l0,0c-0.1,0-0.1,0-0.2,0l0,0c0-0.1-0.1-0.1-0.1,0c-0.2,0.1-0.4,0.2-0.3,0.5
	C33.3,156,33.3,156.1,33.2,156.1L33.2,156.1L33.2,156.1z M34,155.8L34,155.8L34,155.8L34,155.8L34,155.8L34,155.8z M33.6,159.9
	L33.6,159.9L33.6,159.9L33.6,159.9z M34.5,157.8c0,0.2,0,0.3,0,0.5c0,0.1-0.1,0.1-0.1,0.2c0,0.2,0,0.3,0,0.5l0,0
	c0,0.1,0.1,0.2,0.1,0.3l0,0c-0.1,0.1-0.1,0.2-0.2,0.3l0,0l0,0l0,0c-0.3,0.4-0.3,0.4-0.6,0l0,0c-0.2-0.3-0.4,0-0.5,0v-0.1
	c0-0.1,0-0.1,0-0.1l0,0c0.1,0,0.2,0,0.2-0.1c0.2-0.3,0.7-0.5,0.3-1c-0.1,0-0.2,0-0.2,0c0-0.1,0.1-0.2,0.1-0.3l0,0l0,0c0,0,0,0,0,0.1
	l0.1,0.1c0.5-0.1,0.4-0.5,0.5-0.8v-0.1c0.2-0.2,0.3-0.2,0.4,0.2C34.5,157.5,34.5,157.7,34.5,157.8z M34.5,158.4L34.5,158.4
	L34.5,158.4L34.5,158.4z M36.4,152.1c0,0.1,0.1,0.1,0.2,0.1c0.1,0,0.2,0,0.2-0.1s-0.1-0.1-0.2-0.1S36.4,152,36.4,152.1z M20.4,175
	c0.1,0.2,0.3,0.1,0.5,0.2C20.7,175,20.5,175,20.4,175z M19.9,174.7c0,0.1,0,0.2,0.2,0.3C20.1,174.9,20,174.8,19.9,174.7z
	 M42.9,177.6v-0.1c0,0-0.1-0.1-0.1-0.2v0.1C42.8,177.5,42.8,177.6,42.9,177.6z M41.7,198.9c0.1,0,0.1,0,0.2,0
	c-0.1,0-0.1-0.1-0.2-0.1C41.7,198.8,41.7,198.8,41.7,198.9z M23,195.5c-0.1,0.1-0.1,0.2-0.2,0.3c0.1,0,0.3,0.1,0.4,0
	C23.3,195.5,23.1,195.5,23,195.5z M21.9,164.9c0.1-0.1,0.1-0.2,0-0.3V164.9z M31.1,157.6c0.1-0.2-0.1-0.2-0.2-0.2v0.1
	c0,0.1-0.1,0.1-0.1,0.1c0,0.1-0.1,0.1-0.1,0.2C30.8,158,31,157.8,31.1,157.6z M30.3,157.8c0-0.2,0-0.4-0.3-0.2
	c-0.1,0.1-0.2,0.2,0,0.3C30.1,157.9,30.2,157.9,30.3,157.8z M45.7,170.7c-0.1,0-0.1,0.1-0.2,0.1c0.1,0,0.1,0,0.2,0
	C45.7,170.8,45.7,170.8,45.7,170.7z M56.2,168.9c0.1,0,0.1,0,0.2,0C56.3,168.8,56.2,168.8,56.2,168.9z M35.4,163.4
	c0-0.1-0.1-0.2-0.1-0.3c0-0.4-0.2-0.3-0.5-0.2c0,0,0,0.1-0.1,0.1c0,0.2,0,0.4,0.2,0.6C35.2,163.6,35.3,163.6,35.4,163.4z
	 M34.7,162.6v-0.1c0.2-0.1,0.3-0.2,0.1-0.4c-0.2-0.1-0.3,0-0.4,0.2v0.1h-0.1c-0.2,0.2,0,0.6-0.3,0.8c-0.1,0.1-0.2,0.2-0.2,0.3
	c0,0.2,0,0.5,0.2,0.6s0.1-0.2,0.2-0.3c-0.1-0.3,0.2-0.6,0.3-0.8c0.1,0,0.2,0,0.2-0.1l0,0C34.8,162.8,34.8,162.7,34.7,162.6
	L34.7,162.6z M58.5,170.9c0,0-0.1,0-0.1-0.1v-0.1h-0.1l0,0c0,0,0,0,0.1,0.1c0-0.1,0.1-0.1,0.1-0.1h0.1c0,0,0,0,0.1,0v-0.1
	c0-0.1,0-0.2-0.1-0.3c-0.3-0.2-0.7-0.1-1-0.3c-0.1-0.2-0.3-0.2-0.4-0.2c-0.1,0.1-0.2,0.2-0.3,0.3c-0.7,0.2-0.2-0.5-0.4-0.6
	s-0.5,0.1-0.8-0.2c0.2,0,0.5,0,0.5-0.3c-0.3,0.3-0.7,0-1.1,0.2c-0.3,0.1-0.4,0.1-0.5-0.2c-0.2-0.4-0.4-0.4-0.8-0.1
	c-0.2,0.1-0.2,0.3-0.5,0.2c-0.4-0.1-0.8,0.1-1,0.5c0,0,0,0,0.1,0.1l0,0v-0.1c-0.1,0-0.2,0-0.3,0c-0.8-0.1-1.2-0.1-1.9,0.4
	c-0.1,0.1-0.2,0-0.3,0l0,0v-0.1c0.1-0.1,0.1-0.2,0-0.3c-0.2,0-0.5,0-0.7,0.1c-0.5,0.1-1,0.2-1.6,0.1l0,0c-0.1,0-0.1-0.1-0.1-0.2
	h-0.1c-0.2,0.1-0.6,0.1-0.7,0.4c0,0.1-0.1,0.1-0.1,0.2c0,0,0.1,0,0.1,0.1l0,0c0,0-0.1,0-0.1-0.1c-0.1,0.1-0.1,0.1,0,0.2
	c0,0.1,0,0.2,0,0.3l0,0l0,0c-0.1,0.2-0.4,0.1-0.5,0.3c0.1,0.1,0.3,0.3,0.5,0.2c0,0.3-0.2,0.4-0.4,0.5c-0.1,0-0.2,0.1-0.4,0.1
	c-0.1,0-0.1,0-0.2,0h-0.1c0,0,0-0.1-0.1-0.1v-0.1c-0.3-0.6-0.8-0.6-1.3-0.6c-0.2,0-0.4,0.2-0.6,0.1c0-0.4-0.1-0.7-0.3-1
	c0,0,0,0,0-0.1c0.1,0,0.2-0.1,0.2-0.2c0-0.1,0-0.1-0.1-0.1c0.3-0.4,0.7-0.8,0.9-1.4l0,0l0,0h0.1c0.1,0,0.2-0.1,0.2-0.1
	c0-0.1,0.1-0.1,0.1-0.2c0.1-0.2,0.2-0.4,0.1-0.7l0,0v-0.1h0.1c0.2,0,0.3,0.1,0.3,0.3c0,0.1,0.1,0.1,0.1,0.2c0-0.1,0-0.1,0-0.2
	c0.1-0.1,0.1-0.1,0.2-0.2c0-0.2,0-0.4,0-0.6h0.1c0.1-0.1,0.2-0.2,0.2-0.3l0,0l0,0c0.3,0,0.5-0.2,0.6-0.4h-0.1c0,0,0,0,0.1,0l0.1-0.1
	c0.3,0,0.6,0,0.6-0.5c0.1-0.1,0.2-0.1,0.3-0.2c0.1-0.1,0.1-0.1,0.2-0.2h0.1c0.1,0,0.1-0.1,0.2-0.2v-0.1c0-0.1,0-0.1,0-0.2l0,0
	c0.1,0,0.1-0.1,0.2-0.1c0.3-0.4,0.8-0.5,1.2-0.8c0.4-0.1,0.3-0.5,0.4-0.8c-0.3-0.4-0.4-0.9-0.4-1.4c-0.4-0.1-0.5-0.4-0.6-0.8
	c-0.1-0.5-0.6-0.8-0.6-1.3c0,0-0.1-0.1-0.2-0.1c-1.2-0.7-2.3-1.3-3.6-1.7c-0.2,0-0.3-0.1-0.5-0.1c-0.6,0-0.9,0.3-0.8,0.9
	c0.1,0.4,0.4,0.3,0.6,0.5c0,0.3,0.1,0.5,0,0.8h-0.1h-0.1c-0.3,0.5-0.5,1-0.3,1.5c0,0.1,0,0.2,0,0.3c0.1,0.1,0.1,0.1,0.2,0.2
	c0.1,0.1,0.1,0.3,0,0.5c-0.2,0.1-0.3,0.1-0.5,0c0,0.2,0,0.4,0.3,0.5l0.1,0.1c-0.1,0.1-0.1,0.2,0,0.2s0.2,0.1,0.2,0.2l-0.1,0.1
	c0,0.1,0,0.1-0.1,0.2c0-0.1,0-0.2-0.1-0.2c-0.3,0.1-0.1,0.4-0.2,0.5c0.1,0.1,0.1,0.1,0.2,0.2v0.1c0,0.1-0.1,0.2-0.2,0.2
	c-0.1,0-0.1,0.1-0.2,0.1c0,0,0,0-0.1,0.1c-0.2,0.1-0.4,0.2-0.6,0.1c-0.1,0-0.1,0.1-0.1,0.2c0,0.1,0.1,0.2,0.1,0.2
	c0.5,0,0.3,0.4,0.3,0.7c0,0.1-0.1,0.3,0,0.3s0.1,0,0.2,0.1c0,0.1,0.1,0.2-0.1,0.4c-0.1,0.2-0.3,0.3-0.5,0.5l-0.1,0.1
	c-0.3,0.1-0.5,0.3-0.3,0.8l0,0c0,0,0,0.2-0.1,0.2c-0.3,0.1-0.2,0.3-0.2,0.6c0,0.1,0,0.1,0,0.2c-0.1,0.1-0.1,0.1-0.2,0.2
	c-0.1,0.1-0.3,0.1-0.3,0.3l0,0c0,0,0,0-0.1,0c0,0.2-0.1,0.2-0.2,0.3c-0.1,0-0.2,0-0.3,0c-1.3,0.4-2.6,0.3-3.9,0.6
	c-0.1,0.1-0.3,0.1-0.5,0.1c0,0,0,0-0.1-0.1c-0.3-0.3-0.2-0.8-0.3-1.1c-0.1-0.1-0.1-0.1-0.2,0l0,0h-0.1c-0.3,0.1-0.5,0.3-0.5,0.6
	c0,0,0.1,0,0.1,0.1l0,0c0.1,0.2,0.1,0.3,0.2,0.5c0,0-0.1,0-0.1,0.1v0.1l0,0c-0.9,0-1.7,0.4-2.5,0.7c-0.2,0.1-0.5,0.1-0.8,0.2
	c-1,0.5-2.2,0.5-3.2,1.1H28c0,0,0-0.1-0.1-0.1c-0.1-0.1-0.2-0.2-0.3-0.4c0-0.1,0-0.1,0-0.2v-0.1c0.4-0.3,0.4-0.7,0.6-1.1
	c0.3-0.6,0.3-0.6-0.3-0.7c0,0,0,0,0-0.1v-0.1l0.1-0.1c0-0.2,0.1-0.4,0.1-0.6c0.2-0.3,0.1-0.6-0.1-0.9l0,0c0.4-0.4,0.3-0.8,0.2-1.3
	c0,0,0-0.1,0.1-0.1c0-0.1,0.1-0.2,0.1-0.3v-0.1h0.1c0.2-0.6,0.1-0.8-0.1-1.1c0-0.1,0-0.2,0-0.2c0-0.5,0.2-1,0.3-1.4
	c0.1-0.3,0.1-0.7-0.3-0.8c-0.7-0.3-1.3-0.9-2.1-1.1c-0.1,0-0.2-0.1-0.3-0.1c0,0,0,0-0.1,0c-0.2-0.1-0.3-0.2-0.5-0.2h-0.1
	c-0.5-0.2-0.9-0.3-1.4-0.2c-0.1,0-0.3,0-0.4,0c-0.2,0-0.3,0.1-0.4,0.2c-0.1-0.1-0.1-0.1-0.2-0.1c-0.4-0.3-0.9-0.5-1.4-0.6
	c-0.1,0.3,0.1,0.5,0,0.8h-0.1c-0.1-0.1-0.2-0.1-0.3,0l0,0c0,0.1-0.1,0.1-0.1,0.1c-0.1,0.1-0.1,0.2,0,0.3l0,0c0,0.1,0,0.2,0.1,0.3
	c0.3,0.4,0.2,0.9,0.2,1.3h0.1c0.1,0.1,0.2,0.2,0.1,0.3c-0.2,0.3,0,0.5,0,0.7c0,0.1,0,0.2,0.1,0.3l0,0c0.2,0,0.3,0.1,0.4,0.2
	c0-0.3-0.2-0.3-0.4-0.3l0,0v-0.1l0,0c0.2,0,0.4-0.1,0.5-0.3c0.1,0.1,0.1,0.3,0.1,0.4c0,0.1-0.1,0.2,0,0.3c0.3,0.2,0.3,0.4,0.1,0.7
	h-0.1v0.1c0.1,0.1,0.1,0.2,0.2,0.3l0,0c0,0.2,0,0.3,0,0.5v0.1c0.1,0.2,0.1,0.6,0,0.7c-0.3,0.3-0.2,0.6-0.1,1c0,0.4,0,0.7,0.3,1
	c0.2,0.2-0.1,0.6,0,0.9v0.1c0.1,0.2,0.2,0.3,0.1,0.5c0.1,0.2,0.5,0.3,0.1,0.6c-0.1,0.1,0,0.3,0.1,0.4c0.3,0.5,0.3,0.5-0.2,0.6
	c-0.2,0-0.2,0.1-0.2,0.3c0.7,0.5,0.5,0.9-0.1,1.3c-0.1,0.1-0.2,0.1-0.4,0.1c-0.4,0.1-0.8,0.1-1.2,0.2c0-0.1,0-0.2-0.1-0.3
	c0.1,0,0.2,0,0.2-0.1c-0.1,0-0.2,0-0.2,0.1l0,0c-0.2,0.1-0.2,0.5-0.6,0.4c0,0.2,0.1,0.2,0.2,0.3c-0.1,0.2-0.2,0.3,0.1,0.5
	c1.2,0.6,2.4,0.6,3.5,0.1c1.2-0.6,1.4-0.6,1.9,0.6c0,0.3,0.2,0.5-0.1,0.8c-0.2,0-0.3,0-0.5,0.1l0,0c0,0.1-0.1,0.1-0.1,0.2
	c-0.2,0-0.4,0-0.6,0c-0.6,0.1-0.6,0.1-0.3,0.6l0,0l0,0c-0.4,0-0.7,0-1.1,0.1l-0.1-0.1c-0.1,0-0.1,0-0.2,0l0,0c0-0.1,0-0.3-0.1-0.5
	c-0.1,0.3-0.3,0.5-0.5,0.6c-0.1,0-0.2,0-0.3,0.1c-0.1,0-0.1,0.1-0.2,0.1l0,0c-0.1,0-0.2,0-0.3,0c0,0.1,0,0.1,0,0.2
	c0,0-0.1,0.1-0.2,0.1c0,0-0.1,0-0.1,0.1s0,0.1,0,0.2c0,0.1-0.1,0.1-0.1,0.2c-0.4,0.9-1,1.1-1.8,0.5c0,0-0.1,0-0.2,0
	c-0.4,0.2-0.9,0.4-1.4,0.4c-0.7,0.8-1.8,0.7-2.7,0.9c-0.7,0.2-1.5,0.3-2.3,0.4c-0.4,0.1-0.7,0.1-1.1,0c-0.8-0.1-1.6-0.2-2.4-0.4
	c0,0.4-0.2,0.7,0,1.1l0,0c1,0.9,2,1.5,3.3,1.8c0.1,0,0.1,0,0.2,0c0.3,0,0.5-0.1,0.7-0.3c0,0,0,0,0.1-0.1l0.1-0.1
	c0.1-0.1,0.1-0.2,0.2-0.3c0.3,0.2,0.7,0.5,1.1,0.2l0,0c0.1,0.1,0.2,0.2,0.4,0.1l0,0c0.3,0.2,0.6,0,0.8-0.2c0.1-0.1,0.1-0.1,0.1-0.2
	l0.1-0.1c0.1,0.1,0.2,0.2,0.3,0.3c0.1,0,0.1,0,0.2,0c0.2,0,0.3-0.1,0.3-0.3c0-0.1,0-0.1,0-0.2l0,0c0.1,0.1,0.2,0.1,0.4,0.1l0,0l0,0
	l0,0l0,0c0.5,0.2,1,0,1.2-0.5l0.1-0.1c0,0,0,0,0.1-0.1l0.1-0.1l0.1-0.1c0.1-0.1,0.1-0.2,0.2-0.3l0.1-0.1c0.4,0,0.6-0.1,0.6-0.6l0,0
	c0.1-0.1,0.1-0.1,0.1-0.3v-0.1l0,0c0,0,0,0,0,0.1v-0.1c0-0.1,0.1-0.1,0.1-0.2l0,0c0.2,0.2,0.1,0.9,0.7,0.5c0.1,0.1,0.1,0.1,0.1,0.2
	l0,0l0,0l0,0c-0.1,0.1-0.2,0.2-0.2,0.3l0,0c0,0.1-0.1,0.1-0.1,0.2h0.1c0-0.1,0-0.1,0-0.2c0.2,0,0.5,0.3,0.7,0.1h0.1h0.1
	c0.1,0,0.1-0.1,0.2-0.1l0.1-0.1c0-0.1,0.1,0,0.2-0.1c0.5-0.2,0.7-0.6,1.1-0.9v-0.1c0.1,0,0.2,0,0.3,0c0.2,0.2,0.3,0.2,0.4-0.1
	c0-0.1,0-0.3,0.2-0.4l0,0l0,0h0.1c0.2,0,0.2-0.1,0.2-0.3c0.2-0.1,0.3-0.2,0.4-0.3c0.2,0.1,0.3,0.1,0.5-0.1c0-0.1,0.1-0.1,0.1-0.2
	c0.1,0,0.2-0.1,0.3-0.1c0.4-0.2,0.8-0.2,1.1-0.5c0.1,0.3,0.3,0.3,0.6,0.2c0-0.4-0.1-0.7-0.6-0.8c0-0.4-0.2-0.3-0.5-0.2
	c-0.1,0-0.1,0-0.2,0c-0.2,0-0.4,0-0.7,0v-0.1l0,0c0.1,0,0.1,0,0.2,0s0.1-0.1,0.2-0.1l0.1-0.1l0,0c0.4,0.1,0.7,0,0.6-0.5
	c-0.2-0.2-0.2-0.4-0.3-0.6c0,0,0,0,0-0.1c0.1-1.2,1-1.5,1.9-1.9c1.6-0.6,3.2-1.1,4.8-1.5c0.2-0.1,0.3-0.2,0.5-0.2
	c1.5-0.2,3-0.3,4.5-0.3c0,0,0,0,0.1,0c0,0.1,0,0.1,0.1,0.1c0.1,0.1,0.2-0.1,0.3-0.2c0,0,0,0,0.1,0c0.2,0,0.5-0.3,0.7,0.1
	c0.1,0.2-0.1,0.4-0.2,0.5c0,0.1-0.1,0.1-0.1,0.2l0,0c-0.3,0-0.4,0.3-0.5,0.5h-0.1c0-0.1-0.1-0.1-0.1-0.1c-0.1-0.2-0.3-0.1-0.5-0.1
	c0,0.1,0,0.2,0,0.3l0,0c-0.1,0.1-0.2,0.2-0.3,0.3s0.2,0.4-0.1,0.5c-0.3,0-0.2-0.3-0.4-0.4h-0.1h-0.1c-0.1-0.1-0.2-0.1-0.3-0.1h-0.1
	c-0.1-0.1-0.1-0.1-0.2,0c-0.2,0.1-0.4,0.2-0.6,0.1c-0.6,0-1,0.3-1.2,0.7c-0.2,0.5-0.5,0.4-0.8,0.3c-0.1,0.5-0.2,0.9-0.2,1.3
	c-0.1,0.1-0.1,0.2-0.2,0.3c-0.2,0.3-0.4,0.3-0.8,0.3c0,0.3,0.3,0.5,0.5,0.4c0.4-0.1,0.9,0.1,1.3,0c0.1,0,0.2,0.1,0.2,0.2
	c0.2,0.1,0.3,0.1,0.4-0.1c0-0.4,0.2-0.6,0.4-0.9c0.1-0.2,0.1-0.5-0.1-0.7c-0.3-0.2-0.5,0-0.6,0.2c-0.1-0.1-0.1-0.2-0.2-0.3h0.1
	c0.1,0,0.1,0.1,0.2,0.1c0.3,0,0.4-0.2,0.4-0.5c0,0,0,0,0-0.1c0,0,0,0,0.1,0c0,0.1,0,0.1,0,0.1c0.5,0.6,1.1,0.2,1.7,0.1
	c0-0.1,0-0.1,0-0.2l0,0c0.2-0.1,0.3-0.1,0.3,0.1c0,0.1-0.1,0.1-0.2,0.2c-0.3,0-0.3,0.2-0.3,0.5l0,0c0.1,0,0.1,0.1,0.2,0.2v0.1h0.1
	c0,0.1,0.1,0.1,0.2,0.2c0,0.1,0.1,0.1,0.2,0.2l0,0c0.1,0.3,0,0.5-0.2,0.7s-0.3,0.4-0.4,0.6c-0.1,0.1-0.1,0.1-0.2,0.2
	c-0.2,0.2-0.5,0.4-0.8,0.6c-0.1,0-0.1,0.1-0.2,0.1l-0.1,0.1c0,0,0,0,0,0.1c-0.1,0-0.1,0.1-0.2,0.2c-0.1,0.1-0.1,0.1-0.2,0.2
	c-0.1,0.1-0.1,0.2-0.1,0.4l0,0c-0.1,0.1-0.2,0.3-0.4,0.2c-0.5,0.1-0.4,0.7-0.7,0.9c-0.8,0.5-1.1,1.3-1.7,1.9c-0.2-0.1-0.4,0-0.5,0.2
	c0,0.1,0,0.1,0,0.2l0,0c-0.2,0.1-0.3,0.3-0.4,0.5c-0.1,0-0.1,0-0.2,0.1l0,0c-0.3,0.1-0.4,0.3-0.6,0.4c-0.1,0-0.3,0.1-0.4,0
	c-0.4-0.2-0.5,0.1-0.4,0.3c0.2,0.4-0.2,0.5-0.4,0.7c-0.1,0.3-0.2,0.6-0.7,0.7l-0.1,0.1c-0.1,0-0.2,0-0.3,0.2l0,0
	c-0.4-0.1-0.5-0.2-0.3-0.6v-0.1c0.1,0,0.1-0.1,0.1-0.2c0,0,0,0-0.1-0.1l0,0c0,0,0,0,0.1,0.1c0.2-0.1,0.3-0.2,0-0.4
	c-0.3-0.1-0.4-0.2-0.6-0.4c0-0.1,0-0.2,0-0.2c-0.3-0.7-0.8-1.2-1.4-1.6c-0.3-0.2-0.6-0.3-0.9,0c-0.3,0.2-0.4,0.6-0.3,0.9
	c0.2,0.5,0.2,1,0.2,1.4c0,0.6,0.1,1.3,0,2c-0.7-0.3-1.3-0.8-2-0.9c-0.7-0.1-1.3-0.3-2.3-0.2c0.9,0.7,1.6,1.4,2,2.2
	c0.1,0.5,0.5,0.8,0.8,1.2l0.1,0.1v0.1h0.1l0,0c0.1,0.3,0.3,0.6,0,0.9c-0.3,0.1-0.6,0.3-0.9,0.4c-0.5,0-0.6,0.4-0.7,0.8
	c-0.4,0.2-0.9,0.4-1.3,0.6c-0.3,0.2-0.5,0.5-0.9,0.6c-0.1,0-0.3,0-0.4,0.1v0.1l0,0c-0.6,0-0.9,0.3-0.8,1c0,0.1,0,0.3,0,0.4v0.1
	c-0.1-0.1-0.2-0.1-0.4,0l0,0c-0.1,0.1-0.2,0.1-0.3,0.2c-0.1,0-0.2,0.1-0.2,0.2l0,0h-0.1c-0.1-0.2,0.1-0.5-0.2-0.5
	c-0.3-0.1-0.5,0.1-0.6,0.4c0,0,0,0,0,0.1l0,0c-0.3,0-0.3-0.3-0.3-0.5c0.2-0.4,0-0.5-0.3-0.6c-0.2-0.1-0.5-0.1-0.7-0.2
	c0.1,0.2,0.3,0.6,0.5,0.7c0.3,0.1,0.3,0.2,0.2,0.4s0.1,0.3,0.2,0.4c0.2,0.2,0.4,0.1,0.6,0.1c0,0.2,0.1,0.3,0.1,0.4
	c-0.1,0-0.3,0.1-0.3,0.3l0,0c-0.2,0.1-0.3,0.3-0.4,0.4l-0.1,0.1l-0.1,0.1c-0.2,0.2-0.5,0.4-0.8,0.6c-0.1,0-0.1,0.1-0.1,0.1v0.1
	c-0.1,0-0.2,0.1-0.2,0.3c-0.2,0-0.3,0-0.5,0.2v0.1c-0.3,0.3-0.7,0.5-0.9,0.9c0,0,0,0-0.1,0c-0.3,0.1-0.5,0.3-0.7,0.5
	c-0.1,0.1-0.1,0.2-0.2,0.3c-0.2,0.5-0.4,0.7-0.9,0.2c-0.2-0.1-0.3-0.2-0.5-0.3c-0.3,0-0.3,0.2-0.5,0.3c-0.1,0.3-0.3,0.4-0.6,0.5
	c-0.1,0.1-0.2,0.1-0.3,0.1c-0.6,0.1-1.2,0.4-1.8,0.3c-0.1,0-0.1,0-0.2,0c-0.5,0-1-0.1-1.4,0.1c-0.1,0.6,0.5,0.6,0.8,0.9
	c0.2,0.4,0.6,0.6,0.9,0.9c0.3,0.3,0.9,0.3,0.9,0.9c0,0.2,0.1,0.4,0.3,0.5c0.1,0,0.1,0,0.2-0.1c0.4-0.2,1,0.1,1.1,0.5
	c0.1,0.1,0.2,0.2,0.4,0.2c0.5,0,1,0.3,1.6,0.2c0.4-0.1,0.9,0.3,1.4,0.3c0.5,0.2,0.9,0.1,1.2-0.4c0.2-0.3,0.5-0.6,0.8-0.9
	c0,0,0,0,0.1-0.1c0,0.1,0.1,0.1,0.1,0.2c0,0-0.1,0.1-0.2,0.1c0,0.1,0,0.1,0,0.2c0.3-0.1,0.6-0.2,0.5-0.6c0-0.1,0-0.1,0-0.2
	c0.2-0.2,0-0.3-0.1-0.3v0.1l0,0c-0.2-0.3-0.1-0.7-0.2-1v-0.1c0.1,0,0.1-0.1,0.1-0.1c0.1-0.1-0.1-0.4,0.3-0.4c0.3,0,0.3-0.1,0.2-0.4
	c-0.1-0.2-0.2-0.4,0-0.6h0.1c0.4,0,0.7,0.4,1.1,0c0.6,0,0.6,0,0.5-0.5l0,0v-0.1l0,0l0,0c0.2,0.1,0.4,0.1,0.6,0.2
	c0.1,0,0.1,0.1,0.2,0.1c0.1-0.1,0.1-0.2,0.2-0.2l0,0c0.1-0.1,0.2-0.2,0.2-0.4v-0.1l0,0c0.2-0.1,0-0.4,0.4-0.3
	c0.5,0.1,0.6,0.1,0.6-0.5c0.1-0.4,0.3-0.2,0.5-0.2c0.1-0.3-0.1-0.8,0.5-0.9c0.3,0.1,0.4-0.3,0.7-0.1c0.4,0.2,0.4-0.1,0.4-0.3
	c0.1-0.7,0.1-0.7,0.8-0.9c0.1,0,0.2-0.1,0.3-0.1c-0.3-0.3-0.7-0.3-1.1-0.2c0,0,0,0-0.1,0c0-0.1,0-0.1,0.1-0.2c0-0.1,0-0.2,0-0.3
	c0.1,0,0.3,0,0.3-0.1l0,0c0-0.1,0-0.2-0.1-0.2l0,0c0-0.2,0.1-0.3,0.1-0.5l0,0c0.1,0,0.2,0.1,0.2,0c0-0.3,0.1-0.5,0.4-0.3
	c0.2,0.2,0.4,0.2,0.5-0.2c0.2-0.1,0.4-0.3,0.6-0.1s0.4,0.1,0.6,0.1c0.1,0.1,0.2,0.3,0.1,0.4c-0.1,0.6,0.2,1.1,0.5,1.6
	c0,0.1,0.1,0.1,0.2,0.1c0,0.1,0.1,0.1,0.2,0.1l0,0l0,0c0,0.2-0.1,0.4-0.3,0.5H26h-0.1v-0.1c-0.2,0-0.3,0-0.5,0
	c-0.8-0.2-0.8-0.2-0.6,0.6v0.1c0.2,0.9,0.3,1,1.1,0.9c0.2,0.1-0.1,0.6,0.4,0.6c0.4,0.4,0.9,0.4,1.4,0.4v0.1c0,0.1,0.1,0.2,0.2,0.1
	c0.1,0,0.1-0.1,0.1-0.2c0.3,0.3,0.6,0.2,0.9,0.1c0.1,0,0.2,0,0.3,0c0-0.1,0.1-0.1,0.2-0.1l0,0h0.1h0.1l0,0c0.1,0,0.1,0.1,0.2,0.1
	s0.2,0,0.3-0.1c0-0.1,0.1-0.1,0.2-0.1c0.1-0.1,0.1-0.1,0.2-0.2c0-0.1,0-0.2,0-0.3c0.1-0.1,0.1-0.1,0.2-0.2c0.3-0.2,0.5-0.4,0.8-0.6
	c0.2,0.4,0.4,1,1,0.5c0.1-0.1,0.2-0.2,0.2-0.3c0.1-0.2,0.1-0.3,0.1-0.4c0.1-0.1,0.3-0.1,0.5,0c0.1,0,0.2,0.1,0.3,0l0.1,0.1
	c0.2,0.1,0.3,0.2,0.5,0c0.2-0.3,0.5-0.5,0.8-0.4c0.4,0.2,0.4-0.1,0.6-0.2c0.2,0,0.4,0.4,0.6,0c0-0.1,0-0.2,0-0.3
	c0.2-0.1,0.4-0.3,0.7-0.2c0.2,0.1,0.3-0.1,0.3-0.2c0.1,0,0.3,0,0.4-0.1c0.1-0.1,0.2-0.1,0.3-0.1c0.2,0.3,0.4,0.6,0.8,0.5
	c0.1,0.7,0.1,0.7,0.8,0.8c0.1,0,0.2,0.1,0.3,0.1c-0.3,0.2-0.6,0.2-0.9,0.1c-0.2-0.1-0.4-0.1-0.5,0.1c0,0.1,0,0.2,0,0.3v0.1
	c0,0.1,0,0.1,0,0.2c0.1,0,0.2,0,0.3,0l0,0h0.1h0.1l0,0c0,0.1,0.1,0.1,0.2,0.1c0.1,0.3,0.4,0.1,0.6,0.2c-0.1-0.1-0.2-0.1-0.3-0.2
	c0.3-0.2,0.5-0.2,0.5,0.2c0,0.1,0,0.1,0,0.2c0,0.1,0,0.1,0.1,0.2l0,0c0.1,0.1,0.1,0.1,0.2,0.1c0.1,0,0.2,0,0.3,0
	c0.1,0.1,0.1,0.1,0.2,0.2c0.1,0.2,0.3,0.2,0.5,0.2c0.1,0,0.1,0,0.2-0.1c0.2,0.1,0.4,0.1,0.6,0c0.1,0,0.1,0,0.2,0c0,0,0.1,0,0.1-0.1
	h0.1c0,0,0,0,0.1,0v-0.1c0.1,0,0.2-0.1,0.2-0.2c0-0.1-0.1-0.1-0.2-0.1h-0.1c0,0,0,0-0.1-0.1v-0.1l0.1-0.1c0.2,0.2,0.4,0.2,0.6,0.2
	c0.3,0,0.3-0.2,0.1-0.4h0.1c0.1,0,0.2-0.1,0.3-0.1l0,0h0.1c0,0,0,0,0-0.1l0,0h0.1c0,0,0,0,0-0.1l0,0c0-0.1,0.1-0.1,0.1-0.2
	c-0.1-0.5,0.4-0.5,0.7-0.7c0.1,0,0.1-0.1,0.2-0.1c0.2-0.8,0.4-1.5,0.4-2.3c0.2-0.4,0.4-0.9,0.4-1.4c-0.1-0.5,0.2-0.7,0.6-0.9
	c0.1-0.2,0.3-0.4,0.4-0.6c0-0.6,0.3-1.1,0.5-1.6v-0.1c0.3-0.1,0.7-0.2,1-0.4v-0.1c-0.1-0.1-0.2-0.2-0.4-0.2
	c-0.1-0.1-0.1-0.3-0.3-0.4l0,0c0.2-0.4,0.4-0.7,0.6-1.1c0.1-0.2,0.2-0.3,0.2-0.5c0-0.4-0.4-0.5-0.4-0.9c0-0.2,0.1-0.3,0.1-0.5
	c0.1,0,0.1,0,0.1-0.2h-0.1c0,0,0,0,0-0.1c0-0.2,0.1-0.4,0.1-0.6c0-0.2,0-0.5,0-0.7c-0.1-0.2-0.3-0.3-0.5-0.4l0,0c0,0,0,0,0-0.1
	c-0.3-0.2,0-0.6-0.3-0.8l0,0c-0.1-0.1-0.2-0.1-0.3-0.1c0,0-0.1-0.1-0.1,0c0-0.1-0.1-0.1-0.2-0.1l0,0c-0.1-0.2-0.2-0.2-0.3,0
	c-0.2,0-0.4,0-0.5-0.1c-0.2-0.4-0.6-0.3-0.9-0.3c-0.4-0.4-0.8-0.7-1.3-1c0.1,0,0.1,0,0.2,0c-0.3-0.5-0.7-0.3-1.1-0.3
	c-0.3,0-0.6-0.3-0.9,0c-0.1,0.2-0.1,0.4-0.2,0.6c-0.2,0.3-0.5,0.6-0.9,0.4c-0.1-0.1-0.3,0-0.4,0c-0.3,0.1-0.6,0.3-1,0.1
	c-0.2-0.1-0.4,0.1-0.5,0.3c-0.4-0.2-0.9-0.2-1.3,0c-0.2,0.1-0.3,0.1-0.5,0.1c-0.8,0.1-1.5,0.5-2.1,1.1c-0.2,0.2-0.4,0.3-0.6,0.2
	c-0.3,0-0.3-0.2-0.3-0.5H34c0.3,0,0.6-0.1,0.6-0.4h0.1c0-0.1,0.1-0.1,0.2-0.1l0,0c0.1-0.1,0.1-0.2,0.1-0.3v-0.1
	c0.1-0.1,0.1-0.2,0.2-0.3c0.1-0.1,0.1-0.1,0.2-0.2c0-0.1,0.1-0.1,0.1-0.2v-0.1c0.6-0.6,1-1.3,1.7-1.8c0.8-0.5,1.5-1.3,2.6-1.4
	c0.1-0.3-0.1-0.6,0.2-0.8c0.1,0,0.1,0,0.2,0c0.3,0.1,0.5,0.3,0.7-0.1c0.3-0.5,0.7-0.8,1-1.2c0.5-0.5,1-0.8,1.7-0.9
	c0.5,0,0.8-0.7,1.4-0.4c0.1,0,0.3-0.2,0.3-0.4c0.4-0.5,1-0.5,1.5-0.6c0.5,0.3,0.9-0.3,1.4-0.1c0,0,0.1-0.1,0.2-0.1
	c0.1-0.2,0.2-0.4,0.5-0.1c0.1,0.1,0.4-0.2,0.6-0.3c0.8,0.1,1.6,0.5,2.5,0.1v-0.1c0,0-0.1,0-0.1-0.1l0,0c0,0,0,0,0.1,0.1
	c0-0.1,0.1-0.1,0.1-0.2c0.2,0.1,0.3,0.4,0.5,0.3c0.3-0.1,0.6-0.2,0.8,0.1c0,0.1,0.2,0,0.3,0c0.4-0.4,0.8-0.3,1.2-0.1
	c0.1,0.1,0.2,0.1,0.3,0.2c0.2,0.2,0.4,0.1,0.6,0.2c0.1,0.1,0.1,0.1,0.2,0.2l0,0c0,0.1,0.1,0.1,0.2,0c0.1,0,0.1,0,0.2,0
	c0.1,0,0.2,0,0.3-0.2l0,0c0.1-0.1,0.2-0.2,0.2-0.3s0-0.1,0-0.1c0-0.1,0.1-0.1,0.2-0.1l0,0c0.2-0.3,0.4-0.4,0.5-0.1
	c0.2,0.5,0.5,0.5,0.8,0.2l0,0c-0.1-0.3,0.3-0.5,0.3-0.8c0.2-0.1,0.4-0.1,0.4-0.4C58.9,171,58.6,171.1,58.5,170.9z M16.8,182.1
	L16.8,182.1L16.8,182.1L16.8,182.1z M23.3,179.1c-0.2,0.2-0.4,0.2-0.6,0.2c-0.1-0.2-0.3-0.1-0.5-0.2V179h0.1c0.5-0.4,1.2-0.3,1.6-1
	v-0.1c0.1,0,0.2,0,0.2,0l0.1,0.1c0.1,0.2,0.4,0.1,0.3,0.4C24,178.5,23.6,178.8,23.3,179.1z M16.3,196.4L16.3,196.4
	C16.4,196.4,16.4,196.4,16.3,196.4C16.4,196.4,16.4,196.4,16.3,196.4z M22.8,189.6L22.8,189.6L22.8,189.6L22.8,189.6z M23.1,189.9
	L23.1,189.9L23.1,189.9L23.1,189.9z M23.7,190.4L23.7,190.4L23.7,190.4L23.7,190.4z M38.8,197L38.8,197L38.8,197L38.8,197L38.8,197
	L38.8,197L38.8,197L38.8,197z M33.6,182.3L33.6,182.3L33.6,182.3L33.6,182.3z M28.8,184.9L28.8,184.9L28.8,184.9L28.8,184.9z
	 M38,192.9C38,192.9,37.9,192.9,38,192.9L38,192.9C37.9,192.9,38,192.9,38,192.9L38,192.9z M33.8,185c0.1,0,0.1-0.1,0.2-0.1l0,0
	c0.4,0,0.6-0.1,0.7-0.4c0.1-0.1,0.1-0.1,0.2-0.2c0.1,0,0.1-0.1,0.2-0.1l0.1-0.1c0.2-0.1,0.4-0.3,0.6-0.4c0.1,0,0.1-0.1,0.2-0.1
	c0.1,0,0.2-0.1,0.3,0l0.1-0.1h0.1c0.1,0,0.1-0.1,0.2-0.1c0.1-0.1,0.3-0.1,0.4-0.2c0.1,0,0.1,0,0.2,0c0.1,0,0.1,0,0.2,0
	c0.1,0,0.2,0,0.3,0c0.3,0,0.6,0,1,0c1.5,0,3,0.1,4.2,1.3c0,0,0,0,0,0.1c0,0.7-0.3,1.2-0.5,1.9c-0.2,1-0.6,2-0.8,3
	c-0.1,0.3,0,0.7-0.1,1c0,0.1,0,0.1,0,0.2c0.1,0.5-0.1,1-0.4,1.4c0,0,0,0.1-0.1,0.1c0,0,0,0.1-0.1,0.1h-0.1c-0.1-0.1-0.3-0.1-0.4-0.2
	c-0.3-0.1-0.4,0.1-0.4,0.3v0.1c0,0-0.1,0-0.1,0.1c0.2,0.7-0.4,1.3-0.4,1.9c0,0.1,0,0.1,0,0.2c-0.3,0-0.4-0.2-0.4-0.5
	c0-0.1,0-0.2,0.1-0.3h0.1c0.3-0.1,0.4-0.2,0.2-0.5c0,0.1,0,0.1-0.1,0.2c0-0.1,0-0.1,0-0.2c-0.1-0.2-0.2-0.4-0.4-0.2l0,0H39
	c0,0,0,0,0-0.1c-0.2-0.1-0.4,0-0.5,0.2l-0.1-0.1h-0.1c0-0.2,0-0.3-0.1-0.5c0,0,0,0,0.1,0s0.1-0.1,0.2-0.1c0.1-0.5-0.2-0.5-0.5-0.6
	c-0.1,0-0.1,0-0.2,0l0,0h-0.1v-0.1c-0.1,0-0.3,0-0.4,0c-0.3,0-0.5-0.3-0.8,0h-0.1v0.1l0,0c0,0.4,0.3,0.1,0.4,0.1c0,0.3,0,0.5,0,0.8
	c0,0.1-0.1,0.1-0.1,0.2c-0.3,0.5-0.7-0.1-1.1,0.1l0,0l0,0l0,0l0,0c0.1-0.1,0,0,0-0.1c0-0.5-0.3-0.5-0.7-0.5
	c-0.5-0.1-0.9,0.2-1.3,0.4c-0.2,0.1-0.3,0.1-0.5,0.2c0,0,0,0.1-0.1,0.1s-0.3,0.1-0.4,0.1c0-0.1-0.1-0.1-0.1-0.2
	c-0.1-0.1-0.1-0.1-0.2,0l0,0c0,0.1-0.1,0.1-0.1,0.2c-0.1,0.1-0.2,0.2-0.3,0.2l0,0c-0.1,0-0.1,0-0.2,0s-0.1,0-0.2,0s-0.1,0-0.2,0.1
	l-0.1,0.1c0,0,0,0-0.1,0.1L31,194c0,0,0,0.1-0.1,0.1c-0.3,0-0.5,0.1-0.7,0.4h-0.1c-0.1,0.1-0.2,0.2-0.3,0.3
	c-0.3,0.4-0.8,0.3-1.2,0.5c0-0.1,0-0.1,0.1-0.2l0,0c0.1,0,0.1-0.1,0.1-0.2c0.1-0.2,0.1-0.4,0.1-0.6c0-0.2,0-0.5-0.1-0.7
	c0-0.2-0.1-0.3-0.1-0.5c0.1-0.2,0.3-0.5,0.2-0.7c-0.5-0.6-0.2-1.3-0.4-2c-0.1-0.4,0.1-0.8-0.2-1.1l-0.1-0.1c0-0.2,0.1-0.4,0.3-0.6
	c0-0.3,0.1-0.6-0.1-0.8v-0.1c0-0.1,0-0.1,0-0.2v-0.1c0.3,0.1,0.6,0,0.8-0.2c0.1-0.2,0.1-0.5,0-0.7l0,0v-0.1c0.3,0,0.6-0.1,0.8-0.3
	c0.2-0.1,0.3-0.3,0.5-0.5c0-0.1,0.1-0.1,0.1-0.2l0,0c0.1,0,0.2-0.1,0.2-0.2v-0.1h0.1l0,0H31h0.1l0,0c0.1,0.1,0.2,0.1,0.3,0.1
	c0.1,0,0.1-0.1,0.2-0.2l0.1-0.1v-0.1c0,0,0.1,0,0,0l0.1,0.1c0,0,0.1,0,0.1,0.1H32c0,0,0,0,0.1,0.1c-0.1,0.3,0.1,0.3,0.3,0.3
	s0.3,0,0.5,0c0.1,0.1,0.1,0.1,0.2,0c0.1,0,0.2-0.1,0.4-0.1c0.1,0,0.2,0,0.2-0.1c0.1,0,0.2-0.1,0.3-0.1
	C33.6,185.1,33.7,185.1,33.8,185z M38.2,176.9L38.2,176.9L38.2,176.9L38.2,176.9z M40.2,173.5c-0.1,0.1-0.2,0.2-0.3,0.3l-0.1,0.1
	c-0.1,0-0.1,0.1-0.2,0.1l-0.1,0.1l-0.1,0.1l-0.1,0.1l-0.1,0.1l-0.1,0.1l-0.1,0.1c0,0,0,0-0.1,0.1l-0.1,0.1c0,0,0,0-0.1,0.1l-0.1,0.1
	c0,0,0,0-0.1,0.1l-0.1,0.1c0,0,0,0-0.1,0c-0.1-0.2-0.2-0.2-0.4-0.2v-0.1c0.3,0,0.6,0.1,0.6-0.3c0-0.1,0.1-0.1,0.1-0.2h0.1
	c0.1,0,0.1-0.1,0.2-0.2c0-0.1,0-0.2,0-0.3s-0.1-0.2-0.1-0.3c0.1-0.3,0.2-0.5,0-0.8c0.1-0.1,0.2-0.2,0.3-0.3l0,0h0.1
	c0,0,0,0.1,0.1,0.1c0.2,0.3,0.6,0.1,0.8,0.3C40.4,173.1,40.3,173.3,40.2,173.5z M40.3,169.2L40.3,169.2L40.3,169.2L40.3,169.2
	L40.3,169.2L40.3,169.2L40.3,169.2L40.3,169.2L40.3,169.2L40.3,169.2z M42.9,167.6c0-0.1,0-0.1,0-0.2c0-0.1,0.1-0.2,0.1-0.3
	c0,0,0,0,0.1-0.1l0.1-0.1c0.1-0.1,0.1-0.1,0.2-0.2c0.3,0,0.5-0.1,0.5-0.5c0-0.3,0-0.6,0-1c0-0.1,0.1-0.2,0.1-0.3
	c0.3-0.5,0.8-0.7,1.2-1.1c0,0,0,0,0-0.1c0.1,0,0.2,0,0.4-0.1c0,0,0,0,0.1,0.1c0,0.1,0,0.2,0.1,0.4c0,0.3,0,0.5-0.1,0.8
	c0,0.1-0.1,0.1-0.1,0.2c-0.1,0-0.2,0.1-0.2,0.2v0.1c-0.1,0-0.2-0.3-0.4-0.2c-0.1,0.1-0.2,0.4-0.1,0.4c0.6,0.1,0.2,0.3,0.2,0.6l0,0
	c-0.1,0-0.1,0-0.2,0c-0.1-0.2-0.2-0.2-0.3,0c-0.1,0.1-0.1,0.3-0.2,0.4c-0.1,0.1-0.1,0.1-0.2,0.2c-0.1,0.1-0.2,0.3-0.4,0.4h-0.1
	c-0.1,0-0.2,0.1-0.3,0.2c-0.1,0.1-0.1,0.2-0.1,0.3c0,0,0,0.1-0.1,0.1h-0.1C42.9,167.7,42.9,167.6,42.9,167.6z M49.9,171.8
	L49.9,171.8L49.9,171.8L49.9,171.8L49.9,171.8z M53.3,172.4C53.3,172.3,53.3,172.3,53.3,172.4c0,0,0.1,0,0.2,0
	C53.5,172.4,53.4,172.4,53.3,172.4z M47.8,185.3c0.1,0,0.2-0.1,0.2-0.3C47.9,185.1,47.9,185.2,47.8,185.3z M19.1,191.6
	c-0.1,0-0.2,0-0.3,0.2C19,191.8,19.1,191.7,19.1,191.6z M15.4,182.9L15.4,182.9L15.4,182.9L15.4,182.9z M15.6,182.9
	c-0.1,0-0.1,0-0.2-0.1C15.5,182.9,15.5,183.1,15.6,182.9z M18.8,183.1L18.8,183.1L18.8,183.1L18.8,183.1z M41.4,198.7
	c0.1,0,0.1,0,0.2,0C41.5,198.6,41.5,198.6,41.4,198.7z M22,165.5L22,165.5C22,165.4,22,165.4,22,165.5z M29.4,167.8
	c0.1,0.1,0.1,0.1,0.2,0C29.5,167.8,29.5,167.8,29.4,167.8z M44.8,170.3c0.1,0,0.2,0,0.3-0.1c0.1,0,0.2-0.2,0.1-0.2
	c-0.1-0.1-0.2-0.1-0.3,0S44.8,170.2,44.8,170.3L44.8,170.3z M45.8,170.9L45.8,170.9C45.8,170.9,45.7,170.9,45.8,170.9
	C45.7,170.9,45.7,170.9,45.8,170.9L45.8,170.9z M44.5,169.2L44.5,169.2L44.5,169.2c0.2-0.1,0.3-0.1,0.4-0.1c0-0.1,0-0.1,0-0.2
	c0-0.1-0.1-0.1-0.1-0.2c0-0.3-0.2-0.3-0.5-0.3c-0.1,0.1-0.1,0.1-0.2,0.2H44v0.1c0,0,0,0,0.1,0v0.1C44.3,169,44.4,169.1,44.5,169.2z
	 M45.5,168.5c0-0.3-0.2-0.3-0.4-0.4c0-0.1,0-0.1,0-0.2c0,0.1-0.1,0.1-0.1,0.2l0,0c-0.1,0.3,0,0.4,0.3,0.5
	C45.4,168.7,45.5,168.6,45.5,168.5z M45.4,167.7c-0.1,0.1-0.1,0.2-0.2,0.3C45.4,168,45.5,167.9,45.4,167.7L45.4,167.7z M45.9,166.6
	C45.9,166.6,45.8,166.6,45.9,166.6c-0.1,0.1-0.1,0.1,0,0.2l0,0c0.2,0.2,0.3,0.2,0.5,0c-0.2,0-0.3,0-0.5,0
	C45.9,166.7,45.9,166.6,45.9,166.6z M46.4,165.6C46.4,165.6,46.4,165.5,46.4,165.6C46.3,165.6,46.3,165.6,46.4,165.6L46.4,165.6z
	 M47.6,164.4c-0.1,0.1-0.1,0.1-0.2,0.2C47.5,164.6,47.5,164.5,47.6,164.4z M41,166.6c0.2-0.1,0.3-0.1,0.5-0.2
	C41.2,166.2,41,166.3,41,166.6z M42,163.7c-0.1,0-0.2,0-0.3,0C41.8,163.8,41.9,163.8,42,163.7z M42.2,163.5c0.1,0,0.1-0.1,0.2-0.1
	h-0.1l0,0C42.2,163.4,42.2,163.5,42.2,163.5z M38.6,191.9c0.2,0,0.1-0.1,0.2-0.2c-0.1,0-0.2,0-0.3,0
	C38.5,191.7,38.5,191.9,38.6,191.9z M23.1,180.3c-0.3,0-0.5,0-0.6,0.3C22.8,180.6,23,180.5,23.1,180.3z M26.8,178.2L26.8,178.2v-0.1
	l0.1-0.1h-0.1c-0.4-0.2-0.3,0.1-0.4,0.3l0,0C26.6,178.4,26.7,178.4,26.8,178.2z M33.4,192.7c-0.1,0-0.2,0-0.3,0.2
	C33.2,192.9,33.4,192.8,33.4,192.7z M29.6,175.6v0.1c-0.2,0.1-0.4,0-0.5,0.2c-0.1,0-0.2,0-0.3,0c-0.2-0.3-0.4-0.3-0.5,0
	c-0.2,0-0.4,0.1-0.5,0.2c-0.1,0.1-0.2,0.3-0.1,0.5s0.3,0.2,0.5,0.1c0.2-0.1,0.3-0.2,0.5-0.4v0.1c0,0.2-0.2,0.3-0.2,0.5
	c-0.1,0.3-0.2,0.6,0.2,0.7v-0.1c0.2-0.1,0.6,0.1,0.7-0.2c0.2,0,0.5,0.1,0.6-0.2c0.1,0,0.1,0,0.2,0c0-0.1,0-0.1,0-0.2
	c0.1,0,0.1-0.1,0.2-0.1c0.4,0,0.8,0.3,1.1-0.2c0.5,0,0.2-0.4,0.4-0.6v-0.3c0-0.1,0-0.1,0-0.2c-0.3,0-0.7,0-0.6-0.5
	c0-0.1,0-0.3,0-0.4c0-0.3-0.1-0.5-0.4-0.4c-0.2,0.1-0.7,0-0.5,0.5l0,0C29.8,175.1,29.8,175.1,29.6,175.6z M37.1,175.2L37.1,175.2
	L37.1,175.2L37.1,175.2z M35,176.6c0.1-0.1,0-0.1,0-0.2c-0.1,0-0.1,0.1-0.2,0.2C34.9,176.6,34.9,176.7,35,176.6z M34.7,163.5
	c-0.1,0.1-0.1,0.2-0.1,0.3c0,0,0.1,0,0.1,0.1C34.9,163.8,34.8,163.7,34.7,163.5C34.8,163.6,34.7,163.5,34.7,163.5z M33.8,167.9
	c-0.1,0.1-0.1,0.2-0.1,0.4h0.1h0.1c0-0.1,0.1-0.1,0.1-0.2l0,0C34,168,33.9,167.8,33.8,167.9z M65.7,3.6c0-0.1,0.1-0.2,0.2-0.3
	c0.1,0,0.1-0.1,0.3-0.1c0.1,0,0.3,0,0.4,0h2.9c0.2,0,0.5,0,0.7,0s0.4,0,0.5,0v0.5c0,0.1,0,0.1,0,0.2c0,0.1,0,0.2,0,0.2
	c0,0.2,0,0.3-0.1,0.5c0,0.1-0.1,0.2-0.2,0.3c0,0-0.1,0.1-0.2,0.1C70.1,5.1,70,5.1,70,5.2c-0.1,0.1-0.2,0.1-0.3,0.2
	c-0.1,0.1-0.2,0.1-0.3,0.1v0.1L71,5.4c0-0.1-0.1-0.2-0.1-0.3c0-0.1,0-0.2,0-0.4c0-0.2,0-0.4,0-0.5s0-0.3,0-0.4c0-0.1,0-0.3,0-0.4
	V1.9c0-0.1,0-0.3,0-0.4c0-0.1,0-0.3,0-0.5s0-0.3,0-0.4s0-0.2,0.1-0.3L69.5,0v0.1c0.1,0,0.2,0.1,0.3,0.1c0.1,0,0.2,0.1,0.2,0.2
	c0.1,0.1,0.2,0.1,0.2,0.2s0.1,0.1,0.2,0.1c0.1,0.1,0.2,0.2,0.2,0.3s0.1,0.3,0.1,0.5c0,0.1,0,0.2,0,0.2c0,0.1,0,0.1,0,0.2v0.5h-2.9
	c-0.1,0-0.3,0-0.4,0s-0.3,0-0.4,0s-0.2,0-0.3,0c-0.1,0-0.2,0-0.2,0c-0.1,0-0.2,0-0.2,0c-0.1,0-0.1,0-0.2,0S66,2.4,66,2.3
	c-0.1-0.1-0.2-0.2-0.2-0.4c0-0.1-0.1-0.2-0.1-0.4h-0.1V4h0.1C65.6,3.9,65.6,3.8,65.7,3.6z M65.9,9.2c0.1,0.2,0.3,0.3,0.5,0.4
	c0.2,0.1,0.4,0.1,0.6,0.1c0.4,0,0.6-0.1,0.9-0.3c0.2-0.2,0.4-0.4,0.5-0.8c0-0.1,0.1-0.2,0.1-0.3s0.1-0.2,0.1-0.3
	c0-0.1,0.1-0.2,0.1-0.3c0-0.1,0.1-0.2,0.1-0.3c0.1,0,0.2-0.2,0.4-0.4s0.4-0.2,0.6-0.2s0.3,0,0.5,0.1C70.4,7,70.5,7,70.6,7.1
	c0.1,0.1,0.2,0.2,0.2,0.4c0,0.1,0.1,0.3,0.1,0.4c0,0.2,0,0.4-0.1,0.5c-0.1,0.2-0.2,0.3-0.3,0.4C70.3,9,70.2,9.1,70,9.2
	c-0.2,0.1-0.3,0.2-0.5,0.2v0.1h1.4V9.4c-0.1,0-0.1-0.1-0.2-0.1s-0.1-0.1-0.1-0.1s0,0,0.1-0.1c0-0.1,0.1-0.1,0.1-0.2
	c0-0.1,0.1-0.2,0.1-0.4C71,8.3,71,8.1,71,7.9c0-0.2,0-0.5-0.1-0.7s-0.2-0.4-0.3-0.6c-0.1-0.2-0.3-0.3-0.5-0.4s-0.4-0.1-0.7-0.1
	c-0.2,0-0.3,0-0.5,0.1c-0.1,0.1-0.3,0.1-0.4,0.2s-0.2,0.2-0.3,0.3C68.1,6.8,68,6.9,68,7.1c0,0.1,0,0.2,0,0.3s-0.1,0.2-0.1,0.2
	c0,0.1-0.1,0.2-0.1,0.2S67.7,8,67.7,8.2s-0.1,0.2-0.1,0.3c-0.1,0.1-0.1,0.2-0.2,0.3S67.2,8.9,67.1,9s-0.3,0-0.4,0
	c-0.3,0-0.6-0.1-0.8-0.3c-0.2-0.2-0.3-0.5-0.3-0.9c0-0.1,0-0.3,0.1-0.4c0-0.1,0.1-0.3,0.1-0.3c0-0.1,0.1-0.2,0.2-0.3
	c0.1-0.1,0.2-0.2,0.3-0.3c0.1-0.1,0.2-0.2,0.4-0.2c0.1-0.1,0.3-0.1,0.4-0.2V6h-1.5v0.1c0.1,0,0.1,0.1,0.2,0.1s0.1,0.1,0.1,0.1
	s0,0.1-0.1,0.1c0,0.1-0.1,0.1-0.1,0.3c0,0.1-0.1,0.3-0.1,0.4c0,0.2,0,0.4,0,0.6c0,0.3,0,0.5,0.1,0.8C65.6,8.8,65.7,9,65.9,9.2z
	 M65.9,14.8c0.1,0.2,0.3,0.3,0.4,0.4c0.2,0.1,0.3,0.1,0.5,0.2c0.2,0,0.3,0.1,0.5,0.1c0.1,0,0.3,0,0.4,0c0.3,0,0.6,0,0.9,0
	s0.5,0,0.7,0c0.1,0,0.2,0,0.3,0c0.1,0,0.2,0,0.3,0c0.1,0,0.2,0,0.3,0s0.1,0,0.2,0c0.1,0.1,0.3,0.1,0.3,0.2c0.1,0.1,0.1,0.3,0.1,0.4
	h0.1v-1.9h-0.1c0,0.2-0.1,0.4-0.2,0.5s-0.2,0.2-0.3,0.3c-0.1,0-0.1,0-0.2,0s-0.2,0-0.3,0s-0.2,0-0.3,0c-0.1,0-0.2,0-0.3,0H68
	c-0.2,0-0.3,0-0.5,0s-0.4,0-0.5-0.1c-0.2,0-0.3-0.1-0.5-0.2c-0.2-0.1-0.3-0.2-0.4-0.3s-0.2-0.3-0.3-0.5c-0.1-0.2-0.1-0.4-0.1-0.7
	c0-0.2,0-0.5,0.1-0.7s0.2-0.4,0.4-0.5c0.2-0.1,0.3-0.2,0.6-0.3c0.2-0.1,0.5-0.1,0.7-0.1c0.1,0,0.2,0,0.3,0c0.1,0,0.2,0,0.3,0h1.5
	c0.1,0,0.2,0,0.3,0c0.1,0,0.2,0,0.3,0c0.1,0,0.2,0,0.3,0.1c0.1,0,0.1,0.1,0.2,0.2c0,0.1,0.1,0.1,0.1,0.2c0,0.1,0,0.2,0,0.2h0.1v-2.2
	h-0.1c0,0.1,0,0.2-0.1,0.3c0,0.1-0.1,0.2-0.2,0.3l-0.1,0.1c0,0-0.1,0-0.2,0s-0.2,0-0.2,0h-1.3c-0.3,0-0.5,0-0.7,0s-0.4,0-0.5,0
	s-0.2,0-0.3,0c-0.1,0-0.3,0-0.4,0.1c-0.1,0-0.3,0.1-0.4,0.2s-0.3,0.2-0.4,0.4s-0.2,0.4-0.3,0.6c-0.1,0.2-0.1,0.5-0.1,0.9
	s0,0.7,0.1,0.9C65.6,14.4,65.7,14.6,65.9,14.8z M67.7,18.7c-0.3,0.3-0.7,0.6-1,0.9s-0.7,0.6-1,0.9l-0.1,0.1c0,0,0,0,0,0.1v1.7h0.1
	c0-0.1,0-0.3,0.1-0.4c0-0.1,0.1-0.2,0.1-0.3c0,0,0,0,0.1-0.1c0,0,0.1-0.1,0.1-0.2s0.1-0.1,0.2-0.2s0.1-0.1,0.2-0.2
	c0.2-0.2,0.5-0.4,0.7-0.7c0.3-0.2,0.5-0.4,0.7-0.6s0.4-0.4,0.6-0.5s0.3-0.2,0.3-0.3c0.1,0.1,0.2,0.2,0.3,0.3
	c0.1,0.1,0.2,0.2,0.3,0.3c0.1,0.1,0.2,0.2,0.3,0.3c0.1,0.1,0.2,0.2,0.3,0.3c0.2,0.3,0.5,0.5,0.7,0.8s0.3,0.5,0.3,0.8h0.1v-2H71
	c0,0.1-0.1,0.2-0.1,0.3c-0.1,0.1-0.2,0.1-0.3,0.1c-0.1,0-0.2,0-0.3-0.1c-0.3,0.1-0.4,0-0.5,0c-0.1-0.1-0.3-0.3-0.5-0.4
	S69,19.2,68.8,19s-0.3-0.3-0.4-0.5s-0.2-0.3-0.3-0.4h1.2c0.1,0,0.2,0,0.3,0c0.1,0,0.2,0,0.3,0c0.2,0,0.4,0,0.5,0.1
	c0.1,0,0.2,0.1,0.3,0.2c0.1,0.1,0.1,0.1,0.1,0.2s0,0.2,0,0.3h0.1v-2.3h-0.1c0,0.1,0,0.2-0.1,0.3c0,0.1-0.1,0.2-0.2,0.3
	c-0.1,0.1-0.2,0.1-0.3,0.1c-0.2,0-0.3,0-0.5,0h-2.3c-0.1,0-0.3,0-0.4,0s-0.2,0-0.3,0c-0.1,0-0.2,0-0.2,0c-0.1,0-0.2,0-0.2,0
	s-0.1,0-0.2,0s-0.1,0-0.1-0.1c-0.1-0.1-0.1-0.1-0.2-0.3c0-0.1-0.1-0.2-0.1-0.4h-0.1V19h0.1c0,0,0-0.1,0-0.2s0-0.1,0.1-0.2
	c0-0.1,0.1-0.1,0.1-0.2s0.1-0.1,0.1-0.1c0.1,0,0.2-0.1,0.3-0.1c0.1,0,0.3,0,0.4,0c0.2,0,0.4,0,0.6,0H68h0.1c0,0,0,0,0,0.1
	c0,0,0,0.1-0.1,0.1C67.9,18.5,67.8,18.6,67.7,18.7z M65.5,24.6L65.5,24.6c0.1-0.1,0.1-0.2,0.2-0.4c0-0.1,0.1-0.2,0.2-0.3
	c0.1,0,0.1-0.1,0.3-0.1c0.1,0,0.3,0,0.4,0h2.5c0.1,0,0.2,0,0.4,0c0.1,0,0.2,0,0.4,0c0.1,0,0.2,0,0.4,0c0.1,0,0.2,0,0.3,0.1
	c0.1,0.1,0.2,0.2,0.2,0.3c0,0.1,0.1,0.2,0.1,0.3H71v-2.2h-0.1c0,0.1,0,0.2-0.1,0.3c0,0.1-0.1,0.2-0.2,0.3L70.5,23
	c-0.1,0-0.1,0-0.2,0s-0.2,0-0.2,0h-2.2c-0.2,0-0.3,0-0.4,0s-0.3,0-0.4,0s-0.2,0-0.3,0c-0.1,0-0.2,0-0.2,0c-0.1,0-0.2,0-0.2,0
	c-0.1,0-0.1,0-0.2,0s-0.1,0-0.1-0.1c-0.1-0.1-0.1-0.2-0.2-0.3c0-0.1-0.1-0.2-0.1-0.3h-0.1L65.5,24.6L65.5,24.6z M69.1,30.1
	c0.1-0.1,0.3-0.2,0.4-0.2s0.2-0.1,0.3-0.2c0.1-0.1,0.3-0.2,0.4-0.2c0.1-0.1,0.2-0.1,0.3-0.1c0.1,0,0.1,0,0.2,0.1
	c0,0,0.1,0.1,0.1,0.2s0,0.1,0,0.2s0,0.1,0,0.2h0.1v-2.3h-0.1c0,0.1,0,0.2-0.1,0.3c-0.1,0.1-0.1,0.2-0.2,0.2
	c-0.1,0.1-0.2,0.2-0.3,0.2c-0.1,0.1-0.3,0.2-0.4,0.3c-0.1,0-0.2,0.1-0.3,0.2c-0.1,0.1-0.2,0.2-0.4,0.2c-0.1,0.1-0.3,0.2-0.4,0.3
	s-0.3,0.2-0.4,0.2c-0.1,0.1-0.2,0.1-0.3,0.2c-0.1,0-0.1,0.1-0.1,0.1c-0.3,0-0.5,0-0.7,0s-0.4,0-0.5,0s-0.2,0-0.2,0
	c-0.1,0-0.2,0-0.2,0c-0.1,0-0.1,0-0.2,0S66,30,66,29.9c-0.1-0.1-0.2-0.2-0.2-0.3c0-0.1-0.1-0.2-0.1-0.3h-0.1v2.3h0.1
	c0-0.1,0-0.2,0.1-0.3c0-0.1,0.1-0.2,0.2-0.3c0.1,0,0.2-0.1,0.3-0.1c0.1,0,0.3,0,0.4,0h1.5c0.1,0.1,0.2,0.1,0.4,0.2
	c0.2,0.1,0.3,0.2,0.5,0.3c0.2,0.1,0.3,0.2,0.5,0.3c0.2,0.1,0.3,0.2,0.4,0.2c0.1,0.1,0.3,0.2,0.4,0.2c0.1,0.1,0.2,0.2,0.3,0.2
	c0.1,0.1,0.1,0.2,0.2,0.3S71,32.8,71,33h0.1v-1.7H71c0,0.1,0,0.1,0,0.2s0,0.1-0.1,0.2c0,0.1-0.1,0.1-0.1,0.2c0,0.1-0.1,0.1-0.2,0.1
	s-0.1,0-0.2,0s-0.1,0-0.2-0.1c-0.1,0-0.1-0.1-0.2-0.1s-0.1-0.1-0.1-0.1c-0.1,0-0.2-0.1-0.3-0.2c-0.1-0.1-0.3-0.2-0.4-0.3
	c-0.2-0.1-0.3-0.2-0.4-0.3c-0.1-0.1-0.3-0.2-0.4-0.2c0.1-0.1,0.3-0.2,0.4-0.3C68.8,30.2,69,30.2,69.1,30.1z M70.8,34.7
	c-0.1-0.4-0.3-0.7-0.5-0.9c-0.2-0.3-0.5-0.5-0.9-0.6C69.1,33,68.7,33,68.2,33c-0.4,0-0.8,0.1-1.1,0.2c-0.3,0.1-0.6,0.3-0.9,0.6
	c-0.2,0.3-0.4,0.5-0.6,0.9c-0.1,0.3-0.2,0.7-0.2,1.1c0,0.4,0.1,0.7,0.2,1.1c0.1,0.3,0.3,0.6,0.6,0.9s0.5,0.5,0.9,0.6
	c0.3,0.1,0.7,0.2,1.1,0.2s0.7-0.1,1-0.2c0.3-0.1,0.6-0.3,0.9-0.5c0.2-0.2,0.4-0.5,0.6-0.9c0.2-0.3,0.2-0.7,0.2-1.1
	C71,35.4,70.9,35,70.8,34.7z M70.6,36.5c-0.2,0.2-0.4,0.4-0.6,0.6c-0.3,0.2-0.5,0.3-0.8,0.4c-0.3,0.1-0.6,0.1-0.9,0.1
	s-0.6,0-0.9-0.1s-0.6-0.2-0.8-0.3c-0.2-0.2-0.5-0.3-0.6-0.6s-0.2-0.5-0.2-0.8s0.1-0.6,0.2-0.8s0.3-0.4,0.6-0.6
	c0.2-0.2,0.5-0.3,0.8-0.4c0.3-0.1,0.6-0.1,1-0.1c0.3,0,0.6,0,1,0.1c0.3,0.1,0.6,0.2,0.8,0.3c0.2,0.2,0.5,0.3,0.6,0.6
	c0.2,0.2,0.2,0.5,0.2,0.8C70.9,36,70.8,36.3,70.6,36.5z M71,41.6L71,41.6c-0.1,0.1-0.1,0.2-0.2,0.3c0,0.1-0.1,0.2-0.2,0.3l-0.1,0.1
	c-0.1,0-0.1,0-0.2,0s-0.2,0-0.2,0h-2.2c-0.1,0-0.3,0-0.4,0s-0.3,0-0.4,0s-0.2,0-0.3,0c-0.1,0-0.2,0-0.2,0h-0.2c-0.1,0-0.1,0-0.2,0
	s-0.1,0-0.1-0.1C66,42.1,66,42,65.9,41.9c0-0.1-0.1-0.2-0.1-0.3h-0.1v2.3h0.1c0-0.1,0-0.2,0.1-0.4c0-0.1,0.1-0.2,0.2-0.3
	c0.1,0,0.1-0.1,0.3-0.1c0.1,0,0.3,0,0.4,0h2.5c0.1,0,0.2,0,0.4,0c0.1,0,0.2,0,0.4,0c0.1,0,0.2,0,0.4,0c0.1,0,0.2,0,0.3,0.1
	c0.1,0.1,0.2,0.2,0.2,0.3s0.1,0.2,0.1,0.3H71V41.6L71,41.6z M68,46.4c0.3-0.1,0.5-0.2,0.8-0.3s0.5-0.2,0.8-0.3
	c0.2-0.1,0.4-0.2,0.6-0.2c0.2-0.1,0.3-0.1,0.3-0.1c0.1,0,0.2,0,0.2,0.1c0.1,0,0.1,0.1,0.1,0.2s0,0.1,0.1,0.2c0,0.1,0,0.1,0,0.1H71
	V44h-0.1c0,0.1,0,0.2-0.1,0.3c0,0.1-0.1,0.1-0.1,0.2l-0.1,0.1c0,0-0.1,0-0.1,0.1c-0.1,0-0.1,0.1-0.2,0.1s-0.1,0-0.2,0.1
	c-0.1,0-0.1,0-0.2,0.1c-0.1,0-0.2,0.1-0.2,0.1c-0.3,0.1-0.6,0.2-0.9,0.4c-0.3,0.1-0.6,0.2-1,0.4c-0.3,0.1-0.7,0.3-1,0.4
	c-0.4,0.1-0.7,0.3-1.1,0.4v0.1l0.7,0.3c0.2,0.1,0.5,0.2,0.7,0.3c0.3,0.1,0.5,0.2,0.8,0.3s0.5,0.2,0.8,0.3s0.5,0.2,0.7,0.3
	c-0.3,0.1-0.6,0.2-0.8,0.3c-0.3,0.1-0.6,0.2-0.9,0.3s-0.6,0.2-0.9,0.3s-0.7,0.2-1,0.4v0.1l0.7,0.3c0.3,0.1,0.6,0.2,0.9,0.3
	s0.6,0.2,0.9,0.3s0.6,0.2,0.9,0.3s0.6,0.2,0.8,0.3c0.1,0,0.3,0.1,0.4,0.1s0.2,0.1,0.2,0.1c0.1,0,0.1,0.1,0.1,0.1l0.1,0.1
	c0,0,0.1,0.1,0.1,0.2C71,51.9,71,52,71,52.1h0v-1.6h-0.1c0,0.1,0,0.1,0,0.2s0,0.1-0.1,0.2c0,0.1-0.1,0.1-0.1,0.2
	c0,0-0.1,0.1-0.2,0.1c0,0-0.1,0-0.2,0s-0.3,0-0.5-0.1s-0.4-0.1-0.6-0.2c-0.2-0.1-0.4-0.1-0.6-0.2c-0.2-0.1-0.4-0.1-0.6-0.2
	c-0.2-0.1-0.4-0.1-0.5-0.2c-0.2-0.1-0.3-0.1-0.4-0.1s-0.2-0.1-0.2-0.1c0.1,0,0.2-0.1,0.5-0.2c0.2-0.1,0.4-0.2,0.7-0.3
	s0.5-0.2,0.8-0.3s0.6-0.2,0.8-0.3c0.2-0.1,0.5-0.2,0.6-0.2c0.2-0.1,0.3-0.1,0.3-0.1c0.1,0,0.1,0,0.2,0.1s0.1,0.1,0.1,0.2
	s0,0.2,0.1,0.2c0,0.1,0,0.1,0,0.2h0v-2.3h-0.1c0,0.1,0,0.2,0,0.3s-0.1,0.2-0.1,0.2l-0.1,0.1l-0.1,0.1c-0.1,0.1-0.3,0.1-0.4,0.2
	s-0.3,0.1-0.5,0.2c-0.3-0.1-0.7-0.2-1-0.3s-0.6-0.2-0.9-0.3c-0.2-0.1-0.5-0.2-0.6-0.2c-0.2-0.1-0.3-0.1-0.3-0.1
	c0.1-0.1,0.3-0.1,0.6-0.2C67.5,46.6,67.8,46.5,68,46.4z M70.9,54.4c-0.1,0-0.1-0.1-0.2-0.1c-0.1-0.1-0.1-0.1-0.2-0.2
	c-0.1-0.1-0.1-0.2-0.1-0.2L70.2,54c-0.3-0.1-0.6-0.2-0.9-0.4c-0.3-0.1-0.6-0.3-1-0.4c-0.3-0.1-0.6-0.3-0.9-0.4
	c-0.3-0.1-0.6-0.2-0.8-0.4c-0.3-0.1-0.4-0.2-0.6-0.3c-0.1-0.1-0.2-0.1-0.2-0.2c0,0-0.1-0.1-0.1-0.2c-0.1-0.1-0.1-0.2-0.1-0.3h-0.1
	V53h0.1c0-0.1,0-0.1,0-0.2c0-0.1,0-0.1,0.1-0.2c0-0.1,0.1-0.1,0.1-0.2c0,0,0.1-0.1,0.2-0.1s0.3,0.1,0.6,0.2c0.2,0.1,0.3,0.1,0.5,0.2
	c0.2,0.1,0.4,0.1,0.5,0.2v2C67.4,55,67.2,55,67,55.1c-0.2,0.1-0.3,0.1-0.5,0.2c-0.1,0-0.3,0.1-0.4,0.1s-0.2,0-0.2,0
	c-0.1,0-0.1,0-0.2-0.1c0,0-0.1-0.1-0.1-0.2c0-0.1,0-0.1-0.1-0.2s0-0.1,0-0.1h-0.1V57h0.1c0-0.1,0-0.2,0.1-0.3c0-0.1,0.1-0.2,0.1-0.2
	c0.1-0.1,0.1-0.1,0.2-0.1s0.1-0.1,0.1-0.1c0.1-0.1,0.2-0.1,0.3-0.2c0.1,0,0.2-0.1,0.4-0.2c0.3-0.1,0.6-0.2,1-0.4
	c0.3-0.1,0.7-0.2,1-0.4c0.3-0.1,0.7-0.3,1.1-0.4c0.4-0.1,0.8-0.3,1.2-0.4v-0.1C71,54.4,71,54.4,70.9,54.4z M69.7,54.1
	c-0.2,0.1-0.4,0.1-0.6,0.2s-0.4,0.2-0.6,0.3s-0.4,0.2-0.7,0.3V53c0.3,0.1,0.6,0.2,0.8,0.3c0.3,0.1,0.5,0.2,0.7,0.3s0.4,0.2,0.5,0.2
	c0.1,0.1,0.2,0.1,0.3,0.1C70,54,69.9,54.1,69.7,54.1z"/>
</svg>
